<svg width="29" height="29" viewBox="0 0 29 29" fill="none" xmlns="http://www.w3.org/2000/svg">
<g filter="url(#filter0_d)">
<path fill-rule="evenodd" clip-rule="evenodd" d="M23.2172 11.195C22.5902 11.5158 21.8799 11.6967 21.1273 11.6967C18.5895 11.6967 16.5322 9.63937 16.5322 7.10155C16.5322 6.03319 16.8968 5.04999 17.5083 4.26958C16.9092 3.7341 16.5322 2.95544 16.5322 2.0887C16.5322 1.39151 16.7762 0.751298 17.1834 0.24881C16.4352 0.0858511 15.6583 0 14.8612 0C8.86274 0 4 4.86274 4 10.8612C4 16.8597 8.86274 21.7225 14.8612 21.7225C19.7453 21.7225 23.8765 18.4987 25.2429 14.0629C24.0669 13.6841 23.216 12.5809 23.216 11.279C23.216 11.2509 23.2164 11.2229 23.2172 11.195Z" fill="white"/>
</g>
<circle cx="12.3548" cy="10.8613" r="1.67096" fill="#000099"/>
<circle cx="12.3548" cy="5.84842" r="0.835479" fill="#000099"/>
<circle cx="18.2032" cy="15.8742" r="0.835479" fill="#000099"/>
<circle cx="11.1015" cy="16.2919" r="1.25322" fill="#000099"/>
<defs>
<filter id="filter0_d" x="0.614437" y="0" width="28.014" height="28.4936" filterUnits="userSpaceOnUse" color-interpolation-filters="sRGB">
<feFlood flood-opacity="0" result="BackgroundImageFix"/>
<feColorMatrix in="SourceAlpha" type="matrix" values="0 0 0 0 0 0 0 0 0 0 0 0 0 0 0 0 0 0 127 0"/>
<feOffset dy="3.38556"/>
<feGaussianBlur stdDeviation="1.69278"/>
<feColorMatrix type="matrix" values="0 0 0 0 0.4625 0 0 0 0 0.4625 0 0 0 0 0.925 0 0 0 0.12 0"/>
<feBlend mode="normal" in2="BackgroundImageFix" result="effect1_dropShadow"/>
<feBlend mode="normal" in="SourceGraphic" in2="effect1_dropShadow" result="shape"/>
</filter>
</defs>
</svg>
