<svg width="120" height="35" viewBox="0 0 120 35" fill="none" xmlns="http://www.w3.org/2000/svg">
<path d="M25.2158 11.598H19.4668V25.2557H22.0664V20.3766H25.2758C27.9754 20.3766 29.7251 18.5469 29.7251 16.0073C29.7251 13.3277 28.0754 11.598 25.2158 11.598ZM25.1958 17.997H22.0664V14.0176H25.1958C26.3956 14.0176 27.1255 14.6275 27.1255 16.0073C27.1255 17.3871 26.3956 17.997 25.1958 17.997Z" fill="white"/>
<path d="M35.304 14.8674C32.4845 14.8674 30.2049 17.167 30.2049 20.2065C30.2049 23.246 32.4845 25.5057 35.304 25.5057C38.1236 25.5057 40.4232 23.246 40.4232 20.2065C40.4232 17.167 38.1136 14.8674 35.304 14.8674ZM35.304 23.1161C33.9243 23.1161 32.8045 21.9362 32.8045 20.2265C32.8045 18.4768 33.9243 17.257 35.304 17.257C36.6838 17.257 37.8036 18.4768 37.8036 20.2265C37.8036 21.9362 36.6838 23.1161 35.304 23.1161Z" fill="white"/>
<path d="M46.5323 23.1362C45.0925 23.1362 43.9327 21.8164 43.9327 20.2267C43.9327 18.5969 45.0925 17.2572 46.5323 17.2572C47.4721 17.2572 48.2819 17.8471 48.6419 18.537H51.4214C50.8315 16.2573 48.9818 14.8776 46.5422 14.8776C43.4927 14.8776 41.3031 17.2772 41.3031 20.2167C41.3031 23.1462 43.4927 25.5158 46.5422 25.5158C49.0018 25.5158 50.8515 24.156 51.4414 21.8564H48.6619C48.3219 22.5463 47.4921 23.1362 46.5323 23.1362Z" fill="white"/>
<path d="M62.2797 15.1175H58.6903L55.3709 18.8069V10.6183H52.7713V25.2558H55.3709V22.3463L56.6706 20.9866L59.1902 25.2558H62.4896L58.5003 19.0769L62.2797 15.1175Z" fill="white"/>
<path d="M67.4687 14.8674C64.6191 14.8674 62.2695 17.267 62.2695 20.2065C62.2695 23.1361 64.6091 25.5057 67.4687 25.5057C69.9882 25.5057 71.7779 24.1059 72.3678 22.0462H69.5883C69.1584 22.8561 68.3085 23.226 67.4386 23.226C66.2188 23.226 65.239 22.4562 64.8991 21.2164H72.5578C72.9477 17.187 70.4682 14.8674 67.4687 14.8674ZM64.9491 19.0767C65.319 17.8969 66.2688 17.147 67.4486 17.147C68.6884 17.147 69.6683 17.8969 69.9882 19.0767H64.9491Z" fill="white"/>
<path d="M76.7871 21.0066V17.4272H78.6168V15.1275H76.7871V12.548H74.1875V15.1275H72.9678V17.4272H74.1875V20.9866C74.1875 23.7661 75.7573 25.5558 78.7368 25.2359V22.8762C77.437 22.9562 76.7871 22.4263 76.7871 21.0066Z" fill="white"/>
<path d="M9.52834 11.5381H8.5285V17.6171H9.52834V11.5381Z" fill="white"/>
<path d="M12.278 13.8976C12.278 12.9878 12.9479 12.3079 13.8678 12.3079C14.8376 12.3079 15.3575 12.9978 15.3575 13.9276V17.627H16.3473V13.9676C16.3473 12.4579 15.4975 11.3881 14.0077 11.3881C13.2778 11.3881 12.648 11.698 12.238 12.2079V11.548H11.2682V17.627H12.268V13.8976H12.278Z" fill="white"/>
<path d="M1.81972 23.0562V20.1467H3.19947V19.1969H1.81972V17.8971H0.829891V19.1969H0V20.1567H0.829891V23.0662C0.829891 24.616 1.80973 25.4558 3.22949 25.2859V24.366C2.48961 24.396 1.81972 24.1261 1.81972 23.0562Z" fill="white"/>
<path d="M7.09872 19.0369C6.37884 19.0369 5.77895 19.3368 5.35902 19.8068V16.4873H4.35919V25.2758H5.35902V21.5565C5.35902 20.6466 6.0289 19.9667 6.94875 19.9667C7.92859 19.9667 8.43854 20.6366 8.43854 21.5865V25.2858H9.42836V21.6264C9.43836 20.1067 8.58848 19.0369 7.09872 19.0369Z" fill="white"/>
<path d="M13.7477 19.0369C12.058 19.0369 10.6883 20.4766 10.6883 22.2363C10.6883 24.016 12.058 25.4158 13.8077 25.4158C15.2175 25.4158 16.2574 24.6859 16.6773 23.3861H15.6175C15.2875 24.096 14.6676 24.506 13.8077 24.506C12.8079 24.506 11.8381 23.7661 11.7081 22.4963H16.8173C16.8372 20.3366 15.3275 19.0369 13.7477 19.0369ZM11.7681 21.6064C12.0281 20.5666 12.9179 19.9567 13.7477 19.9567C14.6376 19.9567 15.4575 20.6166 15.7074 21.6064H11.7681Z" fill="white"/>
<path d="M102.503 34.9942C112.166 34.9942 120 27.1604 120 17.4971C120 7.83371 112.166 0 102.503 0C92.8396 0 85.0059 7.83371 85.0059 17.4971C85.0059 27.1604 92.8396 34.9942 102.503 34.9942Z" fill="white"/>
<path d="M109.532 10.7882H108.232V9.48838C108.232 8.7685 107.652 8.1886 106.932 8.1886C106.212 8.1886 105.632 8.7685 105.632 9.48838V10.7882H103.033V13.3877H105.632V15.9873H108.232V13.3877H109.532C110.252 13.3877 110.832 12.8078 110.832 12.0879C110.832 11.3681 110.252 10.7882 109.532 10.7882Z" fill="#000099"/>
<path d="M105.858 17.259V20.1885C105.858 22.2181 104.889 23.118 102.729 23.118C100.569 23.118 99.5996 22.2181 99.5996 20.1885V13.5996H102.199V11H97V20.1885C97 23.4979 98.9896 25.7175 102.729 25.7175C106.468 25.7175 108.458 23.4979 108.458 20.1885V17.259H105.858Z" fill="#000099"/>
</svg>
