<svg width="592" height="431" viewBox="0 0 592 431" fill="none" xmlns="http://www.w3.org/2000/svg">
<rect opacity="0.2" x="537.529" y="351.343" width="38.8462" height="38.8462" transform="rotate(12.1655 537.529 351.343)" fill="#000099"/>
<rect opacity="0.2" x="105.186" y="205" width="38.8462" height="38.8462" transform="rotate(12.1655 105.186 205)" fill="#000099"/>
<rect x="46.8708" y="117.149" width="24.2551" height="24.2551" transform="rotate(41.6436 46.8708 117.149)" fill="#000099"/>
<rect x="373.99" y="67.0333" width="17.5152" height="17.5152" transform="rotate(-32.236 373.99 67.0333)" fill="#000099"/>
<path opacity="0.2" d="M-1.41805e-06 318.89L37.8904 327.454L8.56398 281L-1.41805e-06 318.89Z" fill="#7676EC"/>
<path d="M564.394 127.518L572.092 147.292L584.169 119.82L564.394 127.518Z" fill="#7676EC"/>
<path d="M320.666 430.697L356.697 416.18L306.149 394.666L320.666 430.697Z" fill="#000099"/>
<path opacity="0.2" d="M386.084 330.927L390.112 356.484L411.641 326.899L386.084 330.927Z" fill="#000099"/>
<path d="M272.846 73.8462L272.846 35L234 73.8462L272.846 73.8462Z" fill="#7676EC"/>
<path d="M554 233L525 233L554 262L554 233Z" fill="#000099"/>
<circle opacity="0.2" cx="442.5" cy="10.5" r="10.5" fill="#000099"/>
<circle opacity="0.2" cx="462.5" cy="117.5" r="10.5" fill="#000099"/>
<circle cx="156.5" cy="394.5" r="10.5" fill="#7676EC"/>
<circle opacity="0.2" cx="146.5" cy="54.5" r="10.5" fill="#7676EC"/>
</svg>
