<?xml version="1.0" standalone="no"?>
<!DOCTYPE svg PUBLIC "-//W3C//DTD SVG 1.1//EN" "http://www.w3.org/Graphics/SVG/1.1/DTD/svg11.dtd" >
<svg xmlns="http://www.w3.org/2000/svg" xmlns:xlink="http://www.w3.org/1999/xlink" version="1.1">
<metadata>
Created by FontForge 20170731 at Wed Feb 17 19:03:07 2021
 By Aleksey,,,
Copyright (c) 2008 by Mrio Feliciano. All rights reserved.
</metadata>
<defs>
<font id="Flama-Medium" horiz-adv-x="1146" >
  <font-face 
    font-family="Flama Medium"
    font-weight="650"
    font-stretch="normal"
    units-per-em="2048"
    panose-1="2 0 0 0 0 0 0 0 0 0"
    ascent="1638"
    descent="-410"
    x-height="1049"
    cap-height="1460"
    bbox="-356 -444 2230 2206"
    underline-thickness="102"
    underline-position="-307"
    unicode-range="U+0020-F8FF"
  />
<missing-glyph horiz-adv-x="1683" 
d="M481 242l-82 82l379 378l-379 379l82 82l379 -379l379 379l82 -82l-379 -379l379 -378l-82 -82l-379 379zM113 -37v1467h1458v-1467h-1458zM236 86h1212v1221h-1212v-1221z" />
    <glyph glyph-name="fi" unicode="fi" horiz-adv-x="1167" 
d="M184 0v854h-149v195h149v135q0 151 76.5 229t226.5 78q60 0 125 -10v-215q-53 6 -94 6q-86 0 -86 -80v-143h180v-195h-180v-854h-248zM782 0v1049h250v-1049h-250zM782 1208v267h250v-267h-250z" />
    <glyph glyph-name="fl" unicode="fl" horiz-adv-x="1277" 
d="M184 0v854h-149v195h149v135q0 151 76.5 229t226.5 78q60 0 125 -10v-215q-53 6 -94 6q-86 0 -86 -80v-143h180v-195h-180v-854h-248zM1036 -14q-51 0 -92 12t-67 29.5t-45 45.5t-28.5 52t-14.5 57t-6 52.5t-1 46.5v1179h250v-1177q0 -86 90 -86q25 0 115 8v-191
q-106 -28 -201 -28z" />
    <glyph glyph-name=".notdef" horiz-adv-x="1683" 
d="M481 242l-82 82l379 378l-379 379l82 82l379 -379l379 379l82 -82l-379 -379l379 -378l-82 -82l-379 379zM113 -37v1467h1458v-1467h-1458zM236 86h1212v1221h-1212v-1221z" />
    <glyph glyph-name=".null" horiz-adv-x="0" 
 />
    <glyph glyph-name="nonmarkingreturn" horiz-adv-x="682" 
 />
    <glyph glyph-name="space" unicode=" " horiz-adv-x="512" 
 />
    <glyph glyph-name="exclam" unicode="!" horiz-adv-x="598" 
d="M223 430l-61 578v452h272v-452l-59 -578h-152zM164 0v305h268v-305h-268z" />
    <glyph glyph-name="quotedbl" unicode="&#x22;" horiz-adv-x="886" 
d="M184 915l-39 306v239h230v-239l-39 -306h-152zM551 915l-39 306v239h229v-239l-39 -306h-151z" />
    <glyph glyph-name="numbersign" unicode="#" horiz-adv-x="1206" 
d="M190 -2l64 377h-229l28 160h226l73 419h-237l28 156h230l59 348h156l-56 -348h285l57 348h156l-59 -348h225l-22 -156h-226l-74 -419h230l-23 -160h-231l-64 -377h-155l61 377h-284l-62 -377h-156zM436 535h283l72 419h-285z" />
    <glyph glyph-name="dollar" unicode="$" 
d="M496 -137v209q-148 15 -260 100.5t-150 212.5l221 88q76 -190 277 -190q101 0 167 39t66 114q0 30 -12 54t-28 39t-44 28t-49 19.5t-53 15.5q-10 3 -15 4l-196 47q-136 35 -205.5 116t-69.5 222q0 152 97.5 249.5t253.5 121.5v215h194v-217q131 -21 223 -87.5t127 -181.5
l-213 -84q-69 150 -252 150q-78 0 -133 -41.5t-55 -114.5q0 -55 43 -84t129 -53l180 -47q56 -15 100 -32.5t86.5 -46.5t70.5 -65.5t45.5 -90t17.5 -119.5q0 -147 -102 -248.5t-267 -128.5v-213h-194z" />
    <glyph glyph-name="percent" unicode="%" horiz-adv-x="1619" 
d="M387 686q-125 0 -209 63t-84 191v285q0 88 42.5 148.5t106.5 86t144 25.5q59 0 111 -15t94.5 -45t67 -82t24.5 -120v-285q0 -122 -88 -187t-209 -65zM387 829q60 0 89.5 30.5t29.5 78.5v299q0 48 -29.5 78.5t-87.5 30.5q-59 0 -88 -30t-29 -79v-299q0 -109 115 -109z
M1227 -23q-80 0 -144 25t-106.5 84t-42.5 145v287q0 88 42.5 148t106.5 85t144 25q60 0 112 -14.5t95 -44.5t67.5 -81.5t24.5 -119.5v-285q0 -84 -45 -143t-111 -85t-143 -26zM1227 121q60 0 89.5 30.5t29.5 79.5v297q0 48 -29.5 78.5t-87.5 30.5q-59 0 -88 -29.5t-29 -79.5
v-299q0 -108 115 -108zM242 0l989 1468h166l-987 -1468h-168z" />
    <glyph glyph-name="ampersand" unicode="&#x26;" horiz-adv-x="1595" 
d="M588 -31q-217 0 -346 112.5t-129 297.5q0 139 88.5 256.5t257.5 179.5q-156 164 -156 303q0 58 16 110t51.5 100t89 83t133.5 55.5t179 20.5q192 0 306 -97t114 -237q0 -73 -28.5 -138.5t-77 -114t-106 -84t-122.5 -56.5l246 -266q50 114 76 206l215 -24
q-41 -194 -131 -350l301 -326h-353l-139 150q-197 -181 -485 -181zM645 184q76 0 152.5 30t132.5 89l-346 377q-101 -39 -155 -115.5t-54 -158.5q0 -105 73 -163.5t197 -58.5zM735 897q211 66 211 252q0 74 -47.5 115t-118.5 41q-97 0 -147.5 -47t-50.5 -121q0 -60 98 -176z
" />
    <glyph glyph-name="quotesingle" unicode="'" horiz-adv-x="520" 
d="M184 915l-39 306v239h230v-239l-39 -306h-152z" />
    <glyph glyph-name="parenleft" unicode="(" horiz-adv-x="657" 
d="M457 -369q-91 101 -158 278t-96 346t-29 308q0 105 15 220t46.5 239t88 244.5t131.5 212.5l137 -4q-116 -241 -161.5 -443t-45.5 -469q0 -492 207 -928z" />
    <glyph glyph-name="parenright" unicode=")" horiz-adv-x="657" 
d="M201 -369l-135 4q206 434 206 928q0 268 -45 469.5t-161 442.5l137 4q75 -92 131.5 -212.5t87.5 -244.5t46 -239t15 -220q0 -140 -29 -308.5t-95.5 -345.5t-157.5 -278z" />
    <glyph glyph-name="asterisk" unicode="*" horiz-adv-x="894" 
d="M279 776l-121 80l157 229l-241 136l73 118l228 -122v243h145v-243l228 122l73 -118l-243 -136l163 -229l-125 -80l-167 242z" />
    <glyph glyph-name="plus" unicode="+" 
d="M487 125v440h-438v168h438v443h172v-443h439v-168h-439v-440h-172z" />
    <glyph glyph-name="comma" unicode="," horiz-adv-x="532" 
d="M160 -285l61 289h-88v299h268v-289l-108 -299h-133z" />
    <glyph glyph-name="hyphen" unicode="-" horiz-adv-x="743" 
d="M76 502v213h592v-213h-592z" />
    <glyph glyph-name="period" unicode="." horiz-adv-x="532" 
d="M133 0v305h268v-305h-268z" />
    <glyph glyph-name="slash" unicode="/" horiz-adv-x="714" 
d="M-61 -365l555 1835h192l-551 -1835h-196z" />
    <glyph glyph-name="zero" unicode="0" horiz-adv-x="1220" 
d="M612 -25q-100 0 -188.5 25.5t-162 76t-116.5 137t-43 198.5v624q0 110 42.5 197.5t115 141.5t163 82t191.5 28t190.5 -27.5t160.5 -81.5t112 -142t41 -200v-616q0 -106 -43 -192t-114.5 -140t-161 -82.5t-187.5 -28.5zM612 190q110 0 172 68t62 166v620q0 98 -61 162
t-171 64q-111 0 -174 -66t-63 -168v-614q0 -99 61.5 -165.5t173.5 -66.5z" />
    <glyph glyph-name="one" unicode="1" horiz-adv-x="1056" 
d="M100 0v193h318v1034l-297 -31l-21 184l482 88h94v-1275h297v-193h-873z" />
    <glyph glyph-name="two" unicode="2" horiz-adv-x="1171" 
d="M150 0v172l487 573q66 77 99.5 151.5t33.5 160.5v41q0 79 -51.5 128.5t-151.5 49.5q-97 0 -151 -52t-54 -141v-39h-247v54q0 186 131 287.5t344 101.5q216 0 335 -112t119 -294q0 -44 -6 -86.5t-21 -84t-29 -75t-41 -74.5t-45.5 -68t-54 -68.5t-54 -63t-58.5 -65.5
t-57 -62l-189 -211v-4h566v-219h-905z" />
    <glyph glyph-name="three" unicode="3" horiz-adv-x="1187" 
d="M588 -25q-228 0 -348.5 101.5t-120.5 263.5v53h254v-39q0 -85 63 -127.5t164 -42.5q97 0 157 63.5t60 172.5q0 55 -17 96t-41.5 63t-58 35.5t-59 17t-51.5 3.5h-176v219h159q218 0 218 209q0 54 -18.5 95.5t-49.5 65t-65 35t-70 11.5q-103 0 -155 -51.5t-52 -141.5v-14
h-248v49q0 163 124 268t337 105q115 0 205 -32.5t143 -88t80 -122.5t27 -142q0 -120 -58.5 -212t-154.5 -124v-8q109 -32 184.5 -122.5t75.5 -221.5q0 -108 -42 -193t-114 -137.5t-162 -79.5t-190 -27z" />
    <glyph glyph-name="four" unicode="4" horiz-adv-x="1212" 
d="M700 0v369h-614v200l545 893h293l-562 -884h338v231l254 133v-364h174v-209h-174v-369h-254z" />
    <glyph glyph-name="five" unicode="5" horiz-adv-x="1171" 
d="M580 -25q-217 0 -341 97.5t-124 244.5v76h252v-37q0 -79 63 -123.5t158 -44.5q98 0 156.5 60.5t58.5 195.5v105q0 94 -64.5 144t-154.5 50q-125 0 -215 -94l-228 35l43 776h815v-237h-602l-16 -344q126 86 303 86q52 0 105 -13t104.5 -41.5t91 -69.5t64 -102.5
t24.5 -134.5v-158q0 -152 -67 -260t-176.5 -159.5t-249.5 -51.5z" />
    <glyph glyph-name="six" unicode="6" horiz-adv-x="1196" 
d="M594 -25q-209 0 -347 119t-138 314v636q0 133 68 235t181 154t252 52q214 0 338.5 -98.5t124.5 -268.5v-51h-254v29q0 86 -57.5 132t-155.5 46q-108 0 -165.5 -61.5t-57.5 -159.5v-248q60 63 148.5 100t185.5 37q168 0 271.5 -88.5t103.5 -237.5v-237q0 -128 -67.5 -221
t-179 -138t-251.5 -45zM606 186q108 0 165.5 55.5t57.5 139.5v174q0 49 -19.5 85t-52 55t-68 27.5t-75.5 8.5q-86 0 -158.5 -64t-72.5 -171v-93q0 -92 58 -154.5t165 -62.5z" />
    <glyph glyph-name="seven" unicode="7" horiz-adv-x="1150" 
d="M240 0q4 177 53.5 364.5t127 346t162.5 288.5t173 224h-654v237h963v-200q-47 -53 -80.5 -92t-93.5 -119t-103 -152t-94.5 -178.5t-84.5 -211t-56 -237.5t-25 -270h-288z" />
    <glyph glyph-name="eight" unicode="8" horiz-adv-x="1183" 
d="M588 -25q-146 0 -254.5 41t-172 128t-63.5 214v91q0 97 52.5 176t136.5 118q-78 32 -124 107t-46 166v74q0 94 39 170.5t105 125t150.5 74t178.5 25.5q93 0 176.5 -22t150.5 -65.5t106.5 -115.5t39.5 -164q4 -129 0 -135q0 -77 -50 -142t-124 -96q85 -29 140.5 -111
t55.5 -179v-88q0 -182 -140.5 -287t-356.5 -105zM588 178q100 0 163.5 51.5t63.5 147.5v74q0 97 -64.5 140.5t-158.5 43.5q-45 0 -84 -9.5t-71.5 -30t-51 -56t-18.5 -82.5v-82q0 -89 64 -143t157 -54zM594 842q89 0 153 50t64 136v78q0 91 -64 133.5t-159 42.5
q-88 0 -150.5 -47.5t-62.5 -132.5v-76q0 -92 63 -138t156 -46z" />
    <glyph glyph-name="nine" unicode="9" horiz-adv-x="1187" 
d="M573 -25q-212 0 -334 97.5t-122 267.5v53h254v-31q0 -85 58 -131.5t155 -46.5q108 0 165.5 62.5t57.5 161.5v245q-47 -72 -138.5 -109.5t-195.5 -37.5q-166 0 -270.5 94t-104.5 244v237q0 128 67.5 221t179 138t251.5 45q209 0 347 -118.5t138 -311.5v-643
q0 -133 -70.5 -234t-185 -152t-252.5 -51zM571 721q87 0 161.5 65.5t74.5 171.5v99q0 93 -58 157t-165 64q-108 0 -166 -55.5t-58 -139.5v-176q0 -93 63.5 -139.5t147.5 -46.5z" />
    <glyph glyph-name="colon" unicode=":" horiz-adv-x="532" 
d="M133 0v305h268v-305h-268zM133 768v305h268v-305h-268z" />
    <glyph glyph-name="semicolon" unicode=";" horiz-adv-x="532" 
d="M160 -285l61 289h-88v299h268v-289l-108 -299h-133zM133 768v305h268v-305h-268z" />
    <glyph glyph-name="less" unicode="&#x3c;" 
d="M973 154l-877 432v137l875 430l78 -154l-705 -344l707 -348z" />
    <glyph glyph-name="equal" unicode="=" 
d="M49 346v168h1049v-168h-1049zM49 776v168h1049v-168h-1049z" />
    <glyph glyph-name="greater" unicode="&#x3e;" 
d="M174 154l-78 153l707 348l-705 344l78 154l875 -430v-137z" />
    <glyph glyph-name="question" unicode="?" horiz-adv-x="1099" 
d="M410 412v96q0 78 26 132t84 112q21 21 73.5 66.5t82 74t56 78t26.5 100.5q0 86 -55.5 144.5t-143.5 58.5q-38 0 -75 -9.5t-70 -29t-53.5 -54.5t-20.5 -81v-84l-231 -2v90q0 94 39 168t105 118.5t148 67.5t174 23q203 0 319 -106t116 -290q0 -114 -48.5 -192.5
t-132.5 -147.5q-17 -15 -49 -39.5t-52.5 -42.5t-43 -42.5t-34 -53t-11.5 -61.5v-94h-229zM387 0v305h268v-305h-268z" />
    <glyph glyph-name="at" unicode="@" horiz-adv-x="1968" 
d="M1036 -309q-87 0 -199 15t-178 40q-118 44 -214.5 112.5t-172 164.5t-117 227.5t-40.5 286.5q1 183 52.5 336.5t141 262t211 184.5t261.5 112t292 36q118 0 231.5 -28t213 -84.5t175 -135t119 -188t43.5 -235.5q0 -146 -36.5 -264t-96 -194t-140.5 -126.5t-165 -72
t-174 -21.5h-158l19 102h-6q-44 -51 -125.5 -88t-147.5 -37q-131 0 -213 75t-82 208q0 39 9 80l36 225q30 170 138 271.5t272 101.5q70 0 137 -28.5t97 -84.5h8l20 98h201l-131 -780q71 5 133 38t113.5 95.5t81.5 167t30 240.5q0 99 -37 184t-98.5 145t-141.5 103t-167 63.5
t-174 20.5q-121 0 -232.5 -28.5t-210 -89.5t-171 -149.5t-114.5 -217t-42 -283.5q0 -257 136 -435t351 -241q122 -35 293 -35q215 0 461 70l37 -131q-212 -88 -529 -88zM915 281q86 0 148.5 49.5t77.5 136.5l37 227q4 24 4 31q0 73 -55 112.5t-128 39.5q-85 0 -140.5 -49.5
t-70.5 -135.5l-38 -231q-5 -25 -5 -35q0 -71 48.5 -108t121.5 -37z" />
    <glyph glyph-name="A" unicode="A" horiz-adv-x="1376" 
d="M23 0l542 1462h250l539 -1462h-289l-107 311h-557l-110 -311h-268zM477 545h404l-199 585h-4z" />
    <glyph glyph-name="B" unicode="B" horiz-adv-x="1355" 
d="M147 0v1460h627q216 0 333.5 -95.5t117.5 -281.5q0 -212 -207 -309v-2q122 -33 187 -128.5t65 -223.5q0 -100 -38 -181t-102 -132.5t-146.5 -79t-174.5 -27.5h-662zM420 231h342q110 0 173.5 53.5t63.5 151.5q0 195 -235 195h-344v-400zM420 860h321q103 0 160 50t57 139
q0 92 -61 136t-168 44h-309v-369z" />
    <glyph glyph-name="C" unicode="C" horiz-adv-x="1351" 
d="M705 -25q-120 0 -226.5 33.5t-189 95.5t-130.5 159t-48 216v467q0 168 80 292t210.5 185.5t292.5 61.5q107 0 205 -30t177.5 -87.5t127 -151.5t47.5 -212v-46h-258v21q0 55 -18.5 100t-48.5 75t-69.5 50.5t-80.5 29.5t-82 9q-56 0 -108.5 -15.5t-99.5 -46.5t-76 -88
t-29 -132v-467q0 -127 94.5 -202t229.5 -75q52 0 101.5 15t92 45t68.5 83t26 121v21h258v-45q0 -95 -30 -175t-82 -136t-121.5 -95t-148.5 -57.5t-164 -18.5z" />
    <glyph glyph-name="D" unicode="D" horiz-adv-x="1402" 
d="M147 0v1460h570q159 0 289 -64t208 -186.5t78 -281.5v-389q0 -101 -32 -188.5t-87 -151t-127.5 -109t-156 -68t-170.5 -22.5h-572zM420 240h289q56 0 108.5 15.5t99.5 46.5t76 88t29 132v422q0 127 -94.5 202t-229.5 75h-278v-981z" />
    <glyph glyph-name="E" unicode="E" horiz-adv-x="1280" 
d="M147 0v1460h1014v-239h-741v-357h657v-239h-657v-385h749v-240h-1022z" />
    <glyph glyph-name="F" unicode="F" horiz-adv-x="1193" 
d="M147 0v1460h981v-239h-706v-369h606v-238h-606v-614h-275z" />
    <glyph glyph-name="G" unicode="G" horiz-adv-x="1361" 
d="M705 -25q-120 0 -226.5 33.5t-189 95.5t-130.5 159t-48 216v467q0 168 80 292t210.5 185.5t292.5 61.5q86 0 165.5 -16.5t151 -53t124.5 -89.5t84.5 -131t31.5 -173v-45h-258v20q0 68 -27.5 118t-73 76.5t-95 39t-103.5 12.5q-56 0 -108.5 -15.5t-99.5 -46.5t-76 -88
t-29 -132v-467q0 -127 94.5 -202t229.5 -75q126 0 207 65t81 199v35h-377v246h635v-305q0 -95 -30 -175t-82 -136t-121.5 -95t-148.5 -57.5t-164 -18.5z" />
    <glyph glyph-name="H" unicode="H" horiz-adv-x="1423" 
d="M147 0v1460h273v-596h584v596h272v-1460h-272v625h-584v-625h-273z" />
    <glyph glyph-name="I" unicode="I" horiz-adv-x="567" 
d="M147 0v1460h273v-1460h-273z" />
    <glyph glyph-name="J" unicode="J" horiz-adv-x="1228" 
d="M594 -23q-239 0 -371.5 117.5t-132.5 358.5v94h272v-72q0 -50 9 -89.5t33.5 -79t76 -61.5t127.5 -22q101 0 157 79t56 198v960h273v-1003q0 -91 -35 -176.5t-97 -153.5t-158.5 -109t-209.5 -41z" />
    <glyph glyph-name="K" unicode="K" horiz-adv-x="1404" 
d="M147 0v1460h273v-678l588 678h331l-520 -575l572 -885h-318l-434 686l-219 -227v-459h-273z" />
    <glyph glyph-name="L" unicode="L" horiz-adv-x="1183" 
d="M147 0v1460h273v-1220h710v-240h-983z" />
    <glyph glyph-name="M" unicode="M" horiz-adv-x="1705" 
d="M147 0v1460h332l377 -913h4l367 913h332v-1460h-263v973h-4l-331 -805h-216l-331 801h-4v-969h-263z" />
    <glyph glyph-name="N" unicode="N" horiz-adv-x="1460" 
d="M147 0v1460h265l635 -995h4v995h262v-1460h-266l-633 997h-4v-997h-263z" />
    <glyph glyph-name="O" unicode="O" horiz-adv-x="1398" 
d="M705 -25q-120 0 -226.5 33.5t-189 95.5t-130.5 159t-48 216v467q0 101 33 188.5t89 151t130.5 109t159 68t171.5 22.5q119 0 226.5 -38t189 -105.5t130 -169t48.5 -220.5v-438q0 -101 -33 -188.5t-89 -151t-130.5 -109t-159 -68t-171.5 -22.5zM705 217q55 0 108 15.5
t100 47t76 88.5t29 132v467q0 127 -94.5 201.5t-229.5 74.5q-56 0 -108.5 -15.5t-99.5 -46.5t-76 -88t-29 -132v-467q0 -127 94.5 -202t229.5 -75z" />
    <glyph glyph-name="P" unicode="P" horiz-adv-x="1290" 
d="M147 0v1460h594q143 0 254 -51.5t176.5 -156.5t65.5 -251q0 -86 -29.5 -165.5t-86 -145t-151 -104.5t-214.5 -39h-336v-547h-273zM420 776h289q122 0 192 58.5t70 169.5q0 227 -266 227h-285v-455z" />
    <glyph glyph-name="Q" unicode="Q" horiz-adv-x="1398" 
d="M1135 -219l-301 209q-81 -15 -129 -15q-120 0 -226.5 33.5t-189 95.5t-130.5 159t-48 216v467q0 101 33 188.5t89 151t130.5 109t159 68t171.5 22.5q119 0 226.5 -38t189 -105.5t130 -169t48.5 -220.5v-438q0 -129 -52 -233.5t-142 -174.5l223 -129zM705 217
q55 0 108 15.5t100 47t76 88.5t29 132v467q0 127 -94.5 201.5t-229.5 74.5q-56 0 -108.5 -15.5t-99.5 -46.5t-76 -88t-29 -132v-467q0 -127 94.5 -202t229.5 -75z" />
    <glyph glyph-name="R" unicode="R" horiz-adv-x="1333" 
d="M147 0v1460h578q139 0 250 -51.5t178.5 -157t67.5 -250.5q0 -139 -74 -256t-215 -167l362 -578h-297l-342 547h-235v-547h-273zM420 776h272q122 0 192 58.5t70 169.5q0 227 -266 227h-268v-455z" />
    <glyph glyph-name="S" unicode="S" horiz-adv-x="1282" 
d="M635 -23q-138 0 -255 37.5t-207.5 120.5t-127.5 203l246 96q41 -105 134.5 -163t217.5 -58q121 0 204 49t83 144q0 76 -52.5 119t-148.5 71l-246 59q-63 16 -111.5 35t-95 51t-77 73t-48.5 101.5t-18 135.5q0 133 72 233t189.5 150.5t260.5 50.5q191 0 318.5 -70
t195.5 -229l-223 -99q-86 168 -313 168q-98 0 -166 -46t-68 -138q0 -70 56.5 -111.5t156.5 -68.5l250 -62q334 -79 334 -405q0 -199 -158.5 -323t-402.5 -124z" />
    <glyph glyph-name="T" unicode="T" horiz-adv-x="1220" 
d="M475 0v1227h-420v233h1110v-233h-420v-1227h-270z" />
    <glyph glyph-name="U" unicode="U" horiz-adv-x="1417" 
d="M709 -23q-262 0 -417 135.5t-155 391.5v956h273v-923q0 -143 73.5 -228.5t225.5 -85.5q299 0 299 314v923h272v-936q0 -257 -156 -402t-415 -145z" />
    <glyph glyph-name="V" unicode="V" horiz-adv-x="1228" 
d="M479 -6l-479 1466h295l330 -1075h4l329 1075h271l-484 -1466h-266z" />
    <glyph glyph-name="W" unicode="W" horiz-adv-x="1839" 
d="M401 -6l-376 1466h278l229 -1022h5l268 1022h231l267 -1028h4l233 1028h275l-379 -1466h-252l-262 1030h-4l-263 -1030h-254z" />
    <glyph glyph-name="X" unicode="X" horiz-adv-x="1232" 
d="M-16 0l479 758l-445 702h312l288 -485l295 485h301l-444 -704l479 -756h-317l-320 524l-321 -524h-307z" />
    <glyph glyph-name="Y" unicode="Y" horiz-adv-x="1245" 
d="M489 0v586l-489 874h305l326 -612l323 612h291l-491 -878v-582h-265z" />
    <glyph glyph-name="Z" unicode="Z" horiz-adv-x="1222" 
d="M70 0v219l714 1008h-678v233h1029v-209l-717 -1011h735v-240h-1083z" />
    <glyph glyph-name="bracketleft" unicode="[" horiz-adv-x="675" 
d="M158 -377v1837h452v-153h-237v-1530h237v-154h-452z" />
    <glyph glyph-name="backslash" unicode="\" horiz-adv-x="714" 
d="M567 -365l-551 1835h193l549 -1835h-191z" />
    <glyph glyph-name="bracketright" unicode="]" horiz-adv-x="675" 
d="M66 -377v154h237v1530h-237v153h452v-1837h-452z" />
    <glyph glyph-name="asciicircum" unicode="^" 
d="M190 254l259 1003h262l243 -1003h-213l-166 801l-178 -801h-207z" />
    <glyph glyph-name="underscore" unicode="_" horiz-adv-x="1024" 
d="M0 -283v162h1024v-162h-1024z" />
    <glyph glyph-name="grave" unicode="`" horiz-adv-x="704" 
d="M397 1214l-264 357h285l174 -357h-195z" />
    <glyph glyph-name="a" unicode="a" horiz-adv-x="1107" 
d="M432 -20q-165 0 -264.5 85t-99.5 232q0 98 55 173t142 113t190 38h278v96q0 157 -201 157q-84 0 -136 -27t-52 -77v-37h-225v29q0 66 24.5 119.5t65 88t95 57.5t112 32.5t119.5 9.5q73 0 136.5 -10t122 -34t99.5 -61.5t65.5 -96t24.5 -132.5v-510q0 -50 5 -130t13 -95
h-247q-2 7 -4 27t-4 42t-3 27h-4q-66 -69 -133 -92.5t-174 -23.5zM500 176q58 0 101 11.5t68 30t39.5 47t19.5 57t5 65.5v51h-246q-176 0 -176 -129q0 -65 50 -99t139 -34z" />
    <glyph glyph-name="b" unicode="b" horiz-adv-x="1175" 
d="M647 -25q-83 0 -153 36.5t-113 92.5h-6v-104h-240v1460h250v-532h2q55 73 132.5 107t156.5 34q179 0 296.5 -110t117.5 -304v-254q0 -104 -36 -186.5t-98 -134t-141 -78.5t-168 -27zM616 186q89 0 154.5 51t65.5 156v260q0 93 -64 147t-164 54q-87 0 -155 -58.5
t-68 -164.5v-242q0 -93 65.5 -148t165.5 -55z" />
    <glyph glyph-name="c" unicode="c" horiz-adv-x="1077" 
d="M575 -25q-98 0 -185.5 28t-155.5 80.5t-108 135.5t-40 184v205q0 108 38.5 196t104.5 145t153 87.5t185 30.5q87 0 167.5 -26t146.5 -75t105.5 -129.5t39.5 -181.5v-20h-244v20q0 99 -64.5 150t-150.5 51q-91 0 -156 -53t-65 -162v-246q0 -98 63.5 -154.5t165.5 -56.5
q85 0 146 50.5t61 150.5v10h244v-10q0 -101 -38 -181t-102.5 -129t-144 -74.5t-166.5 -25.5z" />
    <glyph glyph-name="d" unicode="d" horiz-adv-x="1175" 
d="M500 -25q-179 0 -296.5 110t-117.5 304v254q0 104 34.5 186.5t94.5 134t137 78.5t166 27q83 0 153 -36.5t113 -92.5h7v520h249v-1460h-243v117h-2q-43 -59 -132 -100.5t-163 -41.5zM567 190q41 0 79 11.5t71.5 34.5t53.5 65t20 96v258q0 93 -66 148t-166 55
q-89 0 -154 -51t-65 -156v-260q0 -93 64 -147t163 -54z" />
    <glyph glyph-name="e" unicode="e" horiz-adv-x="1110" 
d="M575 -25q-98 0 -185.5 27t-155.5 78.5t-108 135t-40 187.5v205q0 108 38.5 196t104.5 145t153 87.5t185 30.5q87 0 167 -26t144.5 -75t103 -129.5t38.5 -181.5v-202h-674v-58q0 -97 69.5 -154t172.5 -57q62 0 123.5 37t103.5 98l193 -110q-59 -118 -173.5 -176
t-259.5 -58zM346 627h424v28q0 100 -59 150.5t-144 50.5q-91 0 -156 -53t-65 -162v-14z" />
    <glyph glyph-name="f" unicode="f" horiz-adv-x="647" 
d="M184 0v854h-149v195h149v135q0 151 76.5 229t226.5 78q60 0 125 -10v-215q-53 6 -94 6q-86 0 -86 -80v-143h180v-195h-180v-854h-248z" />
    <glyph glyph-name="g" unicode="g" horiz-adv-x="1157" 
d="M528 -403q-89 0 -174 26.5t-156 85.5t-96 141l238 84q70 -137 211 -137q112 0 173.5 66t61.5 178v111h-4q-102 -138 -280 -138q-194 0 -305 107t-111 305v201q0 207 116 324.5t296 117.5q89 0 167 -41t121 -104h5v125h237v-961q0 -76 -17 -145t-55.5 -133t-95 -110.5
t-142 -74.5t-190.5 -28zM567 213q89 0 154 51t65 156v233q0 93 -64 147t-163 54q-89 0 -154 -51t-65 -156v-231q0 -93 64 -148t163 -55z" />
    <glyph glyph-name="h" unicode="h" horiz-adv-x="1169" 
d="M135 0v1460h250v-540h6q51 73 127.5 111t161.5 38q176 0 271.5 -104.5t95.5 -292.5v-672h-250v608q0 118 -50 180t-145 62q-105 0 -161 -65.5t-56 -196.5v-588h-250z" />
    <glyph glyph-name="i" unicode="i" horiz-adv-x="520" 
d="M135 0v1049h250v-1049h-250zM135 1208v267h250v-267h-250z" />
    <glyph glyph-name="j" unicode="j" horiz-adv-x="548" 
d="M61 -395q-34 0 -88 6v213q46 -4 72 -4q105 0 105 104v1125h249v-1139q0 -305 -338 -305zM152 1208v267h249v-267h-249z" />
    <glyph glyph-name="k" unicode="k" horiz-adv-x="1118" 
d="M137 0v1460h250l2 -844l383 433h297l-375 -396l391 -653h-280l-281 479l-137 -147v-332h-250z" />
    <glyph glyph-name="l" unicode="l" horiz-adv-x="630" 
d="M389 -14q-51 0 -92 12t-67 29.5t-45 45.5t-28.5 52t-14.5 57t-6 52.5t-1 46.5v1179h250v-1177q0 -86 90 -86q25 0 115 8v-191q-106 -28 -201 -28z" />
    <glyph glyph-name="m" unicode="m" horiz-adv-x="1800" 
d="M133 0v1049h242v-127h4q110 147 297 147q196 0 299 -156h2q123 156 323 156q75 0 140 -22t116.5 -66t81 -116t29.5 -165v-700h-250v610q0 240 -190 240q-101 0 -151 -68t-50 -178v-604h-250v606q0 53 -8.5 94.5t-29 76.5t-59 54t-93.5 19q-35 0 -69 -12.5t-65 -38.5
t-50 -73.5t-19 -109.5v-616h-250z" />
    <glyph glyph-name="n" unicode="n" horiz-adv-x="1169" 
d="M135 0v1049h244v-129h4q51 73 129 111t168 38q176 0 271.5 -104.5t95.5 -292.5v-672h-250v608q0 118 -50 180t-145 62q-105 0 -161 -65.5t-56 -196.5v-588h-250z" />
    <glyph glyph-name="o" unicode="o" horiz-adv-x="1126" 
d="M567 -25q-130 0 -237.5 46t-175.5 141.5t-68 224.5v240q0 83 27 155t73 123.5t106.5 88.5t128.5 55t138 18q128 0 237 -52t176.5 -153t67.5 -231v-215q0 -103 -41 -188.5t-109 -139.5t-151.5 -83.5t-171.5 -29.5zM567 186q89 0 154 51t65 156v260q0 93 -64 147t-163 54
q-89 0 -154 -51t-65 -156v-258q0 -93 64 -148t163 -55z" />
    <glyph glyph-name="p" unicode="p" horiz-adv-x="1175" 
d="M135 -395v1444h244v-121h2q58 70 138.5 105.5t156.5 35.5q179 0 296.5 -110t117.5 -304v-254q0 -104 -34.5 -186.5t-94.5 -134t-137.5 -78.5t-166.5 -27q-83 0 -153 36.5t-113 92.5h-6v-499h-250zM616 186q89 0 154.5 51t65.5 156v260q0 93 -64 147t-164 54
q-87 0 -155 -57.5t-68 -163.5v-244q0 -93 65.5 -148t165.5 -55z" />
    <glyph glyph-name="q" unicode="q" horiz-adv-x="1175" 
d="M797 -395v512h-2q-43 -59 -132 -100.5t-163 -41.5q-179 0 -296.5 110t-117.5 304v254q0 104 34.5 186.5t94.5 134t137 78.5t166 27q83 0 153 -36.5t113 -92.5h7v111h249v-1446h-243zM567 190q41 0 79 11.5t71.5 34.5t53.5 65t20 96v258q0 93 -66 148t-166 55
q-89 0 -154 -51t-65 -156v-260q0 -93 64 -147t163 -54z" />
    <glyph glyph-name="r" unicode="r" horiz-adv-x="833" 
d="M123 0v1049h244v-175h4q45 82 146 138.5t196 56.5q57 0 84 -6v-229q-33 6 -95 6q-145 0 -237 -80.5t-92 -222.5v-537h-250z" />
    <glyph glyph-name="s" unicode="s" horiz-adv-x="1069" 
d="M535 -23q-332 0 -469 203l176 133q50 -65 125 -101t163 -36q86 0 146.5 32t60.5 97q0 58 -41 81.5t-155 43.5l-138 25q-286 52 -286 272q0 158 120 251t295 93q146 0 247 -40.5t165 -131.5l-180 -123q-87 103 -234 103q-77 0 -123.5 -29.5t-46.5 -87.5q0 -25 11.5 -42
t43 -28.5t51.5 -16.5t72 -14q14 -3 21 -4l158 -30q135 -27 207.5 -101.5t72.5 -191.5q0 -70 -27.5 -129.5t-73 -101t-106 -70.5t-125 -42.5t-130.5 -13.5z" />
    <glyph glyph-name="t" unicode="t" horiz-adv-x="679" 
d="M463 -16q-130 0 -211.5 65.5t-81.5 198.5v602h-141v199h141v317h250v-317h227v-199h-227v-543q0 -55 25.5 -77.5t72.5 -22.5q68 0 129 10v-213q-79 -20 -184 -20z" />
    <glyph glyph-name="u" unicode="u" horiz-adv-x="1157" 
d="M492 -20q-176 0 -272.5 106t-96.5 293v670h250v-609q0 -118 50 -179.5t146 -61.5q104 0 159.5 66t55.5 198v586h250v-1049h-241v129h-7q-51 -74 -127.5 -111.5t-166.5 -37.5z" />
    <glyph glyph-name="v" unicode="v" horiz-adv-x="1013" 
d="M385 -4l-373 1053h271l233 -730h4l234 730h247l-368 -1053h-248z" />
    <glyph glyph-name="w" unicode="w" horiz-adv-x="1581" 
d="M346 -4l-334 1053h264l197 -727h4l207 727h217l207 -725h4l197 725h260l-332 -1053h-242l-202 723h-5l-198 -723h-244z" />
    <glyph glyph-name="x" unicode="x" horiz-adv-x="1071" 
d="M25 0l368 545l-344 504h291l197 -306l194 306h287l-344 -502l373 -547h-291l-221 340l-222 -340h-288z" />
    <glyph glyph-name="y" unicode="y" horiz-adv-x="1038" 
d="M240 -401q-61 0 -125 12v211q75 -10 118 -10q45 0 76 24.5t45 63.5l45 125l-387 1024h273l245 -717h5l235 717h256l-444 -1223q-81 -227 -342 -227z" />
    <glyph glyph-name="z" unicode="z" horiz-adv-x="987" 
d="M57 0v193l535 655h-500v201h819v-193l-536 -647h555v-209h-873z" />
    <glyph glyph-name="braceleft" unicode="{" horiz-adv-x="675" 
d="M375 -377q-102 0 -159.5 66.5t-57.5 195.5v512q0 77 -18 106.5t-74 35.5v170q64 11 78 30.5t14 77.5v381q0 129 57.5 195.5t159.5 66.5h235v-153h-192q-45 0 -45 -47v-390q0 -101 -28.5 -156.5t-98.5 -82.5v-13q78 -32 102.5 -79t24.5 -156v-559q0 -47 45 -47h192v-154
h-235z" />
    <glyph glyph-name="bar" unicode="|" horiz-adv-x="667" 
d="M233 -109v1594h201v-1594h-201z" />
    <glyph glyph-name="braceright" unicode="}" horiz-adv-x="675" 
d="M66 -377v154h192q45 0 45 47v559q0 109 24.5 156t102.5 79v13q-70 27 -98.5 82.5t-28.5 156.5v390q0 47 -45 47h-192v153h235q102 0 159.5 -66.5t57.5 -195.5v-381q0 -58 14 -77.5t78 -30.5v-170q-56 -6 -74 -35.5t-18 -106.5v-512q0 -129 -57.5 -195.5t-159.5 -66.5
h-235z" />
    <glyph glyph-name="asciitilde" unicode="~" 
d="M174 498l-141 28q52 256 227 256q57 0 318.5 -30.5t316.5 -30.5q16 0 27 4t19.5 14.5t12.5 18t11 25.5t10 26l137 -27q-45 -258 -215 -258q-57 0 -321.5 30t-319.5 30q-26 0 -41 -15.5t-41 -70.5z" />
    <glyph glyph-name="uni00A0" unicode="&#xa0;" horiz-adv-x="512" 
 />
    <glyph glyph-name="exclamdown" unicode="&#xa1;" horiz-adv-x="598" 
d="M162 -334v453l61 577h152l59 -577v-453h-272zM164 823v303h268v-303h-268z" />
    <glyph glyph-name="cent" unicode="&#xa2;" horiz-adv-x="1126" 
d="M489 -119v189q-157 25 -255.5 119t-98.5 251v326q0 166 98.5 267t255.5 126v197h211v-201q138 -25 227 -112t89 -234v-57h-238v39q0 56 -30 95.5t-72 55.5t-90 16q-52 0 -96.5 -17t-76.5 -59.5t-32 -105.5v-325q0 -81 60.5 -130t152.5 -49q75 0 129.5 42.5t54.5 125.5v41
h238v-57q0 -78 -25 -141t-69.5 -104.5t-100 -68t-121.5 -38.5v-191h-211z" />
    <glyph glyph-name="sterling" unicode="&#xa3;" horiz-adv-x="1226" 
d="M102 0v211h166v434h-139v162h139v266q0 89 26 160.5t68.5 117.5t101.5 77t121 44t130 13q179 0 294 -102.5t115 -282.5v-68h-254v70q0 73 -50.5 122.5t-129.5 49.5q-72 0 -120 -48t-48 -124v-295h400v-162h-400v-434h637l-49 -211h-1008z" />
    <glyph glyph-name="currency" unicode="&#xa4;" horiz-adv-x="1181" 
d="M219 252l-98 100l127 131q-72 109 -72 236q0 124 70 231l-125 131l98 99l127 -123q113 82 248 82t244 -82l123 123l100 -99l-123 -127q74 -107 74 -235q0 -130 -76 -240l125 -127l-100 -100l-127 125q-110 -76 -240 -76q-133 0 -244 78zM594 440q125 0 191.5 81t66.5 198
t-69 199.5t-189 82.5q-125 0 -191.5 -81.5t-66.5 -200.5q0 -115 69.5 -197t188.5 -82z" />
    <glyph glyph-name="yen" unicode="&#xa5;" horiz-adv-x="1245" 
d="M489 0v524h-409v174h397l-477 762h299l326 -545l323 545h297l-477 -762h397v-174h-411v-524h-265z" />
    <glyph glyph-name="brokenbar" unicode="&#xa6;" horiz-adv-x="874" 
d="M362 -96v729h150v-729h-150zM362 784v676h150v-676h-150z" />
    <glyph glyph-name="section" unicode="&#xa7;" horiz-adv-x="1130" 
d="M549 -182q-60 0 -116.5 9.5t-112.5 32.5t-97 58t-66.5 91.5t-25.5 127.5v84h213v-49q0 -76 56.5 -120t162.5 -44q103 0 162 43t59 105q0 59 -39 89.5t-110 47.5l-203 57q-278 84 -278 305q0 167 135 254q-70 43 -103.5 99.5t-33.5 140.5q0 151 110.5 242.5t308.5 91.5
q190 0 301 -84.5t111 -239.5v-76h-207v66q0 62 -57 102.5t-158 40.5q-86 0 -138 -34t-52 -97q0 -22 12.5 -40.5t37 -32t44 -21.5t49.5 -18l217 -76q48 -18 80 -32.5t71 -40.5t62 -54t39 -70.5t16 -93.5q0 -173 -129 -258q71 -41 102.5 -98.5t31.5 -143.5q0 -157 -122 -260.5
t-333 -103.5zM670 516q56 19 84 54.5t28 74.5q0 41 -30 66.5t-88 44.5l-175 53q-116 -38 -116 -141q0 -66 153 -111z" />
    <glyph glyph-name="dieresis" unicode="&#xa8;" horiz-adv-x="1036" 
d="M190 1208v269h244v-269h-244zM600 1208v269h244v-269h-244z" />
    <glyph glyph-name="copyright" unicode="&#xa9;" horiz-adv-x="1878" 
d="M940 164q-86 0 -160 22.5t-133 67t-93 118.5t-34 169v325q0 181 120 285t302 104q83 0 156.5 -21t131.5 -62.5t92 -110t34 -156.5v-69h-226v47q0 176 -186 176q-89 0 -137.5 -52t-48.5 -141v-321q0 -89 48.5 -138t139.5 -49q86 0 136.5 45t50.5 123v56h223v-60
q0 -89 -34.5 -159t-93.5 -112.5t-132 -64.5t-156 -22zM936 -127q-153 0 -285.5 43t-230.5 120.5t-168.5 182t-105.5 230t-35 262.5q0 170 61 322.5t168 264.5t262 178t334 66q149 0 281 -42.5t231.5 -119t172 -179.5t109.5 -228.5t37 -261.5q0 -171 -60.5 -324t-167 -266.5
t-263.5 -180.5t-340 -67zM936 -2q135 0 257.5 51t215.5 141.5t148 226t55 294.5t-54.5 294t-147.5 225t-215.5 140.5t-258.5 50.5q-139 0 -261 -49.5t-213 -139.5t-143.5 -225t-52.5 -296t54 -297t146 -226t213.5 -140t256.5 -50z" />
    <glyph glyph-name="ordfeminine" unicode="&#xaa;" horiz-adv-x="858" 
d="M350 741q-101 0 -170 52t-69 149q0 61 25.5 107t61.5 70t87.5 38.5t91 18.5t84.5 4h86v63q0 53 -30.5 83t-86.5 30q-53 0 -87 -26t-34 -70v-31h-166v35q0 108 86.5 165.5t216.5 57.5q120 0 202.5 -59.5t82.5 -178.5v-334q0 -59 10 -157h-176l-6 78q-39 -48 -97 -71.5
t-112 -23.5zM406 879q48 0 91.5 28.5t43.5 79.5v84h-80q-28 0 -47 -1.5t-43 -7t-38 -16.5t-24 -31t-10 -48q0 -42 28.5 -65t78.5 -23zM145 467v162h588v-162h-588z" />
    <glyph glyph-name="guillemotleft" unicode="&#xab;" horiz-adv-x="1193" 
d="M510 131l-428 414l428 418l123 -113l-250 -305l252 -305zM1001 131l-428 414l426 418l125 -113l-250 -305l252 -305z" />
    <glyph glyph-name="logicalnot" unicode="&#xac;" horiz-adv-x="1380" 
d="M1044 211v395h-925v168h1116v-563h-191z" />
    <glyph glyph-name="registered" unicode="&#xae;" horiz-adv-x="999" 
d="M324 844v473h208q73 0 123 -39.5t50 -108.5q0 -45 -24 -83t-67 -56l107 -186h-127l-94 170h-58v-170h-118zM498 633q-196 0 -314 126t-118 310q0 119 55 218.5t154.5 158.5t222.5 59q194 0 315 -126t121 -310q0 -181 -122.5 -308.5t-313.5 -127.5zM498 723
q135 0 232 95.5t97 250.5q0 159 -95 255.5t-234 96.5t-232.5 -96t-93.5 -256q0 -157 95.5 -251.5t230.5 -94.5zM442 1100h74q32 0 51 16.5t19 44.5q0 64 -70 64h-74v-125z" />
    <glyph glyph-name="macron" unicode="&#xaf;" horiz-adv-x="833" 
d="M133 1225v209h567v-209h-567z" />
    <glyph glyph-name="degree" unicode="&#xb0;" horiz-adv-x="708" 
d="M354 1036q-106 0 -173.5 67t-67.5 163q0 97 70 167t171 70q105 0 173.5 -67.5t68.5 -163.5q0 -99 -71 -167.5t-171 -68.5zM354 1149q48 0 82.5 34t34.5 83q0 51 -33 88t-84 37q-49 0 -80.5 -36t-31.5 -89q0 -49 32.5 -83t79.5 -34z" />
    <glyph glyph-name="plusminus" unicode="&#xb1;" 
d="M66 0v168h1015v-168h-1015zM487 293v440h-438v168h438v442h172v-442h439v-168h-439v-440h-172z" />
    <glyph glyph-name="twosuperior" unicode="&#xb2;" horiz-adv-x="714" 
d="M90 778v131l297 334q22 24 38.5 58.5t16.5 66.5v6q0 37 -22 60.5t-70 23.5q-44 0 -67 -27.5t-23 -70.5v-25h-184v41q0 112 80.5 174t210.5 62q131 0 201.5 -67t70.5 -175q0 -29 -5.5 -56.5t-21.5 -57.5t-26.5 -49t-38 -51.5t-36.5 -43.5t-43 -46t-38 -40l-78 -84v-4h293
v-160h-555z" />
    <glyph glyph-name="threesuperior" unicode="&#xb3;" horiz-adv-x="727" 
d="M350 754q-136 0 -208 59t-72 166v29h188v-23q0 -78 104 -78q42 0 68.5 28t26.5 77q0 38 -22.5 61t-45.5 29t-47 6h-70v141h68q53 0 79.5 22.5t26.5 76.5q0 44 -27.5 68t-64.5 24q-92 0 -92 -82v-17h-186v29q0 102 76 165.5t206 63.5q132 0 205.5 -63t73.5 -162
q0 -67 -33 -116t-88 -68v-4q64 -18 105 -68t41 -121q0 -64 -28 -112.5t-74.5 -76t-99.5 -41t-110 -13.5z" />
    <glyph glyph-name="acute" unicode="&#xb4;" horiz-adv-x="704" 
d="M113 1214l174 357h284l-264 -357h-194z" />
    <glyph glyph-name="mu" unicode="&#xb5;" horiz-adv-x="1167" 
d="M123 -365v1414h248v-658q0 -77 53.5 -134.5t144.5 -57.5q47 0 95.5 23t84 71t35.5 108v648h250v-684q0 -20 0.5 -28t3.5 -24.5t9.5 -24t20.5 -14t34 -6.5v-276q-67 -1 -119 15.5t-82 45.5t-46.5 59.5t-23.5 63.5q-18 -44 -38.5 -76.5t-51.5 -62.5t-76 -46t-102 -16
q-72 0 -131 35t-90 96l-16 -6l51 -448z" />
    <glyph glyph-name="paragraph" unicode="&#xb6;" horiz-adv-x="1271" 
d="M526 -184v643q-101 8 -177.5 52t-121 113.5t-66.5 152t-22 177.5q0 128 50.5 243t147 189t216.5 74h614v-143h-108v-1501h-168v1501h-199v-1501h-166z" />
    <glyph glyph-name="periodcentered" unicode="&#xb7;" horiz-adv-x="532" 
d="M133 639v305h268v-305h-268z" />
    <glyph glyph-name="periodcentered" unicode="&#x22c5;" horiz-adv-x="532" 
d="M133 639v305h268v-305h-268z" />
    <glyph glyph-name="cedilla" unicode="&#xb8;" horiz-adv-x="604" 
d="M270 -444q-104 0 -200 38v127q109 -38 176 -38q61 0 88.5 16.5t27.5 56.5q0 19 -12.5 31.5t-40.5 17.5t-44.5 6.5t-53.5 2.5l-49 2l45 254h119l-27 -140q260 -4 260 -174q0 -86 -78 -143t-211 -57z" />
    <glyph glyph-name="onesuperior" unicode="&#xb9;" horiz-adv-x="661" 
d="M90 778v137h156v500l-150 -12l-12 133l268 57h92v-678h142v-137h-496z" />
    <glyph glyph-name="ordmasculine" unicode="&#xba;" horiz-adv-x="870" 
d="M434 737q-144 0 -231.5 74t-87.5 223v160q0 147 89.5 226t229.5 79q144 0 233 -77t89 -226v-160q0 -146 -92 -222.5t-230 -76.5zM434 881q129 0 129 153v170q0 150 -125 150q-131 0 -131 -156v-168q0 -71 29 -110t98 -39zM145 467v162h588v-162h-588z" />
    <glyph glyph-name="guillemotright" unicode="&#xbb;" horiz-adv-x="1193" 
d="M195 131l-125 113l249 305l-251 305l125 109l428 -414zM684 131l-123 113l250 305l-252 305l125 109l428 -414z" />
    <glyph glyph-name="onequarter" unicode="&#xbc;" horiz-adv-x="1765" 
d="M90 645v137h156v500l-150 -12l-12 133l268 57h92v-678h142v-137h-496zM367 -4l796 1464h168l-796 -1464h-168zM1356 0v178h-350v146l301 495h219l-316 -487h146v100l188 121v-221h86v-154h-86v-178h-188z" />
    <glyph glyph-name="onehalf" unicode="&#xbd;" horiz-adv-x="1765" 
d="M90 645v137h156v500l-150 -12l-12 133l268 57h92v-678h142v-137h-496zM367 -4l796 1464h168l-796 -1464h-168zM1079 0v131l297 334q23 24 39.5 59t16.5 66v6q0 37 -22.5 60.5t-70.5 23.5q-44 0 -67 -27.5t-23 -70.5v-25h-184v41q0 112 80.5 174t210.5 62q131 0 201.5 -67
t70.5 -175q0 -29 -5.5 -56.5t-21.5 -57.5t-26.5 -49t-38 -51.5t-36.5 -43.5t-43 -46t-38 -40l-78 -84v-4h293v-160h-555z" />
    <glyph glyph-name="threequarters" unicode="&#xbe;" horiz-adv-x="1765" 
d="M350 621q-136 0 -208 59t-72 166v28h188v-22q0 -78 104 -78q42 0 68.5 28t26.5 77q0 38 -22.5 61t-45.5 29t-47 6h-70v141h68q53 0 79.5 22t26.5 76q0 44 -27.5 68.5t-64.5 24.5q-92 0 -92 -82v-17h-186v29q0 102 76 165.5t206 63.5q132 0 205.5 -63t73.5 -162
q0 -67 -33 -116t-88 -68v-4q64 -18 105 -68t41 -121q0 -64 -28 -112.5t-74.5 -76t-99.5 -41t-110 -13.5zM401 -4l797 1464h168l-797 -1464h-168zM1356 0v178h-350v146l301 495h219l-316 -487h146v100l188 121v-221h86v-154h-86v-178h-188z" />
    <glyph glyph-name="questiondown" unicode="&#xbf;" horiz-adv-x="1099" 
d="M537 -354q-202 0 -317.5 106t-115.5 291q0 41 7.5 77.5t26.5 71.5t34.5 59.5t48.5 59t50.5 51t59.5 53.5t56 50q88 71 88 156v94h230v-94q0 -79 -26.5 -133.5t-84.5 -112.5q-21 -21 -73.5 -66.5t-81.5 -74.5t-55 -77.5t-26 -99.5q0 -88 54.5 -145t142.5 -57q39 0 75.5 9
t69.5 28t53.5 54t20.5 81v86h232v-88q0 -76 -26 -139t-70 -107t-104 -74.5t-128 -44.5t-141 -14zM459 823v303h268v-303h-268z" />
    <glyph glyph-name="Agrave" unicode="&#xc0;" horiz-adv-x="1376" 
d="M23 0l542 1462h250l539 -1462h-289l-107 311h-557l-110 -311h-268zM477 545h404l-199 585h-4zM594 1597l-264 357h284l174 -357h-194z" />
    <glyph glyph-name="Aacute" unicode="&#xc1;" horiz-adv-x="1376" 
d="M23 0l542 1462h250l539 -1462h-289l-107 311h-557l-110 -311h-268zM477 545h404l-199 585h-4zM594 1597l174 357h285l-265 -357h-194z" />
    <glyph glyph-name="Acircumflex" unicode="&#xc2;" horiz-adv-x="1376" 
d="M23 0l542 1462h250l539 -1462h-289l-107 311h-557l-110 -311h-268zM477 545h404l-199 585h-4zM352 1599l223 357h234l215 -357h-233l-99 205l-110 -205h-230z" />
    <glyph glyph-name="Atilde" unicode="&#xc3;" horiz-adv-x="1376" 
d="M23 0l542 1462h250l539 -1462h-289l-107 311h-557l-110 -311h-268zM477 545h404l-199 585h-4zM438 1583l-162 35q23 120 86.5 193t163.5 73q59 0 167 -31.5t165 -31.5q37 0 54 23.5t28 68.5l158 -35q-20 -120 -80.5 -193t-157.5 -73q-59 0 -170 31.5t-168 31.5
q-27 0 -42.5 -16.5t-41.5 -75.5z" />
    <glyph glyph-name="Adieresis" unicode="&#xc4;" horiz-adv-x="1376" 
d="M23 0l542 1462h250l539 -1462h-289l-107 311h-557l-110 -311h-268zM477 545h404l-199 585h-4zM360 1591v269h244v-269h-244zM770 1591v269h244v-269h-244z" />
    <glyph glyph-name="Aring" unicode="&#xc5;" horiz-adv-x="1376" 
d="M23 0l542 1462h250l539 -1462h-289l-107 311h-557l-110 -311h-268zM477 545h404l-199 585h-4zM686 1579q-97 0 -155 56t-58 141q0 87 61.5 146.5t151.5 59.5q97 0 156 -53t59 -141t-63 -148.5t-152 -60.5zM686 1683q39 0 66.5 28.5t27.5 68.5q0 42 -25 70t-69 28
q-42 0 -67 -28.5t-25 -69.5q0 -40 27 -68.5t65 -28.5z" />
    <glyph glyph-name="AE" unicode="&#xc6;" horiz-adv-x="2097" 
d="M25 0l786 1460h1167v-239h-741v-357h657v-239h-657v-385h750v-240h-1020v356h-463l-195 -356h-284zM610 584h357v661z" />
    <glyph glyph-name="Ccedilla" unicode="&#xc7;" horiz-adv-x="1351" 
d="M690 -444q-105 0 -201 38v127q109 -38 177 -38q61 0 88.5 16.5t27.5 56.5q0 19 -12.5 31.5t-40.5 17.5t-44.5 6.5t-53.5 2.5l-49 2l28 166q-141 16 -252 76t-179 169t-68 252v467q0 168 80 292t210.5 185.5t292.5 61.5q107 0 205 -30t177.5 -87.5t127 -151.5t47.5 -212
v-46h-258v21q0 55 -18.5 100t-48.5 75t-69.5 50.5t-80.5 29.5t-82 9q-56 0 -108.5 -15.5t-99.5 -46.5t-76 -88t-29 -132v-467q0 -127 94.5 -202t229.5 -75q52 0 101.5 15t92 45t68.5 83t26 121v21h258v-45q0 -115 -43.5 -207.5t-117.5 -150t-166.5 -89.5t-196.5 -35l-8 -45
q260 -4 260 -174q0 -86 -78 -143t-211 -57z" />
    <glyph glyph-name="Egrave" unicode="&#xc8;" horiz-adv-x="1280" 
d="M147 0v1460h1014v-239h-741v-357h657v-239h-657v-385h749v-240h-1022zM606 1597l-264 357h285l174 -357h-195z" />
    <glyph glyph-name="Eacute" unicode="&#xc9;" horiz-adv-x="1280" 
d="M147 0v1460h1014v-239h-741v-357h657v-239h-657v-385h749v-240h-1022zM543 1597l174 357h284l-264 -357h-194z" />
    <glyph glyph-name="Ecircumflex" unicode="&#xca;" horiz-adv-x="1280" 
d="M147 0v1460h1014v-239h-741v-357h657v-239h-657v-385h749v-240h-1022zM303 1599l223 357h234l215 -357h-234l-98 205l-111 -205h-229z" />
    <glyph glyph-name="Edieresis" unicode="&#xcb;" horiz-adv-x="1280" 
d="M147 0v1460h1014v-239h-741v-357h657v-239h-657v-385h749v-240h-1022zM354 1591v269h244v-269h-244zM764 1591v269h244v-269h-244z" />
    <glyph glyph-name="Igrave" unicode="&#xcc;" horiz-adv-x="567" 
d="M147 0v1460h273v-1460h-273zM180 1597l-264 357h285l174 -357h-195z" />
    <glyph glyph-name="Iacute" unicode="&#xcd;" horiz-adv-x="567" 
d="M147 0v1460h273v-1460h-273zM190 1597l175 357h284l-264 -357h-195z" />
    <glyph glyph-name="Icircumflex" unicode="&#xce;" horiz-adv-x="567" 
d="M147 0v1460h273v-1460h-273zM-51 1599l223 357h234l215 -357h-234l-98 205l-111 -205h-229z" />
    <glyph glyph-name="Idieresis" unicode="&#xcf;" horiz-adv-x="567" 
d="M147 0v1460h273v-1460h-273zM-43 1591v269h244v-269h-244zM367 1591v269h243v-269h-243z" />
    <glyph glyph-name="Eth" unicode="&#xd0;" horiz-adv-x="1437" 
d="M55 647v187h127v626h570q159 0 289 -64t208 -186.5t78 -281.5v-389q0 -101 -32 -188.5t-87 -151t-127.5 -109t-156 -68t-170.5 -22.5h-572v647h-127zM455 240h288q44 0 86.5 9t84 30.5t73 53t51 80.5t19.5 109v422q0 127 -94.5 202t-229.5 75h-278v-387h342v-187h-342
v-407z" />
    <glyph glyph-name="Ntilde" unicode="&#xd1;" horiz-adv-x="1460" 
d="M147 0v1460h265l635 -995h4v995h262v-1460h-266l-633 997h-4v-997h-263zM481 1583l-162 35q23 120 86.5 193t163.5 73q59 0 167 -31.5t165 -31.5q37 0 54 23.5t28 68.5l158 -35q-20 -120 -80.5 -193t-157.5 -73q-59 0 -170 31.5t-168 31.5q-27 0 -42.5 -16.5t-41.5 -75.5
z" />
    <glyph glyph-name="Ograve" unicode="&#xd2;" horiz-adv-x="1398" 
d="M705 -25q-120 0 -226.5 33.5t-189 95.5t-130.5 159t-48 216v467q0 101 33 188.5t89 151t130.5 109t159 68t171.5 22.5q119 0 226.5 -38t189 -105.5t130 -169t48.5 -220.5v-438q0 -101 -33 -188.5t-89 -151t-130.5 -109t-159 -68t-171.5 -22.5zM705 217q55 0 108 15.5
t100 47t76 88.5t29 132v467q0 127 -94.5 201.5t-229.5 74.5q-56 0 -108.5 -15.5t-99.5 -46.5t-76 -88t-29 -132v-467q0 -127 94.5 -202t229.5 -75zM635 1597l-264 357h284l174 -357h-194z" />
    <glyph glyph-name="Oacute" unicode="&#xd3;" horiz-adv-x="1398" 
d="M705 -25q-120 0 -226.5 33.5t-189 95.5t-130.5 159t-48 216v467q0 101 33 188.5t89 151t130.5 109t159 68t171.5 22.5q119 0 226.5 -38t189 -105.5t130 -169t48.5 -220.5v-438q0 -101 -33 -188.5t-89 -151t-130.5 -109t-159 -68t-171.5 -22.5zM705 217q55 0 108 15.5
t100 47t76 88.5t29 132v467q0 127 -94.5 201.5t-229.5 74.5q-56 0 -108.5 -15.5t-99.5 -46.5t-76 -88t-29 -132v-467q0 -127 94.5 -202t229.5 -75zM592 1597l174 357h285l-265 -357h-194z" />
    <glyph glyph-name="Ocircumflex" unicode="&#xd4;" horiz-adv-x="1398" 
d="M705 -25q-120 0 -226.5 33.5t-189 95.5t-130.5 159t-48 216v467q0 101 33 188.5t89 151t130.5 109t159 68t171.5 22.5q119 0 226.5 -38t189 -105.5t130 -169t48.5 -220.5v-438q0 -101 -33 -188.5t-89 -151t-130.5 -109t-159 -68t-171.5 -22.5zM705 217q55 0 108 15.5
t100 47t76 88.5t29 132v467q0 127 -94.5 201.5t-229.5 74.5q-56 0 -108.5 -15.5t-99.5 -46.5t-76 -88t-29 -132v-467q0 -127 94.5 -202t229.5 -75zM362 1599l224 357h233l215 -357h-233l-99 205l-110 -205h-230z" />
    <glyph glyph-name="Otilde" unicode="&#xd5;" horiz-adv-x="1398" 
d="M705 -25q-120 0 -226.5 33.5t-189 95.5t-130.5 159t-48 216v467q0 101 33 188.5t89 151t130.5 109t159 68t171.5 22.5q119 0 226.5 -38t189 -105.5t130 -169t48.5 -220.5v-438q0 -101 -33 -188.5t-89 -151t-130.5 -109t-159 -68t-171.5 -22.5zM705 217q55 0 108 15.5
t100 47t76 88.5t29 132v467q0 127 -94.5 201.5t-229.5 74.5q-56 0 -108.5 -15.5t-99.5 -46.5t-76 -88t-29 -132v-467q0 -127 94.5 -202t229.5 -75zM451 1583l-162 35q23 120 86.5 193t163.5 73q59 0 166.5 -31.5t164.5 -31.5q37 0 54 23.5t28 68.5l158 -35
q-20 -120 -80.5 -193t-157.5 -73q-59 0 -169.5 31.5t-167.5 31.5q-27 0 -42.5 -16.5t-41.5 -75.5z" />
    <glyph glyph-name="Odieresis" unicode="&#xd6;" horiz-adv-x="1398" 
d="M705 -25q-120 0 -226.5 33.5t-189 95.5t-130.5 159t-48 216v467q0 101 33 188.5t89 151t130.5 109t159 68t171.5 22.5q119 0 226.5 -38t189 -105.5t130 -169t48.5 -220.5v-438q0 -101 -33 -188.5t-89 -151t-130.5 -109t-159 -68t-171.5 -22.5zM705 217q55 0 108 15.5
t100 47t76 88.5t29 132v467q0 127 -94.5 201.5t-229.5 74.5q-56 0 -108.5 -15.5t-99.5 -46.5t-76 -88t-29 -132v-467q0 -127 94.5 -202t229.5 -75zM373 1591v269h243v-269h-243zM782 1591v269h244v-269h-244z" />
    <glyph glyph-name="multiply" unicode="&#xd7;" 
d="M209 168l-119 119l363 366l-363 369l121 123l362 -371l361 369l119 -121l-361 -365l377 -356l-125 -127l-375 361z" />
    <glyph glyph-name="Oslash" unicode="&#xd8;" horiz-adv-x="1398" 
d="M279 -123l-123 82l106 166q-151 135 -151 354v467q0 101 33 188.5t89 151t130.5 109t159 68t171.5 22.5q213 0 373 -113l115 176l123 -82l-127 -196q110 -132 110 -318v-438q0 -101 -33 -188.5t-89 -151t-130.5 -109t-159 -68t-171.5 -22.5q-173 0 -318 68zM381 494
q0 -75 35 -134l516 801q-94 82 -238 82q-56 0 -108.5 -15.5t-99.5 -46.5t-76 -88t-29 -132v-467zM705 217q55 0 108 15.5t100 47t76 88.5t29 132v467q0 17 -4 49l-490 -758q75 -41 181 -41z" />
    <glyph glyph-name="Ugrave" unicode="&#xd9;" horiz-adv-x="1417" 
d="M709 -23q-262 0 -417 135.5t-155 391.5v956h273v-923q0 -143 73.5 -228.5t225.5 -85.5q299 0 299 314v923h272v-936q0 -257 -156 -402t-415 -145zM651 1597l-264 357h285l174 -357h-195z" />
    <glyph glyph-name="Uacute" unicode="&#xda;" horiz-adv-x="1417" 
d="M709 -23q-262 0 -417 135.5t-155 391.5v956h273v-923q0 -143 73.5 -228.5t225.5 -85.5q299 0 299 314v923h272v-936q0 -257 -156 -402t-415 -145zM616 1597l175 357h284l-264 -357h-195z" />
    <glyph glyph-name="Ucircumflex" unicode="&#xdb;" horiz-adv-x="1417" 
d="M709 -23q-262 0 -417 135.5t-155 391.5v956h273v-923q0 -143 73.5 -228.5t225.5 -85.5q299 0 299 314v923h272v-936q0 -257 -156 -402t-415 -145zM373 1599l223 357h233l215 -357h-233l-98 205l-111 -205h-229z" />
    <glyph glyph-name="Udieresis" unicode="&#xdc;" horiz-adv-x="1417" 
d="M709 -23q-262 0 -417 135.5t-155 391.5v956h273v-923q0 -143 73.5 -228.5t225.5 -85.5q299 0 299 314v923h272v-936q0 -257 -156 -402t-415 -145zM414 1591v269h243v-269h-243zM823 1591v269h244v-269h-244z" />
    <glyph glyph-name="Yacute" unicode="&#xdd;" horiz-adv-x="1245" 
d="M489 0v586l-489 874h305l326 -612l323 612h291l-491 -878v-582h-265zM520 1597l174 357h285l-264 -357h-195z" />
    <glyph glyph-name="Thorn" unicode="&#xde;" horiz-adv-x="1290" 
d="M147 0v1460h273v-239h321q143 0 254 -51.5t176.5 -156.5t65.5 -251q0 -86 -29.5 -165.5t-86 -145t-151 -105t-214.5 -39.5h-336v-307h-273zM420 537h289q122 0 192 58t70 169q0 227 -266 227h-285v-454z" />
    <glyph glyph-name="germandbls" unicode="&#xdf;" horiz-adv-x="1314" 
d="M807 -25q-163 0 -264 37l37 219q99 -30 188 -30q102 0 157.5 48.5t55.5 147.5q0 65 -29.5 112.5t-80 72.5t-106.5 36t-120 11v186h60q78 31 131 109t53 163q0 187 -223 187q-112 0 -173 -63t-61 -154v-1057h-264v854h-133v195h133v8q0 89 33.5 167.5t96 138t160.5 94
t220 34.5q229 0 350 -102.5t121 -280.5q0 -109 -58.5 -200t-156.5 -130v-8q163 -51 239 -153t76 -234q0 -119 -63 -214.5t-163.5 -145.5t-215.5 -48z" />
    <glyph glyph-name="agrave" unicode="&#xe0;" horiz-adv-x="1107" 
d="M432 -20q-165 0 -264.5 85t-99.5 232q0 98 55 173t142 113t190 38h278v96q0 157 -201 157q-84 0 -136 -27t-52 -77v-37h-225v29q0 66 24.5 119.5t65 88t95 57.5t112 32.5t119.5 9.5q73 0 136.5 -10t122 -34t99.5 -61.5t65.5 -96t24.5 -132.5v-510q0 -50 5 -130t13 -95
h-247q-2 7 -4 27t-4 42t-3 27h-4q-66 -69 -133 -92.5t-174 -23.5zM500 176q58 0 101 11.5t68 30t39.5 47t19.5 57t5 65.5v51h-246q-176 0 -176 -129q0 -65 50 -99t139 -34zM512 1214l-264 357h284l175 -357h-195z" />
    <glyph glyph-name="aacute" unicode="&#xe1;" horiz-adv-x="1107" 
d="M432 -20q-165 0 -264.5 85t-99.5 232q0 98 55 173t142 113t190 38h278v96q0 157 -201 157q-84 0 -136 -27t-52 -77v-37h-225v29q0 66 24.5 119.5t65 88t95 57.5t112 32.5t119.5 9.5q73 0 136.5 -10t122 -34t99.5 -61.5t65.5 -96t24.5 -132.5v-510q0 -50 5 -130t13 -95
h-247q-2 7 -4 27t-4 42t-3 27h-4q-66 -69 -133 -92.5t-174 -23.5zM500 176q58 0 101 11.5t68 30t39.5 47t19.5 57t5 65.5v51h-246q-176 0 -176 -129q0 -65 50 -99t139 -34zM436 1214l174 357h285l-264 -357h-195z" />
    <glyph glyph-name="acircumflex" unicode="&#xe2;" horiz-adv-x="1107" 
d="M432 -20q-165 0 -264.5 85t-99.5 232q0 98 55 173t142 113t190 38h278v96q0 157 -201 157q-84 0 -136 -27t-52 -77v-37h-225v29q0 66 24.5 119.5t65 88t95 57.5t112 32.5t119.5 9.5q73 0 136.5 -10t122 -34t99.5 -61.5t65.5 -96t24.5 -132.5v-510q0 -50 5 -130t13 -95
h-247q-2 7 -4 27t-4 42t-3 27h-4q-66 -69 -133 -92.5t-174 -23.5zM500 176q58 0 101 11.5t68 30t39.5 47t19.5 57t5 65.5v51h-246q-176 0 -176 -129q0 -65 50 -99t139 -34zM217 1217l223 356h234l215 -356h-234l-98 204l-111 -204h-229z" />
    <glyph glyph-name="atilde" unicode="&#xe3;" horiz-adv-x="1107" 
d="M432 -20q-165 0 -264.5 85t-99.5 232q0 98 55 173t142 113t190 38h278v96q0 157 -201 157q-84 0 -136 -27t-52 -77v-37h-225v29q0 66 24.5 119.5t65 88t95 57.5t112 32.5t119.5 9.5q73 0 136.5 -10t122 -34t99.5 -61.5t65.5 -96t24.5 -132.5v-510q0 -50 5 -130t13 -95
h-247q-2 7 -4 27t-4 42t-3 27h-4q-66 -69 -133 -92.5t-174 -23.5zM500 176q58 0 101 11.5t68 30t39.5 47t19.5 57t5 65.5v51h-246q-176 0 -176 -129q0 -65 50 -99t139 -34zM305 1200l-162 35q23 120 86.5 193t163.5 73q59 0 167 -31.5t165 -31.5q37 0 54 23.5t28 68.5
l158 -35q-20 -120 -80.5 -193t-157.5 -73q-59 0 -170 31.5t-168 31.5q-27 0 -42.5 -16.5t-41.5 -75.5z" />
    <glyph glyph-name="adieresis" unicode="&#xe4;" horiz-adv-x="1107" 
d="M432 -20q-165 0 -264.5 85t-99.5 232q0 98 55 173t142 113t190 38h278v96q0 157 -201 157q-84 0 -136 -27t-52 -77v-37h-225v29q0 66 24.5 119.5t65 88t95 57.5t112 32.5t119.5 9.5q73 0 136.5 -10t122 -34t99.5 -61.5t65.5 -96t24.5 -132.5v-510q0 -50 5 -130t13 -95
h-247q-2 7 -4 27t-4 42t-3 27h-4q-66 -69 -133 -92.5t-174 -23.5zM500 176q58 0 101 11.5t68 30t39.5 47t19.5 57t5 65.5v51h-246q-176 0 -176 -129q0 -65 50 -99t139 -34zM227 1208v269h244v-269h-244zM637 1208v269h244v-269h-244z" />
    <glyph glyph-name="aring" unicode="&#xe5;" horiz-adv-x="1107" 
d="M432 -20q-165 0 -264.5 85t-99.5 232q0 98 55 173t142 113t190 38h278v96q0 157 -201 157q-84 0 -136 -27t-52 -77v-37h-225v29q0 66 24.5 119.5t65 88t95 57.5t112 32.5t119.5 9.5q73 0 136.5 -10t122 -34t99.5 -61.5t65.5 -96t24.5 -132.5v-510q0 -50 5 -130t13 -95
h-247q-2 7 -4 27t-4 42t-3 27h-4q-66 -69 -133 -92.5t-174 -23.5zM500 176q58 0 101 11.5t68 30t39.5 47t19.5 57t5 65.5v51h-246q-176 0 -176 -129q0 -65 50 -99t139 -34zM553 1196q-97 0 -155 56t-58 141q0 87 61.5 146.5t151.5 59.5q97 0 156 -53t59 -141t-63 -148.5
t-152 -60.5zM553 1300q39 0 66.5 28.5t27.5 68.5q0 42 -25 70t-69 28q-42 0 -67 -28.5t-25 -69.5q0 -40 27 -68.5t65 -28.5z" />
    <glyph glyph-name="ae" unicode="&#xe6;" horiz-adv-x="1755" 
d="M1221 -25q-131 0 -241 48t-173 139q-113 -182 -375 -182q-165 0 -264.5 85t-99.5 232q0 98 55 173t142 113t190 38h278v96q0 157 -201 157q-84 0 -136 -27t-52 -77v-37h-225v29q0 66 24.5 119.5t65 88t95 57.5t112 32.5t119.5 9.5q244 0 358 -106q132 104 319 104
q87 0 167 -26t144.5 -75t103 -129.5t38.5 -181.5v-202h-674v-58q0 -97 69.5 -154t172.5 -57q62 0 123.5 37t103.5 98l199 -112q-131 -232 -438 -232zM500 176q58 0 101 11.5t68 30t39.5 47t19.5 57t5 65.5v51h-246q-176 0 -176 -129q0 -65 50 -99t139 -34zM991 627h424v28
q0 100 -59 150.5t-144 50.5q-91 0 -156 -53t-65 -162v-14z" />
    <glyph glyph-name="ccedilla" unicode="&#xe7;" horiz-adv-x="1077" 
d="M565 -444q-104 0 -200 38v127q109 -38 176 -38q61 0 88.5 16.5t27.5 56.5q0 19 -12.5 31.5t-40.5 17.5t-44.5 6.5t-53.5 2.5l-49 2l28 166q-83 12 -154.5 45t-126.5 84.5t-86.5 126.5t-31.5 165v205q0 108 38.5 196t104.5 145t153 87.5t185 30.5q87 0 167.5 -26
t146.5 -75t105.5 -129.5t39.5 -181.5v-20h-244v20q0 99 -64.5 150t-150.5 51q-91 0 -156 -53t-65 -162v-246q0 -98 63.5 -154.5t165.5 -56.5q85 0 146 50.5t61 150.5v10h244v-10q0 -97 -35.5 -175t-95.5 -126.5t-134.5 -75.5t-158.5 -31l-8 -47q260 -4 260 -174
q0 -86 -78 -143t-211 -57z" />
    <glyph glyph-name="egrave" unicode="&#xe8;" horiz-adv-x="1110" 
d="M575 -25q-98 0 -185.5 27t-155.5 78.5t-108 135t-40 187.5v205q0 108 38.5 196t104.5 145t153 87.5t185 30.5q87 0 167 -26t144.5 -75t103 -129.5t38.5 -181.5v-202h-674v-58q0 -97 69.5 -154t172.5 -57q62 0 123.5 37t103.5 98l193 -110q-59 -118 -173.5 -176
t-259.5 -58zM346 627h424v28q0 100 -59 150.5t-144 50.5q-91 0 -156 -53t-65 -162v-14zM510 1214l-264 357h284l175 -357h-195z" />
    <glyph glyph-name="eacute" unicode="&#xe9;" horiz-adv-x="1110" 
d="M575 -25q-98 0 -185.5 27t-155.5 78.5t-108 135t-40 187.5v205q0 108 38.5 196t104.5 145t153 87.5t185 30.5q87 0 167 -26t144.5 -75t103 -129.5t38.5 -181.5v-202h-674v-58q0 -97 69.5 -154t172.5 -57q62 0 123.5 37t103.5 98l193 -110q-59 -118 -173.5 -176
t-259.5 -58zM346 627h424v28q0 100 -59 150.5t-144 50.5q-91 0 -156 -53t-65 -162v-14zM461 1214l174 357h285l-265 -357h-194z" />
    <glyph glyph-name="ecircumflex" unicode="&#xea;" horiz-adv-x="1110" 
d="M575 -25q-98 0 -185.5 27t-155.5 78.5t-108 135t-40 187.5v205q0 108 38.5 196t104.5 145t153 87.5t185 30.5q87 0 167 -26t144.5 -75t103 -129.5t38.5 -181.5v-202h-674v-58q0 -97 69.5 -154t172.5 -57q62 0 123.5 37t103.5 98l193 -110q-59 -118 -173.5 -176
t-259.5 -58zM346 627h424v28q0 100 -59 150.5t-144 50.5q-91 0 -156 -53t-65 -162v-14zM219 1217l223 356h234l215 -356h-234l-98 204l-110 -204h-230z" />
    <glyph glyph-name="edieresis" unicode="&#xeb;" horiz-adv-x="1110" 
d="M575 -25q-98 0 -185.5 27t-155.5 78.5t-108 135t-40 187.5v205q0 108 38.5 196t104.5 145t153 87.5t185 30.5q87 0 167 -26t144.5 -75t103 -129.5t38.5 -181.5v-202h-674v-58q0 -97 69.5 -154t172.5 -57q62 0 123.5 37t103.5 98l193 -110q-59 -118 -173.5 -176
t-259.5 -58zM346 627h424v28q0 100 -59 150.5t-144 50.5q-91 0 -156 -53t-65 -162v-14zM227 1208v269h244v-269h-244zM637 1208v269h244v-269h-244z" />
    <glyph glyph-name="igrave" unicode="&#xec;" horiz-adv-x="520" 
d="M135 0v1049h250v-1049h-250zM170 1214l-264 357h284l175 -357h-195z" />
    <glyph glyph-name="iacute" unicode="&#xed;" horiz-adv-x="520" 
d="M135 0v1049h250v-1049h-250zM160 1214l174 357h284l-264 -357h-194z" />
    <glyph glyph-name="icircumflex" unicode="&#xee;" horiz-adv-x="520" 
d="M135 0v1049h250v-1049h-250zM-76 1217l223 356h234l215 -356h-234l-98 204l-110 -204h-230z" />
    <glyph glyph-name="idieresis" unicode="&#xef;" horiz-adv-x="520" 
d="M135 0v1049h250v-1049h-250zM-66 1208v269h244v-269h-244zM344 1208v269h244v-269h-244z" />
    <glyph glyph-name="eth" unicode="&#xf0;" horiz-adv-x="1118" 
d="M557 -25q-133 0 -237 44.5t-169 141t-65 234.5v238q0 99 34 180t92.5 134t134 85t163.5 41q20 2 49 2l-67 109l-220 -58l-73 152l198 55l-80 125l248 68l82 -131l217 53l74 -152l-199 -53l242 -387q51 -81 51 -217v-227q0 -85 -26.5 -157t-71.5 -123t-106 -87t-129.5 -53
t-141.5 -17zM557 184q98 0 157.5 58.5t59.5 163.5v249q0 98 -58.5 158.5t-158.5 60.5q-98 0 -155.5 -59t-57.5 -166v-246q0 -101 55 -160t158 -59z" />
    <glyph glyph-name="ntilde" unicode="&#xf1;" horiz-adv-x="1169" 
d="M135 0v1049h244v-129h4q51 73 129 111t168 38q176 0 271.5 -104.5t95.5 -292.5v-672h-250v608q0 118 -50 180t-145 62q-105 0 -161 -65.5t-56 -196.5v-588h-250zM356 1200l-161 35q23 121 86 193.5t163 72.5q59 0 167 -31.5t165 -31.5q37 0 54 23.5t28 68.5l158 -35
q-20 -120 -80.5 -193t-157.5 -73q-59 0 -170 31.5t-168 31.5q-27 0 -42.5 -16.5t-41.5 -75.5z" />
    <glyph glyph-name="ograve" unicode="&#xf2;" horiz-adv-x="1126" 
d="M567 -25q-130 0 -237.5 46t-175.5 141.5t-68 224.5v240q0 83 27 155t73 123.5t106.5 88.5t128.5 55t138 18q128 0 237 -52t176.5 -153t67.5 -231v-215q0 -103 -41 -188.5t-109 -139.5t-151.5 -83.5t-171.5 -29.5zM567 186q89 0 154 51t65 156v260q0 93 -64 147t-163 54
q-89 0 -154 -51t-65 -156v-258q0 -93 64 -148t163 -55zM498 1214l-265 357h285l174 -357h-194z" />
    <glyph glyph-name="oacute" unicode="&#xf3;" horiz-adv-x="1126" 
d="M567 -25q-130 0 -237.5 46t-175.5 141.5t-68 224.5v240q0 83 27 155t73 123.5t106.5 88.5t128.5 55t138 18q128 0 237 -52t176.5 -153t67.5 -231v-215q0 -103 -41 -188.5t-109 -139.5t-151.5 -83.5t-171.5 -29.5zM567 186q89 0 154 51t65 156v260q0 93 -64 147t-163 54
q-89 0 -154 -51t-65 -156v-258q0 -93 64 -148t163 -55zM446 1214l175 357h284l-264 -357h-195z" />
    <glyph glyph-name="ocircumflex" unicode="&#xf4;" horiz-adv-x="1126" 
d="M567 -25q-130 0 -237.5 46t-175.5 141.5t-68 224.5v240q0 83 27 155t73 123.5t106.5 88.5t128.5 55t138 18q128 0 237 -52t176.5 -153t67.5 -231v-215q0 -103 -41 -188.5t-109 -139.5t-151.5 -83.5t-171.5 -29.5zM567 186q89 0 154 51t65 156v260q0 93 -64 147t-163 54
q-89 0 -154 -51t-65 -156v-258q0 -93 64 -148t163 -55zM227 1217l224 356h233l215 -356h-233l-99 204l-110 -204h-230z" />
    <glyph glyph-name="otilde" unicode="&#xf5;" horiz-adv-x="1126" 
d="M567 -25q-130 0 -237.5 46t-175.5 141.5t-68 224.5v240q0 83 27 155t73 123.5t106.5 88.5t128.5 55t138 18q128 0 237 -52t176.5 -153t67.5 -231v-215q0 -103 -41 -188.5t-109 -139.5t-151.5 -83.5t-171.5 -29.5zM567 186q89 0 154 51t65 156v260q0 93 -64 147t-163 54
q-89 0 -154 -51t-65 -156v-258q0 -93 64 -148t163 -55zM313 1200l-161 35q23 121 86 193.5t163 72.5q59 0 167 -31.5t165 -31.5q37 0 54 23.5t28 68.5l158 -35q-20 -120 -80.5 -193t-157.5 -73q-59 0 -170 31.5t-168 31.5q-27 0 -42.5 -16.5t-41.5 -75.5z" />
    <glyph glyph-name="odieresis" unicode="&#xf6;" horiz-adv-x="1126" 
d="M567 -25q-130 0 -237.5 46t-175.5 141.5t-68 224.5v240q0 83 27 155t73 123.5t106.5 88.5t128.5 55t138 18q128 0 237 -52t176.5 -153t67.5 -231v-215q0 -103 -41 -188.5t-109 -139.5t-151.5 -83.5t-171.5 -29.5zM567 186q89 0 154 51t65 156v260q0 93 -64 147t-163 54
q-89 0 -154 -51t-65 -156v-258q0 -93 64 -148t163 -55zM236 1208v269h243v-269h-243zM645 1208v269h244v-269h-244z" />
    <glyph glyph-name="divide" unicode="&#xf7;" 
d="M444 125v258h256v-258h-256zM70 565v168h1007v-168h-1007zM444 907v260h256v-260h-256z" />
    <glyph glyph-name="oslash" unicode="&#xf8;" horiz-adv-x="1126" 
d="M305 -154l-119 58l78 151q-178 118 -178 332v240q0 83 27 155t73 123.5t106.5 88.5t128.5 55t138 18q108 0 203 -39l78 152l118 -58l-81 -159q76 -59 119.5 -144t43.5 -188v-215q0 -103 -41 -188.5t-109 -139.5t-151.5 -83.5t-171.5 -29.5q-86 0 -182 27zM340 389
q0 -70 35 -117l289 564q-47 18 -105 18q-89 0 -154 -51t-65 -156v-258zM567 186q89 0 154 51t65 156v260q0 47 -20 92l-281 -548q46 -11 82 -11z" />
    <glyph glyph-name="ugrave" unicode="&#xf9;" horiz-adv-x="1157" 
d="M492 -20q-176 0 -272.5 106t-96.5 293v670h250v-609q0 -118 50 -179.5t146 -61.5q104 0 159.5 66t55.5 198v586h250v-1049h-241v129h-7q-51 -74 -127.5 -111.5t-166.5 -37.5zM543 1214l-264 357h284l174 -357h-194z" />
    <glyph glyph-name="uacute" unicode="&#xfa;" horiz-adv-x="1157" 
d="M492 -20q-176 0 -272.5 106t-96.5 293v670h250v-609q0 -118 50 -179.5t146 -61.5q104 0 159.5 66t55.5 198v586h250v-1049h-241v129h-7q-51 -74 -127.5 -111.5t-166.5 -37.5zM475 1214l174 357h285l-264 -357h-195z" />
    <glyph glyph-name="ucircumflex" unicode="&#xfb;" horiz-adv-x="1157" 
d="M492 -20q-176 0 -272.5 106t-96.5 293v670h250v-609q0 -118 50 -179.5t146 -61.5q104 0 159.5 66t55.5 198v586h250v-1049h-241v129h-7q-51 -74 -127.5 -111.5t-166.5 -37.5zM242 1217l223 356h233l215 -356h-233l-98 204l-111 -204h-229z" />
    <glyph glyph-name="udieresis" unicode="&#xfc;" horiz-adv-x="1157" 
d="M492 -20q-176 0 -272.5 106t-96.5 293v670h250v-609q0 -118 50 -179.5t146 -61.5q104 0 159.5 66t55.5 198v586h250v-1049h-241v129h-7q-51 -74 -127.5 -111.5t-166.5 -37.5zM252 1208v269h244v-269h-244zM662 1208v269h243v-269h-243z" />
    <glyph glyph-name="yacute" unicode="&#xfd;" horiz-adv-x="1038" 
d="M240 -401q-61 0 -125 12v211q75 -10 118 -10q45 0 76 24.5t45 63.5l45 125l-387 1024h273l245 -717h5l235 717h256l-444 -1223q-81 -227 -342 -227zM461 1214l174 357h285l-265 -357h-194z" />
    <glyph glyph-name="thorn" unicode="&#xfe;" horiz-adv-x="1175" 
d="M135 -395v1855h248v-532h2q58 70 136.5 105.5t154.5 35.5q179 0 296.5 -110t117.5 -304v-254q0 -104 -34.5 -186.5t-94.5 -134t-137.5 -78.5t-166.5 -27q-83 0 -153 36.5t-113 92.5h-6v-499h-250zM616 186q89 0 154.5 51t65.5 156v260q0 93 -64 147t-164 54
q-87 0 -155 -57.5t-68 -163.5v-244q0 -93 65.5 -148t165.5 -55z" />
    <glyph glyph-name="ydieresis" unicode="&#xff;" horiz-adv-x="1038" 
d="M240 -401q-61 0 -125 12v211q75 -10 118 -10q45 0 76 24.5t45 63.5l45 125l-387 1024h273l245 -717h5l235 717h256l-444 -1223q-81 -227 -342 -227zM215 1208v269h244v-269h-244zM625 1208v269h243v-269h-243z" />
    <glyph glyph-name="Amacron" unicode="&#x100;" horiz-adv-x="1376" 
d="M23 0l542 1462h250l539 -1462h-289l-107 311h-557l-110 -311h-268zM477 545h404l-199 585h-4zM403 1608v209h568v-209h-568z" />
    <glyph glyph-name="amacron" unicode="&#x101;" horiz-adv-x="1107" 
d="M432 -20q-165 0 -264.5 85t-99.5 232q0 98 55 173t142 113t190 38h278v96q0 157 -201 157q-84 0 -136 -27t-52 -77v-37h-225v29q0 66 24.5 119.5t65 88t95 57.5t112 32.5t119.5 9.5q73 0 136.5 -10t122 -34t99.5 -61.5t65.5 -96t24.5 -132.5v-510q0 -50 5 -130t13 -95
h-247q-2 7 -4 27t-4 42t-3 27h-4q-66 -69 -133 -92.5t-174 -23.5zM500 176q58 0 101 11.5t68 30t39.5 47t19.5 57t5 65.5v51h-246q-176 0 -176 -129q0 -65 50 -99t139 -34zM270 1225v209h568v-209h-568z" />
    <glyph glyph-name="Abreve" unicode="&#x102;" horiz-adv-x="1376" 
d="M23 0l542 1462h250l539 -1462h-289l-107 311h-557l-110 -311h-268zM477 545h404l-199 585h-4zM688 1595q-147 0 -243 95t-97 254h178q11 -83 54.5 -133t115.5 -50q68 0 113.5 45.5t48.5 137.5h170q-1 -85 -29.5 -153.5t-77 -110t-108 -63.5t-125.5 -22z" />
    <glyph glyph-name="abreve" unicode="&#x103;" horiz-adv-x="1107" 
d="M432 -20q-165 0 -264.5 85t-99.5 232q0 98 55 173t142 113t190 38h278v96q0 157 -201 157q-84 0 -136 -27t-52 -77v-37h-225v29q0 66 24.5 119.5t65 88t95 57.5t112 32.5t119.5 9.5q73 0 136.5 -10t122 -34t99.5 -61.5t65.5 -96t24.5 -132.5v-510q0 -50 5 -130t13 -95
h-247q-2 7 -4 27t-4 42t-3 27h-4q-66 -69 -133 -92.5t-174 -23.5zM500 176q58 0 101 11.5t68 30t39.5 47t19.5 57t5 65.5v51h-246q-176 0 -176 -129q0 -65 50 -99t139 -34zM553 1212q-147 0 -243 95t-97 254h178q11 -83 54.5 -133t115.5 -50q68 0 113.5 45.5t48.5 137.5h170
q-1 -85 -29.5 -153.5t-77 -110t-108 -63.5t-125.5 -22z" />
    <glyph glyph-name="Aogonek" unicode="&#x104;" horiz-adv-x="1376" 
d="M1206 -444q-72 0 -132.5 24.5t-100 78t-39.5 128.5q0 134 127 223l-103 301h-557l-110 -311h-268l542 1462h250l539 -1462h-2q-112 -19 -168 -66.5t-56 -103.5q0 -90 103 -90q69 0 133 39l94 -135q-105 -88 -252 -88zM477 545h404l-199 585h-4z" />
    <glyph glyph-name="aogonek" unicode="&#x105;" horiz-adv-x="1107" 
d="M874 -444q-72 0 -132.5 24.5t-100 78t-39.5 128.5q0 158 146 246q-5 62 -5 63h-4q-66 -69 -133 -92.5t-174 -23.5q-165 0 -264.5 85t-99.5 232q0 98 55 173t142 113t190 38h278v96q0 157 -201 157q-84 0 -136 -27t-52 -77v-37h-225v29q0 66 24.5 119.5t65 88t95 57.5
t112 32.5t119.5 9.5q73 0 136.5 -10t122 -34t99.5 -61.5t65.5 -96t24.5 -132.5v-510q0 -50 5 -130t13 -95h-2q-110 -19 -156 -65t-46 -105q0 -90 102 -90q69 0 133 39l94 -135q-105 -88 -252 -88zM500 176q58 0 101 11.5t68 30t39.5 47t19.5 57t5 65.5v51h-246
q-176 0 -176 -129q0 -65 50 -99t139 -34z" />
    <glyph glyph-name="Cacute" unicode="&#x106;" horiz-adv-x="1351" 
d="M705 -25q-120 0 -226.5 33.5t-189 95.5t-130.5 159t-48 216v467q0 168 80 292t210.5 185.5t292.5 61.5q107 0 205 -30t177.5 -87.5t127 -151.5t47.5 -212v-46h-258v21q0 55 -18.5 100t-48.5 75t-69.5 50.5t-80.5 29.5t-82 9q-56 0 -108.5 -15.5t-99.5 -46.5t-76 -88
t-29 -132v-467q0 -127 94.5 -202t229.5 -75q52 0 101.5 15t92 45t68.5 83t26 121v21h258v-45q0 -95 -30 -175t-82 -136t-121.5 -95t-148.5 -57.5t-164 -18.5zM592 1597l174 357h285l-265 -357h-194z" />
    <glyph glyph-name="cacute" unicode="&#x107;" horiz-adv-x="1077" 
d="M575 -25q-98 0 -185.5 28t-155.5 80.5t-108 135.5t-40 184v205q0 108 38.5 196t104.5 145t153 87.5t185 30.5q87 0 167.5 -26t146.5 -75t105.5 -129.5t39.5 -181.5v-20h-244v20q0 99 -64.5 150t-150.5 51q-91 0 -156 -53t-65 -162v-246q0 -98 63.5 -154.5t165.5 -56.5
q85 0 146 50.5t61 150.5v10h244v-10q0 -101 -38 -181t-102.5 -129t-144 -74.5t-166.5 -25.5zM461 1214l174 357h285l-265 -357h-194z" />
    <glyph glyph-name="Ccircumflex" unicode="&#x108;" horiz-adv-x="1351" 
d="M705 -25q-120 0 -226.5 33.5t-189 95.5t-130.5 159t-48 216v467q0 168 80 292t210.5 185.5t292.5 61.5q107 0 205 -30t177.5 -87.5t127 -151.5t47.5 -212v-46h-258v21q0 55 -18.5 100t-48.5 75t-69.5 50.5t-80.5 29.5t-82 9q-56 0 -108.5 -15.5t-99.5 -46.5t-76 -88
t-29 -132v-467q0 -127 94.5 -202t229.5 -75q52 0 101.5 15t92 45t68.5 83t26 121v21h258v-45q0 -95 -30 -175t-82 -136t-121.5 -95t-148.5 -57.5t-164 -18.5zM354 1599l224 357h233l215 -357h-233l-99 205l-110 -205h-230z" />
    <glyph glyph-name="ccircumflex" unicode="&#x109;" horiz-adv-x="1077" 
d="M575 -25q-98 0 -185.5 28t-155.5 80.5t-108 135.5t-40 184v205q0 108 38.5 196t104.5 145t153 87.5t185 30.5q87 0 167.5 -26t146.5 -75t105.5 -129.5t39.5 -181.5v-20h-244v20q0 99 -64.5 150t-150.5 51q-91 0 -156 -53t-65 -162v-246q0 -98 63.5 -154.5t165.5 -56.5
q85 0 146 50.5t61 150.5v10h244v-10q0 -101 -38 -181t-102.5 -129t-144 -74.5t-166.5 -25.5zM225 1217l224 356h233l215 -356h-233l-99 204l-110 -204h-230z" />
    <glyph glyph-name="Cdotaccent" unicode="&#x10a;" horiz-adv-x="1351" 
d="M705 -25q-120 0 -226.5 33.5t-189 95.5t-130.5 159t-48 216v467q0 168 80 292t210.5 185.5t292.5 61.5q107 0 205 -30t177.5 -87.5t127 -151.5t47.5 -212v-46h-258v21q0 55 -18.5 100t-48.5 75t-69.5 50.5t-80.5 29.5t-82 9q-56 0 -108.5 -15.5t-99.5 -46.5t-76 -88
t-29 -132v-467q0 -127 94.5 -202t229.5 -75q52 0 101.5 15t92 45t68.5 83t26 121v21h258v-45q0 -95 -30 -175t-82 -136t-121.5 -95t-148.5 -57.5t-164 -18.5zM553 1589v269h244v-269h-244z" />
    <glyph glyph-name="cdotaccent" unicode="&#x10b;" horiz-adv-x="1077" 
d="M575 -25q-98 0 -185.5 28t-155.5 80.5t-108 135.5t-40 184v205q0 108 38.5 196t104.5 145t153 87.5t185 30.5q87 0 167.5 -26t146.5 -75t105.5 -129.5t39.5 -181.5v-20h-244v20q0 99 -64.5 150t-150.5 51q-91 0 -156 -53t-65 -162v-246q0 -98 63.5 -154.5t165.5 -56.5
q85 0 146 50.5t61 150.5v10h244v-10q0 -101 -38 -181t-102.5 -129t-144 -74.5t-166.5 -25.5zM451 1206v269h243v-269h-243z" />
    <glyph glyph-name="Ccaron" unicode="&#x10c;" horiz-adv-x="1351" 
d="M705 -25q-120 0 -226.5 33.5t-189 95.5t-130.5 159t-48 216v467q0 168 80 292t210.5 185.5t292.5 61.5q107 0 205 -30t177.5 -87.5t127 -151.5t47.5 -212v-46h-258v21q0 55 -18.5 100t-48.5 75t-69.5 50.5t-80.5 29.5t-82 9q-56 0 -108.5 -15.5t-99.5 -46.5t-76 -88
t-29 -132v-467q0 -127 94.5 -202t229.5 -75q52 0 101.5 15t92 45t68.5 83t26 121v21h258v-45q0 -95 -30 -175t-82 -136t-121.5 -95t-148.5 -57.5t-164 -18.5zM555 1599l-215 357h233l99 -205l110 205h230l-224 -357h-233z" />
    <glyph glyph-name="ccaron" unicode="&#x10d;" horiz-adv-x="1077" 
d="M575 -25q-98 0 -185.5 28t-155.5 80.5t-108 135.5t-40 184v205q0 108 38.5 196t104.5 145t153 87.5t185 30.5q87 0 167.5 -26t146.5 -75t105.5 -129.5t39.5 -181.5v-20h-244v20q0 99 -64.5 150t-150.5 51q-91 0 -156 -53t-65 -162v-246q0 -98 63.5 -154.5t165.5 -56.5
q85 0 146 50.5t61 150.5v10h244v-10q0 -101 -38 -181t-102.5 -129t-144 -74.5t-166.5 -25.5zM451 1217l-215 356h233l98 -205l111 205h229l-223 -356h-233z" />
    <glyph glyph-name="Dcaron" unicode="&#x10e;" horiz-adv-x="1402" 
d="M147 0v1460h570q159 0 289 -64t208 -186.5t78 -281.5v-389q0 -101 -32 -188.5t-87 -151t-127.5 -109t-156 -68t-170.5 -22.5h-572zM420 240h289q56 0 108.5 15.5t99.5 46.5t76 88t29 132v422q0 127 -94.5 202t-229.5 75h-278v-981zM539 1599l-215 357h233l98 -205
l111 205h229l-223 -357h-233z" />
    <glyph glyph-name="dcaron" unicode="&#x10f;" horiz-adv-x="1175" 
d="M500 -25q-179 0 -296.5 110t-117.5 304v254q0 104 34.5 186.5t94.5 134t137 78.5t166 27q83 0 153 -36.5t113 -92.5h7v520h249v-1460h-243v117h-2q-43 -59 -132 -100.5t-163 -41.5zM567 190q41 0 79 11.5t71.5 34.5t53.5 65t20 96v258q0 93 -66 148t-166 55
q-89 0 -154 -51t-65 -156v-260q0 -93 64 -147t163 -54zM1153 1049l31 411h243l-100 -411h-174z" />
    <glyph glyph-name="Dcroat" unicode="&#x110;" horiz-adv-x="1437" 
d="M55 647v187h127v626h570q159 0 289 -64t208 -186.5t78 -281.5v-389q0 -101 -32 -188.5t-87 -151t-127.5 -109t-156 -68t-170.5 -22.5h-572v647h-127zM455 240h288q44 0 86.5 9t84 30.5t73 53t51 80.5t19.5 109v422q0 127 -94.5 202t-229.5 75h-278v-387h342v-187h-342
v-407z" />
    <glyph glyph-name="dcroat" unicode="&#x111;" horiz-adv-x="1210" 
d="M618 1182v147h173v131h249v-131h125v-147h-125v-1182h-243v117h-2q-43 -59 -132 -100.5t-163 -41.5q-179 0 -296.5 110t-117.5 304v254q0 104 34.5 186.5t94.5 134t137 78.5t166 27q83 0 153 -36.5t113 -92.5h7v242h-173zM567 190q41 0 79 11.5t71.5 34.5t53.5 65t20 96
v258q0 93 -66 148t-166 55q-89 0 -154 -51t-65 -156v-260q0 -93 64 -147t163 -54z" />
    <glyph glyph-name="Emacron" unicode="&#x112;" horiz-adv-x="1280" 
d="M147 0v1460h1014v-239h-741v-357h657v-239h-657v-385h749v-240h-1022zM383 1608v209h567v-209h-567z" />
    <glyph glyph-name="emacron" unicode="&#x113;" horiz-adv-x="1110" 
d="M575 -25q-98 0 -185.5 27t-155.5 78.5t-108 135t-40 187.5v205q0 108 38.5 196t104.5 145t153 87.5t185 30.5q87 0 167 -26t144.5 -75t103 -129.5t38.5 -181.5v-202h-674v-58q0 -97 69.5 -154t172.5 -57q62 0 123.5 37t103.5 98l193 -110q-59 -118 -173.5 -176
t-259.5 -58zM346 627h424v28q0 100 -59 150.5t-144 50.5q-91 0 -156 -53t-65 -162v-14zM270 1225v209h568v-209h-568z" />
    <glyph glyph-name="Ebreve" unicode="&#x114;" horiz-adv-x="1280" 
d="M147 0v1460h1014v-239h-741v-357h657v-239h-657v-385h749v-240h-1022zM639 1595q-147 0 -243 95t-97 254h178q11 -83 54.5 -133t115.5 -50q68 0 113.5 45.5t48.5 137.5h170q-1 -85 -29.5 -153.5t-77 -110t-108 -63.5t-125.5 -22z" />
    <glyph glyph-name="ebreve" unicode="&#x115;" horiz-adv-x="1110" 
d="M575 -25q-98 0 -185.5 27t-155.5 78.5t-108 135t-40 187.5v205q0 108 38.5 196t104.5 145t153 87.5t185 30.5q87 0 167 -26t144.5 -75t103 -129.5t38.5 -181.5v-202h-674v-58q0 -97 69.5 -154t172.5 -57q62 0 123.5 37t103.5 98l193 -110q-59 -118 -173.5 -176
t-259.5 -58zM346 627h424v28q0 100 -59 150.5t-144 50.5q-91 0 -156 -53t-65 -162v-14zM555 1212q-147 0 -243 95t-97 254h178q11 -83 54.5 -133t115.5 -50q68 0 113.5 45.5t48.5 137.5h170q-1 -85 -29.5 -153.5t-77 -110t-108 -63.5t-125.5 -22z" />
    <glyph glyph-name="Edotaccent" unicode="&#x116;" horiz-adv-x="1280" 
d="M147 0v1460h1014v-239h-741v-357h657v-239h-657v-385h749v-240h-1022zM537 1589v269h243v-269h-243z" />
    <glyph glyph-name="edotaccent" unicode="&#x117;" horiz-adv-x="1110" 
d="M575 -25q-98 0 -185.5 27t-155.5 78.5t-108 135t-40 187.5v205q0 108 38.5 196t104.5 145t153 87.5t185 30.5q87 0 167 -26t144.5 -75t103 -129.5t38.5 -181.5v-202h-674v-58q0 -97 69.5 -154t172.5 -57q62 0 123.5 37t103.5 98l193 -110q-59 -118 -173.5 -176
t-259.5 -58zM346 627h424v28q0 100 -59 150.5t-144 50.5q-91 0 -156 -53t-65 -162v-14zM432 1206v269h244v-269h-244z" />
    <glyph glyph-name="Eogonek" unicode="&#x118;" horiz-adv-x="1280" 
d="M147 0v1460h1014v-239h-741v-357h657v-239h-657v-385h749v-240h-2q-112 -19 -167.5 -66.5t-55.5 -103.5q0 -90 103 -90q69 0 133 39l94 -135q-105 -88 -252 -88q-72 0 -132.5 24.5t-100 78t-39.5 128.5q0 129 112 213h-715z" />
    <glyph glyph-name="eogonek" unicode="&#x119;" horiz-adv-x="1110" 
d="M715 -444q-72 0 -132.5 24.5t-100.5 78t-40 128.5q0 110 86 190q-91 6 -170 36t-140 81.5t-96.5 131t-35.5 177.5v205q0 108 38.5 196t104.5 145t153 87.5t185 30.5q87 0 167 -26t144.5 -75t103 -129.5t38.5 -181.5v-202h-674v-58q0 -97 69.5 -154t172.5 -57
q62 0 123.5 37t103.5 98l193 -110q-71 -143 -226 -199q-70 -26 -107.5 -78t-37.5 -102q0 -90 102 -90q69 0 133 39l95 -135q-105 -88 -252 -88zM346 627h424v28q0 100 -59 150.5t-144 50.5q-91 0 -156 -53t-65 -162v-14z" />
    <glyph glyph-name="Ecaron" unicode="&#x11a;" horiz-adv-x="1280" 
d="M147 0v1460h1014v-239h-741v-357h657v-239h-657v-385h749v-240h-1022zM518 1599l-215 357h234l98 -205l110 205h230l-223 -357h-234z" />
    <glyph glyph-name="ecaron" unicode="&#x11b;" horiz-adv-x="1110" 
d="M575 -25q-98 0 -185.5 27t-155.5 78.5t-108 135t-40 187.5v205q0 108 38.5 196t104.5 145t153 87.5t185 30.5q87 0 167 -26t144.5 -75t103 -129.5t38.5 -181.5v-202h-674v-58q0 -97 69.5 -154t172.5 -57q62 0 123.5 37t103.5 98l193 -110q-59 -118 -173.5 -176
t-259.5 -58zM346 627h424v28q0 100 -59 150.5t-144 50.5q-91 0 -156 -53t-65 -162v-14zM434 1217l-215 356h234l98 -205l111 205h229l-223 -356h-234z" />
    <glyph glyph-name="Gcircumflex" unicode="&#x11c;" horiz-adv-x="1361" 
d="M705 -25q-120 0 -226.5 33.5t-189 95.5t-130.5 159t-48 216v467q0 168 80 292t210.5 185.5t292.5 61.5q86 0 165.5 -16.5t151 -53t124.5 -89.5t84.5 -131t31.5 -173v-45h-258v20q0 68 -27.5 118t-73 76.5t-95 39t-103.5 12.5q-56 0 -108.5 -15.5t-99.5 -46.5t-76 -88
t-29 -132v-467q0 -127 94.5 -202t229.5 -75q126 0 207 65t81 199v35h-377v246h635v-305q0 -95 -30 -175t-82 -136t-121.5 -95t-148.5 -57.5t-164 -18.5zM344 1599l223 357h234l215 -357h-234l-98 205l-111 -205h-229z" />
    <glyph glyph-name="gcircumflex" unicode="&#x11d;" horiz-adv-x="1157" 
d="M528 -403q-89 0 -174 26.5t-156 85.5t-96 141l238 84q70 -137 211 -137q112 0 173.5 66t61.5 178v111h-4q-102 -138 -280 -138q-194 0 -305 107t-111 305v201q0 207 116 324.5t296 117.5q89 0 167 -41t121 -104h5v125h237v-961q0 -76 -17 -145t-55.5 -133t-95 -110.5
t-142 -74.5t-190.5 -28zM567 213q89 0 154 51t65 156v233q0 93 -64 147t-163 54q-89 0 -154 -51t-65 -156v-231q0 -93 64 -148t163 -55zM242 1217l223 356h233l215 -356h-233l-98 204l-111 -204h-229z" />
    <glyph glyph-name="Gbreve" unicode="&#x11e;" horiz-adv-x="1361" 
d="M705 -25q-120 0 -226.5 33.5t-189 95.5t-130.5 159t-48 216v467q0 168 80 292t210.5 185.5t292.5 61.5q86 0 165.5 -16.5t151 -53t124.5 -89.5t84.5 -131t31.5 -173v-45h-258v20q0 68 -27.5 118t-73 76.5t-95 39t-103.5 12.5q-56 0 -108.5 -15.5t-99.5 -46.5t-76 -88
t-29 -132v-467q0 -127 94.5 -202t229.5 -75q126 0 207 65t81 199v35h-377v246h635v-305q0 -95 -30 -175t-82 -136t-121.5 -95t-148.5 -57.5t-164 -18.5zM680 1595q-147 0 -243 95t-97 254h178q11 -83 54.5 -133t115.5 -50q68 0 113.5 45.5t48.5 137.5h170
q-1 -85 -29.5 -153.5t-77 -110t-108 -63.5t-125.5 -22z" />
    <glyph glyph-name="gbreve" unicode="&#x11f;" horiz-adv-x="1157" 
d="M528 -403q-89 0 -174 26.5t-156 85.5t-96 141l238 84q70 -137 211 -137q112 0 173.5 66t61.5 178v111h-4q-102 -138 -280 -138q-194 0 -305 107t-111 305v201q0 207 116 324.5t296 117.5q89 0 167 -41t121 -104h5v125h237v-961q0 -76 -17 -145t-55.5 -133t-95 -110.5
t-142 -74.5t-190.5 -28zM567 213q89 0 154 51t65 156v233q0 93 -64 147t-163 54q-89 0 -154 -51t-65 -156v-231q0 -93 64 -148t163 -55zM578 1212q-147 0 -243 95t-97 254h178q11 -83 54.5 -133t115.5 -50q68 0 113.5 45.5t48.5 137.5h170q-1 -85 -29.5 -153.5t-77 -110
t-108 -63.5t-125.5 -22z" />
    <glyph glyph-name="Gdotaccent" unicode="&#x120;" horiz-adv-x="1361" 
d="M705 -25q-120 0 -226.5 33.5t-189 95.5t-130.5 159t-48 216v467q0 168 80 292t210.5 185.5t292.5 61.5q86 0 165.5 -16.5t151 -53t124.5 -89.5t84.5 -131t31.5 -173v-45h-258v20q0 68 -27.5 118t-73 76.5t-95 39t-103.5 12.5q-56 0 -108.5 -15.5t-99.5 -46.5t-76 -88
t-29 -132v-467q0 -127 94.5 -202t229.5 -75q126 0 207 65t81 199v35h-377v246h635v-305q0 -95 -30 -175t-82 -136t-121.5 -95t-148.5 -57.5t-164 -18.5zM559 1589v269h244v-269h-244z" />
    <glyph glyph-name="gdotaccent" unicode="&#x121;" horiz-adv-x="1157" 
d="M528 -403q-89 0 -174 26.5t-156 85.5t-96 141l238 84q70 -137 211 -137q112 0 173.5 66t61.5 178v111h-4q-102 -138 -280 -138q-194 0 -305 107t-111 305v201q0 207 116 324.5t296 117.5q89 0 167 -41t121 -104h5v125h237v-961q0 -76 -17 -145t-55.5 -133t-95 -110.5
t-142 -74.5t-190.5 -28zM567 213q89 0 154 51t65 156v233q0 93 -64 147t-163 54q-89 0 -154 -51t-65 -156v-231q0 -93 64 -148t163 -55zM457 1206v269h243v-269h-243z" />
    <glyph glyph-name="Gcommaaccent" unicode="&#x122;" horiz-adv-x="1361" 
d="M705 -25q-120 0 -226.5 33.5t-189 95.5t-130.5 159t-48 216v467q0 168 80 292t210.5 185.5t292.5 61.5q86 0 165.5 -16.5t151 -53t124.5 -89.5t84.5 -131t31.5 -173v-45h-258v20q0 68 -27.5 118t-73 76.5t-95 39t-103.5 12.5q-56 0 -108.5 -15.5t-99.5 -46.5t-76 -88
t-29 -132v-467q0 -127 94.5 -202t229.5 -75q126 0 207 65t81 199v35h-377v246h635v-305q0 -95 -30 -175t-82 -136t-121.5 -95t-148.5 -57.5t-164 -18.5zM543 -395l24 327h271l-82 -327h-213z" />
    <glyph glyph-name="gcommaaccent" unicode="&#x123;" horiz-adv-x="1157" 
d="M528 -403q-89 0 -174 26.5t-156 85.5t-96 141l238 84q70 -137 211 -137q112 0 173.5 66t61.5 178v111h-4q-102 -138 -280 -138q-194 0 -305 107t-111 305v201q0 207 116 324.5t296 117.5q89 0 167 -41t121 -104h5v125h237v-961q0 -76 -17 -145t-55.5 -133t-95 -110.5
t-142 -74.5t-190.5 -28zM567 213q89 0 154 51t65 156v233q0 93 -64 147t-163 54q-89 0 -154 -51t-65 -156v-231q0 -93 64 -148t163 -55zM403 1214v146l84 211h138l-39 -152h88v-205h-271z" />
    <glyph glyph-name="Hcircumflex" unicode="&#x124;" horiz-adv-x="1423" 
d="M147 0v1460h273v-596h584v596h272v-1460h-272v625h-584v-625h-273zM375 1599l223 357h233l216 -357h-234l-98 205l-111 -205h-229z" />
    <glyph glyph-name="hcircumflex" unicode="&#x125;" horiz-adv-x="1169" 
d="M135 0v1460h250v-540h6q51 73 127.5 111t161.5 38q176 0 271.5 -104.5t95.5 -292.5v-672h-250v608q0 118 -50 180t-145 62q-105 0 -161 -65.5t-56 -196.5v-588h-250zM-70 1540l224 356h233l215 -356h-233l-99 205l-110 -205h-230z" />
    <glyph glyph-name="Hbar" unicode="&#x126;" horiz-adv-x="1505" 
d="M45 1102v170h143v188h273v-188h583v188h273v-188h143v-170h-143v-1102h-273v625h-583v-625h-273v1102h-143zM461 864h583v238h-583v-238z" />
    <glyph glyph-name="hbar" unicode="&#x127;" horiz-adv-x="1193" 
d="M35 1182v147h125v131h250v-131h172v-147h-172v-262h6q51 73 127.5 111t161.5 38q176 0 271 -104t95 -293v-672h-250v608q0 119 -49.5 180.5t-144.5 61.5q-105 0 -161 -65.5t-56 -196.5v-588h-250v1182h-125z" />
    <glyph glyph-name="Itilde" unicode="&#x128;" horiz-adv-x="567" 
d="M147 0v1460h273v-1460h-273zM35 1583l-162 35q23 120 86.5 193t163.5 73q59 0 167 -31.5t165 -31.5q37 0 54 23.5t28 68.5l157 -35q-20 -120 -80 -193t-157 -73q-59 0 -170 31.5t-168 31.5q-27 0 -42.5 -16.5t-41.5 -75.5z" />
    <glyph glyph-name="itilde" unicode="&#x129;" horiz-adv-x="520" 
d="M135 0v1049h250v-1049h-250zM12 1200l-162 35q23 120 86.5 193t163.5 73q59 0 167 -31.5t165 -31.5q37 0 54 23.5t28 68.5l158 -35q-20 -120 -80.5 -193t-157.5 -73q-59 0 -170 31.5t-168 31.5q-27 0 -42.5 -16.5t-41.5 -75.5z" />
    <glyph glyph-name="Imacron" unicode="&#x12a;" horiz-adv-x="567" 
d="M147 0v1460h273v-1460h-273zM0 1608v209h567v-209h-567z" />
    <glyph glyph-name="imacron" unicode="&#x12b;" horiz-adv-x="520" 
d="M135 0v1049h250v-1049h-250zM-23 1225v209h568v-209h-568z" />
    <glyph glyph-name="Ibreve" unicode="&#x12c;" horiz-adv-x="567" 
d="M147 0v1460h273v-1460h-273zM285 1595q-147 0 -243 95t-97 254h178q11 -83 54.5 -133t115.5 -50q68 0 113.5 45.5t48.5 137.5h170q-1 -85 -29.5 -153.5t-77 -110t-108 -63.5t-125.5 -22z" />
    <glyph glyph-name="ibreve" unicode="&#x12d;" horiz-adv-x="520" 
d="M135 0v1049h250v-1049h-250zM260 1212q-147 0 -243 95t-97 254h178q11 -83 54.5 -133t115.5 -50q68 0 113.5 45.5t48.5 137.5h170q-1 -85 -29.5 -153.5t-77 -110t-108 -63.5t-125.5 -22z" />
    <glyph glyph-name="Iogonek" unicode="&#x12e;" horiz-adv-x="567" 
d="M291 -444q-72 0 -132.5 24.5t-100.5 78t-40 128.5q0 151 129 233v1440h273v-1460h-4q-110 -19 -156.5 -65t-46.5 -105q0 -90 102 -90q70 0 134 39l94 -135q-105 -88 -252 -88z" />
    <glyph glyph-name="iogonek" unicode="&#x12f;" horiz-adv-x="520" 
d="M260 -444q-72 0 -132.5 24.5t-100 78t-39.5 128.5q0 159 147 246v1016h250v-1049q-110 -19 -156.5 -65t-46.5 -105q0 -90 103 -90q69 0 133 39l94 -135q-105 -88 -252 -88zM135 1208v267h250v-267h-250z" />
    <glyph glyph-name="Idotaccent" unicode="&#x130;" horiz-adv-x="567" 
d="M147 0v1460h273v-1460h-273zM162 1589v269h244v-269h-244z" />
    <glyph glyph-name="dotlessi" unicode="&#x131;" horiz-adv-x="520" 
d="M135 0v1049h250v-1049h-250z" />
    <glyph glyph-name="IJ" unicode="&#x132;" horiz-adv-x="1718" 
d="M147 0v1460h273v-1460h-273zM1083 -2q-239 0 -371 117t-132 358v94h272v-71q0 -50 9 -89.5t33.5 -79t76 -61.5t127.5 -22q101 0 157 78.5t56 197.5v961h272v-1004q0 -91 -35 -176.5t-97 -153t-158.5 -108.5t-209.5 -41z" />
    <glyph glyph-name="ij" unicode="&#x133;" horiz-adv-x="999" 
d="M135 0v1049h250v-1049h-250zM135 1208v267h250v-267h-250zM524 -395q-34 0 -88 6v213q46 -4 72 -4q104 0 104 104v1125h250v-1139q0 -305 -338 -305zM614 1208v267h250v-267h-250z" />
    <glyph glyph-name="Jcircumflex" unicode="&#x134;" horiz-adv-x="1228" 
d="M594 -23q-239 0 -371.5 117.5t-132.5 358.5v94h272v-72q0 -50 9 -89.5t33.5 -79t76 -61.5t127.5 -22q101 0 157 79t56 198v960h273v-1003q0 -91 -35 -176.5t-97 -153.5t-158.5 -109t-209.5 -41zM565 1599l223 357h234l215 -357h-233l-99 205l-110 -205h-230z" />
    <glyph glyph-name="jcircumflex" unicode="&#x135;" horiz-adv-x="548" 
d="M61 -395q-34 0 -88 6v213q46 -4 72 -4q105 0 105 104v1125h249v-1139q0 -305 -338 -305zM-61 1217l223 356h233l215 -356h-233l-98 204l-111 -204h-229z" />
    <glyph glyph-name="Kcommaaccent" unicode="&#x136;" horiz-adv-x="1404" 
d="M147 0v1460h273v-678l588 678h331l-520 -575l572 -885h-318l-434 686l-219 -227v-459h-273zM569 -395l25 327h270l-82 -327h-213z" />
    <glyph glyph-name="kcommaaccent" unicode="&#x137;" horiz-adv-x="1118" 
d="M137 0v1460h250l2 -844l383 433h297l-375 -396l391 -653h-280l-281 479l-137 -147v-332h-250zM406 -395l24 327h270l-82 -327h-212z" />
    <glyph glyph-name="kgreenlandic" unicode="&#x138;" horiz-adv-x="1118" 
d="M137 0v1049h250l2 -433l383 433h297l-375 -396l391 -653h-280l-281 479l-137 -147v-332h-250z" />
    <glyph glyph-name="Lacute" unicode="&#x139;" horiz-adv-x="1183" 
d="M147 0v1460h273v-1220h710v-240h-983zM229 1597l174 357h285l-264 -357h-195z" />
    <glyph glyph-name="lacute" unicode="&#x13a;" horiz-adv-x="630" 
d="M389 -14q-51 0 -92 12t-67 29.5t-45 45.5t-28.5 52t-14.5 57t-6 52.5t-1 46.5v1179h250v-1177q0 -86 90 -86q25 0 115 8v-191q-106 -28 -201 -28zM186 1556l174 357h285l-264 -357h-195z" />
    <glyph glyph-name="Lcommaaccent" unicode="&#x13b;" horiz-adv-x="1183" 
d="M147 0v1460h273v-1220h710v-240h-983zM469 -395l25 327h270l-82 -327h-213z" />
    <glyph glyph-name="lcommaaccent" unicode="&#x13c;" horiz-adv-x="630" 
d="M389 -14q-51 0 -92 12t-67 29.5t-45 45.5t-28.5 52t-14.5 57t-6 52.5t-1 46.5v1179h250v-1177q0 -86 90 -86q25 0 115 8v-191q-106 -28 -201 -28zM162 -395l24 327h271l-82 -327h-213z" />
    <glyph glyph-name="Lcaron" unicode="&#x13d;" horiz-adv-x="1183" 
d="M147 0v1460h273v-1220h710v-240h-983zM553 1049l31 411h243l-100 -411h-174z" />
    <glyph glyph-name="lcaron" unicode="&#x13e;" horiz-adv-x="630" 
d="M389 -14q-51 0 -92 12t-67 29.5t-45 45.5t-28.5 52t-14.5 57t-6 52.5t-1 46.5v1179h250v-1177q0 -86 90 -86q25 0 115 8v-191q-106 -28 -201 -28zM498 1049l30 411h244l-100 -411h-174z" />
    <glyph glyph-name="Ldot" unicode="&#x13f;" horiz-adv-x="1183" 
d="M147 0v1460h273v-1220h710v-240h-983zM621 702v289h256v-289h-256z" />
    <glyph glyph-name="ldot" unicode="&#x140;" horiz-adv-x="747" 
d="M389 -14q-51 0 -92 12t-67 29.5t-45 45.5t-28.5 52t-14.5 57t-6 52.5t-1 46.5v1179h250v-1177q0 -86 90 -86q25 0 115 8v-191q-106 -28 -201 -28zM510 682v268h244v-268h-244z" />
    <glyph glyph-name="Lslash" unicode="&#x141;" horiz-adv-x="1206" 
d="M55 440v215l115 78v727h272v-538l207 143v-215l-207 -143v-467h711v-240h-983v518z" />
    <glyph glyph-name="lslash" unicode="&#x142;" horiz-adv-x="661" 
d="M55 444v193l111 86v737h250v-542l164 129v-193l-164 -129v-442q0 -86 90 -86q25 0 115 8v-191q-106 -28 -201 -28q-51 0 -92 12t-67 29.5t-45 45.5t-28.5 52t-14.5 57t-6 52.5t-1 46.5v249z" />
    <glyph glyph-name="Nacute" unicode="&#x143;" horiz-adv-x="1460" 
d="M147 0v1460h265l635 -995h4v995h262v-1460h-266l-633 997h-4v-997h-263zM633 1597l174 357h285l-265 -357h-194z" />
    <glyph glyph-name="nacute" unicode="&#x144;" horiz-adv-x="1169" 
d="M135 0v1049h244v-129h4q51 73 129 111t168 38q176 0 271.5 -104.5t95.5 -292.5v-672h-250v608q0 118 -50 180t-145 62q-105 0 -161 -65.5t-56 -196.5v-588h-250zM494 1214l174 357h284l-264 -357h-194z" />
    <glyph glyph-name="Ncommaaccent" unicode="&#x145;" horiz-adv-x="1460" 
d="M147 0v1460h265l635 -995h4v995h262v-1460h-266l-633 997h-4v-997h-263zM563 -395l25 327h270l-82 -327h-213z" />
    <glyph glyph-name="ncommaaccent" unicode="&#x146;" horiz-adv-x="1169" 
d="M135 0v1049h244v-129h4q51 73 129 111t168 38q176 0 271.5 -104.5t95.5 -292.5v-672h-250v608q0 118 -50 180t-145 62q-105 0 -161 -65.5t-56 -196.5v-588h-250zM432 -395l25 327h270l-82 -327h-213z" />
    <glyph glyph-name="Ncaron" unicode="&#x147;" horiz-adv-x="1460" 
d="M147 0v1460h265l635 -995h4v995h262v-1460h-266l-633 997h-4v-997h-263zM608 1599l-215 357h234l98 -205l111 205h229l-223 -357h-234z" />
    <glyph glyph-name="ncaron" unicode="&#x148;" horiz-adv-x="1169" 
d="M135 0v1049h244v-129h4q51 73 129 111t168 38q176 0 271.5 -104.5t95.5 -292.5v-672h-250v608q0 118 -50 180t-145 62q-105 0 -161 -65.5t-56 -196.5v-588h-250zM506 1217l-215 356h233l99 -205l110 205h230l-224 -356h-233z" />
    <glyph glyph-name="Eng" unicode="&#x14a;" horiz-adv-x="1460" 
d="M975 -395q-34 0 -88 6v213q46 -4 71 -4q105 0 105 104v49l-649 1024h-4v-997h-263v1460h265l635 -995h4v995h262v-1550q0 -305 -338 -305z" />
    <glyph glyph-name="eng" unicode="&#x14b;" horiz-adv-x="1169" 
d="M709 -395q-34 0 -88 6v213q46 -4 71 -4q105 0 105 104v684q0 118 -50 180t-145 62q-105 0 -161 -65.5t-56 -196.5v-588h-250v1049h244v-129h4q51 73 129 111t168 38q176 0 271.5 -104.5t95.5 -292.5v-762q0 -305 -338 -305z" />
    <glyph glyph-name="Omacron" unicode="&#x14c;" horiz-adv-x="1398" 
d="M705 -25q-120 0 -226.5 33.5t-189 95.5t-130.5 159t-48 216v467q0 101 33 188.5t89 151t130.5 109t159 68t171.5 22.5q119 0 226.5 -38t189 -105.5t130 -169t48.5 -220.5v-438q0 -101 -33 -188.5t-89 -151t-130.5 -109t-159 -68t-171.5 -22.5zM705 217q55 0 108 15.5
t100 47t76 88.5t29 132v467q0 127 -94.5 201.5t-229.5 74.5q-56 0 -108.5 -15.5t-99.5 -46.5t-76 -88t-29 -132v-467q0 -127 94.5 -202t229.5 -75zM416 1608v209h567v-209h-567z" />
    <glyph glyph-name="omacron" unicode="&#x14d;" horiz-adv-x="1126" 
d="M567 -25q-130 0 -237.5 46t-175.5 141.5t-68 224.5v240q0 83 27 155t73 123.5t106.5 88.5t128.5 55t138 18q128 0 237 -52t176.5 -153t67.5 -231v-215q0 -103 -41 -188.5t-109 -139.5t-151.5 -83.5t-171.5 -29.5zM567 186q89 0 154 51t65 156v260q0 93 -64 147t-163 54
q-89 0 -154 -51t-65 -156v-258q0 -93 64 -148t163 -55zM279 1225v209h567v-209h-567z" />
    <glyph glyph-name="Obreve" unicode="&#x14e;" horiz-adv-x="1398" 
d="M705 -25q-120 0 -226.5 33.5t-189 95.5t-130.5 159t-48 216v467q0 101 33 188.5t89 151t130.5 109t159 68t171.5 22.5q119 0 226.5 -38t189 -105.5t130 -169t48.5 -220.5v-438q0 -101 -33 -188.5t-89 -151t-130.5 -109t-159 -68t-171.5 -22.5zM705 217q55 0 108 15.5
t100 47t76 88.5t29 132v467q0 127 -94.5 201.5t-229.5 74.5q-56 0 -108.5 -15.5t-99.5 -46.5t-76 -88t-29 -132v-467q0 -127 94.5 -202t229.5 -75zM698 1595q-147 0 -243 95t-97 254h179q11 -83 54.5 -133t115.5 -50q68 0 113 45.5t48 137.5h170q-1 -85 -29.5 -153.5
t-77 -110t-108 -63.5t-125.5 -22z" />
    <glyph glyph-name="obreve" unicode="&#x14f;" horiz-adv-x="1126" 
d="M567 -25q-130 0 -237.5 46t-175.5 141.5t-68 224.5v240q0 83 27 155t73 123.5t106.5 88.5t128.5 55t138 18q128 0 237 -52t176.5 -153t67.5 -231v-215q0 -103 -41 -188.5t-109 -139.5t-151.5 -83.5t-171.5 -29.5zM567 186q89 0 154 51t65 156v260q0 93 -64 147t-163 54
q-89 0 -154 -51t-65 -156v-258q0 -93 64 -148t163 -55zM563 1212q-147 0 -243 95t-97 254h178q11 -83 54.5 -133t115.5 -50q68 0 113.5 45.5t48.5 137.5h170q-1 -85 -29.5 -153.5t-77 -110t-108 -63.5t-125.5 -22z" />
    <glyph glyph-name="Ohungarumlaut" unicode="&#x150;" horiz-adv-x="1398" 
d="M705 -25q-120 0 -226.5 33.5t-189 95.5t-130.5 159t-48 216v467q0 101 33 188.5t89 151t130.5 109t159 68t171.5 22.5q119 0 226.5 -38t189 -105.5t130 -169t48.5 -220.5v-438q0 -101 -33 -188.5t-89 -151t-130.5 -109t-159 -68t-171.5 -22.5zM705 217q55 0 108 15.5
t100 47t76 88.5t29 132v467q0 127 -94.5 201.5t-229.5 74.5q-56 0 -108.5 -15.5t-99.5 -46.5t-76 -88t-29 -132v-467q0 -127 94.5 -202t229.5 -75zM362 1599l97 322h278l-186 -322h-189zM745 1599l99 322h278l-186 -322h-191z" />
    <glyph glyph-name="ohungarumlaut" unicode="&#x151;" horiz-adv-x="1126" 
d="M567 -25q-130 0 -237.5 46t-175.5 141.5t-68 224.5v240q0 83 27 155t73 123.5t106.5 88.5t128.5 55t138 18q128 0 237 -52t176.5 -153t67.5 -231v-215q0 -103 -41 -188.5t-109 -139.5t-151.5 -83.5t-171.5 -29.5zM567 186q89 0 154 51t65 156v260q0 93 -64 147t-163 54
q-89 0 -154 -51t-65 -156v-258q0 -93 64 -148t163 -55zM252 1217l96 321h279l-187 -321h-188zM635 1217l98 321h279l-187 -321h-190z" />
    <glyph glyph-name="OE" unicode="&#x152;" horiz-adv-x="2150" 
d="M684 -25q-161 0 -289 57t-206 173t-78 274v467q0 126 47 229.5t126 170t179.5 103t210.5 36.5q91 0 184 -21.5t164 -60.5v57h1010v-239h-742v-357h658v-239h-658v-385h750v-240h-1018v57q-70 -39 -161.5 -60.5t-176.5 -21.5zM705 217q55 0 108 15.5t100 47t76 88.5
t29 132v467q0 127 -94.5 201.5t-229.5 74.5q-56 0 -108.5 -15.5t-99.5 -46.5t-76 -88t-29 -132v-467q0 -127 94.5 -202t229.5 -75z" />
    <glyph glyph-name="oe" unicode="&#x153;" horiz-adv-x="1810" 
d="M567 -25q-130 0 -237.5 46t-175.5 141.5t-68 224.5v240q0 83 27 155t73 123.5t106.5 88.5t128.5 55t138 18q102 0 194.5 -34.5t159.5 -98.5q66 64 158 98.5t197 34.5q87 0 166.5 -26t144 -75t103 -129.5t38.5 -181.5v-202h-673v-58q0 -97 69 -154t172 -57q62 0 124 37
t104 98l194 -106q-134 -238 -434 -238q-108 0 -204.5 33t-162.5 96q-68 -62 -158 -95.5t-184 -33.5zM567 186q89 0 154 51t65 156v260q0 93 -64 147t-163 54q-89 0 -154 -51t-65 -156v-258q0 -93 64 -148t163 -55zM1047 627h423v28q0 100 -58.5 150.5t-143.5 50.5
q-91 0 -156 -53t-65 -162v-14z" />
    <glyph glyph-name="Racute" unicode="&#x154;" horiz-adv-x="1333" 
d="M147 0v1460h578q139 0 250 -51.5t178.5 -157t67.5 -250.5q0 -139 -74 -256t-215 -167l362 -578h-297l-342 547h-235v-547h-273zM420 776h272q122 0 192 58.5t70 169.5q0 227 -266 227h-268v-455zM557 1597l174 357h285l-264 -357h-195z" />
    <glyph glyph-name="racute" unicode="&#x155;" horiz-adv-x="833" 
d="M123 0v1049h244v-175h4q45 82 146 138.5t196 56.5q57 0 84 -6v-229q-33 6 -95 6q-145 0 -237 -80.5t-92 -222.5v-537h-250zM317 1214l175 357h284l-264 -357h-195z" />
    <glyph glyph-name="Rcommaaccent" unicode="&#x156;" horiz-adv-x="1333" 
d="M147 0v1460h578q139 0 250 -51.5t178.5 -157t67.5 -250.5q0 -139 -74 -256t-215 -167l362 -578h-297l-342 547h-235v-547h-273zM420 776h272q122 0 192 58.5t70 169.5q0 227 -266 227h-268v-455zM528 -395l25 327h270l-82 -327h-213z" />
    <glyph glyph-name="rcommaaccent" unicode="&#x157;" horiz-adv-x="833" 
d="M123 0v1049h244v-175h4q45 82 146 138.5t196 56.5q57 0 84 -6v-229q-33 6 -95 6q-145 0 -237 -80.5t-92 -222.5v-537h-250zM90 -395l25 327h270l-82 -327h-213z" />
    <glyph glyph-name="Rcaron" unicode="&#x158;" horiz-adv-x="1333" 
d="M147 0v1460h578q139 0 250 -51.5t178.5 -157t67.5 -250.5q0 -139 -74 -256t-215 -167l362 -578h-297l-342 547h-235v-547h-273zM420 776h272q122 0 192 58.5t70 169.5q0 227 -266 227h-268v-455zM545 1599l-215 357h233l99 -205l110 205h229l-223 -357h-233z" />
    <glyph glyph-name="rcaron" unicode="&#x159;" horiz-adv-x="833" 
d="M123 0v1049h244v-175h4q45 82 146 138.5t196 56.5q57 0 84 -6v-229q-33 6 -95 6q-145 0 -237 -80.5t-92 -222.5v-537h-250zM295 1217l-215 356h233l99 -205l110 205h230l-224 -356h-233z" />
    <glyph glyph-name="Sacute" unicode="&#x15a;" horiz-adv-x="1282" 
d="M635 -23q-138 0 -255 37.5t-207.5 120.5t-127.5 203l246 96q41 -105 134.5 -163t217.5 -58q121 0 204 49t83 144q0 76 -52.5 119t-148.5 71l-246 59q-63 16 -111.5 35t-95 51t-77 73t-48.5 101.5t-18 135.5q0 133 72 233t189.5 150.5t260.5 50.5q191 0 318.5 -70
t195.5 -229l-223 -99q-86 168 -313 168q-98 0 -166 -46t-68 -138q0 -70 56.5 -111.5t156.5 -68.5l250 -62q334 -79 334 -405q0 -199 -158.5 -323t-402.5 -124zM549 1597l174 357h285l-265 -357h-194z" />
    <glyph glyph-name="sacute" unicode="&#x15b;" horiz-adv-x="1069" 
d="M535 -23q-332 0 -469 203l176 133q50 -65 125 -101t163 -36q86 0 146.5 32t60.5 97q0 58 -41 81.5t-155 43.5l-138 25q-286 52 -286 272q0 158 120 251t295 93q146 0 247 -40.5t165 -131.5l-180 -123q-87 103 -234 103q-77 0 -123.5 -29.5t-46.5 -87.5q0 -25 11.5 -42
t43 -28.5t51.5 -16.5t72 -14q14 -3 21 -4l158 -30q135 -27 207.5 -101.5t72.5 -191.5q0 -70 -27.5 -129.5t-73 -101t-106 -70.5t-125 -42.5t-130.5 -13.5zM438 1214l174 357h285l-264 -357h-195z" />
    <glyph glyph-name="Scircumflex" unicode="&#x15c;" horiz-adv-x="1282" 
d="M635 -23q-138 0 -255 37.5t-207.5 120.5t-127.5 203l246 96q41 -105 134.5 -163t217.5 -58q121 0 204 49t83 144q0 76 -52.5 119t-148.5 71l-246 59q-63 16 -111.5 35t-95 51t-77 73t-48.5 101.5t-18 135.5q0 133 72 233t189.5 150.5t260.5 50.5q191 0 318.5 -70
t195.5 -229l-223 -99q-86 168 -313 168q-98 0 -166 -46t-68 -138q0 -70 56.5 -111.5t156.5 -68.5l250 -62q334 -79 334 -405q0 -199 -158.5 -323t-402.5 -124zM305 1599l223 357h234l215 -357h-234l-98 205l-110 -205h-230z" />
    <glyph glyph-name="scircumflex" unicode="&#x15d;" horiz-adv-x="1069" 
d="M535 -23q-332 0 -469 203l176 133q50 -65 125 -101t163 -36q86 0 146.5 32t60.5 97q0 58 -41 81.5t-155 43.5l-138 25q-286 52 -286 272q0 158 120 251t295 93q146 0 247 -40.5t165 -131.5l-180 -123q-87 103 -234 103q-77 0 -123.5 -29.5t-46.5 -87.5q0 -25 11.5 -42
t43 -28.5t51.5 -16.5t72 -14q14 -3 21 -4l158 -30q135 -27 207.5 -101.5t72.5 -191.5q0 -70 -27.5 -129.5t-73 -101t-106 -70.5t-125 -42.5t-130.5 -13.5zM199 1217l223 356h233l215 -356h-233l-98 204l-111 -204h-229z" />
    <glyph glyph-name="Scedilla" unicode="&#x15e;" horiz-adv-x="1282" 
d="M629 -444q-105 0 -201 38v127q109 -38 176 -38q62 0 89.5 16.5t27.5 56.5q0 19 -12.5 31.5t-41 17.5t-45 6.5t-53.5 2.5l-49 2l29 166q-183 16 -319 106.5t-185 249.5l246 96q41 -105 134.5 -163t217.5 -58q121 0 204 49t83 144q0 76 -52.5 119t-148.5 71l-246 59
q-63 16 -111.5 35t-95 51t-77 73t-48.5 101.5t-18 135.5q0 133 72 233t189.5 150.5t260.5 50.5q191 0 318.5 -70t195.5 -229l-223 -99q-86 168 -313 168q-98 0 -166 -46t-68 -138q0 -70 56.5 -111.5t156.5 -68.5l250 -62q334 -79 334 -405q0 -192 -149 -315t-381 -132
l-9 -47q261 -4 261 -174q0 -86 -78 -143t-211 -57z" />
    <glyph glyph-name="scedilla" unicode="&#x15f;" horiz-adv-x="1069" 
d="M535 -444q-105 0 -201 38v127q109 -38 176 -38q62 0 89.5 16.5t27.5 56.5q0 19 -12.5 31.5t-41 17.5t-45 6.5t-53.5 2.5l-49 2l29 166q-269 20 -389 198l176 133q50 -65 125 -101t163 -36q86 0 146.5 32t60.5 97q0 58 -41 81.5t-155 43.5l-138 25q-286 52 -286 272
q0 158 120 251t295 93q146 0 247 -40.5t165 -131.5l-180 -123q-87 103 -234 103q-77 0 -123.5 -29.5t-46.5 -87.5q0 -25 11.5 -42t43 -28.5t51.5 -16.5t72 -14q14 -3 21 -4l158 -30q135 -27 207.5 -101.5t72.5 -191.5q0 -82 -37.5 -149t-99 -109.5t-136 -66.5t-153.5 -29
l-8 -50q260 -4 260 -174q0 -86 -77.5 -143t-210.5 -57z" />
    <glyph glyph-name="Scaron" unicode="&#x160;" horiz-adv-x="1282" 
d="M635 -23q-138 0 -255 37.5t-207.5 120.5t-127.5 203l246 96q41 -105 134.5 -163t217.5 -58q121 0 204 49t83 144q0 76 -52.5 119t-148.5 71l-246 59q-63 16 -111.5 35t-95 51t-77 73t-48.5 101.5t-18 135.5q0 133 72 233t189.5 150.5t260.5 50.5q191 0 318.5 -70
t195.5 -229l-223 -99q-86 168 -313 168q-98 0 -166 -46t-68 -138q0 -70 56.5 -111.5t156.5 -68.5l250 -62q334 -79 334 -405q0 -199 -158.5 -323t-402.5 -124zM520 1599l-215 357h234l98 -205l111 205h229l-223 -357h-234z" />
    <glyph glyph-name="scaron" unicode="&#x161;" horiz-adv-x="1069" 
d="M535 -23q-332 0 -469 203l176 133q50 -65 125 -101t163 -36q86 0 146.5 32t60.5 97q0 58 -41 81.5t-155 43.5l-138 25q-286 52 -286 272q0 158 120 251t295 93q146 0 247 -40.5t165 -131.5l-180 -123q-87 103 -234 103q-77 0 -123.5 -29.5t-46.5 -87.5q0 -25 11.5 -42
t43 -28.5t51.5 -16.5t72 -14q14 -3 21 -4l158 -30q135 -27 207.5 -101.5t72.5 -191.5q0 -70 -27.5 -129.5t-73 -101t-106 -70.5t-125 -42.5t-130.5 -13.5zM414 1217l-215 356h233l98 -205l111 205h229l-223 -356h-233z" />
    <glyph glyph-name="Tcommaaccent" unicode="&#x162;" horiz-adv-x="1220" 
d="M475 0v1227h-420v233h1110v-233h-420v-1227h-270zM453 -395l24 327h271l-82 -327h-213z" />
    <glyph glyph-name="tcommaaccent" unicode="&#x163;" horiz-adv-x="679" 
d="M463 -16q-130 0 -211.5 65.5t-81.5 198.5v602h-141v199h141v317h250v-317h227v-199h-227v-543q0 -55 25.5 -77.5t72.5 -22.5q68 0 129 10v-213q-79 -20 -184 -20zM242 -395l24 327h271l-82 -327h-213z" />
    <glyph glyph-name="Tcaron" unicode="&#x164;" horiz-adv-x="1220" 
d="M475 0v1227h-420v233h1110v-233h-420v-1227h-270zM489 1599l-215 357h234l98 -205l111 205h229l-223 -357h-234z" />
    <glyph glyph-name="tcaron" unicode="&#x165;" horiz-adv-x="755" 
d="M530 1151l31 309h244l-100 -309h-175zM463 -16q-130 0 -211.5 65.5t-81.5 198.5v602h-141v199h141v317h250v-317h227v-199h-227v-543q0 -55 25.5 -77.5t72.5 -22.5q68 0 129 10v-213q-79 -20 -184 -20z" />
    <glyph glyph-name="Tbar" unicode="&#x166;" horiz-adv-x="1220" 
d="M240 621v170h235v436h-420v233h1110v-233h-420v-436h236v-170h-236v-621h-270v621h-235z" />
    <glyph glyph-name="tbar" unicode="&#x167;" horiz-adv-x="679" 
d="M68 512v147h102v191h-141v199h141v317h250v-317h227v-199h-227v-191h137v-147h-137v-205q0 -55 25.5 -77.5t72.5 -22.5q68 0 129 10v-213q-79 -20 -184 -20q-130 0 -211.5 65.5t-81.5 198.5v264h-102z" />
    <glyph glyph-name="Utilde" unicode="&#x168;" horiz-adv-x="1417" 
d="M709 -23q-262 0 -417 135.5t-155 391.5v956h273v-923q0 -143 73.5 -228.5t225.5 -85.5q299 0 299 314v923h272v-936q0 -257 -156 -402t-415 -145zM459 1583l-162 35q23 120 86.5 193t163.5 73q59 0 167 -31.5t165 -31.5q37 0 54 23.5t28 68.5l157 -35q-20 -120 -80 -193
t-157 -73q-59 0 -170 31.5t-168 31.5q-27 0 -42.5 -16.5t-41.5 -75.5z" />
    <glyph glyph-name="utilde" unicode="&#x169;" horiz-adv-x="1157" 
d="M492 -20q-176 0 -272.5 106t-96.5 293v670h250v-609q0 -118 50 -179.5t146 -61.5q104 0 159.5 66t55.5 198v586h250v-1049h-241v129h-7q-51 -74 -127.5 -111.5t-166.5 -37.5zM330 1200l-162 35q23 120 86.5 193t163.5 73q59 0 167 -31.5t165 -31.5q26 0 43 14.5t23.5 31
t14.5 46.5l158 -35q-20 -120 -80 -193t-157 -73q-59 0 -170 31.5t-168 31.5q-27 0 -42.5 -16.5t-41.5 -75.5z" />
    <glyph glyph-name="Umacron" unicode="&#x16a;" horiz-adv-x="1417" 
d="M709 -23q-262 0 -417 135.5t-155 391.5v956h273v-923q0 -143 73.5 -228.5t225.5 -85.5q299 0 299 314v923h272v-936q0 -257 -156 -402t-415 -145zM424 1608v209h567v-209h-567z" />
    <glyph glyph-name="umacron" unicode="&#x16b;" horiz-adv-x="1157" 
d="M492 -20q-176 0 -272.5 106t-96.5 293v670h250v-609q0 -118 50 -179.5t146 -61.5q104 0 159.5 66t55.5 198v586h250v-1049h-241v129h-7q-51 -74 -127.5 -111.5t-166.5 -37.5zM295 1225v209h567v-209h-567z" />
    <glyph glyph-name="Ubreve" unicode="&#x16c;" horiz-adv-x="1417" 
d="M709 -23q-262 0 -417 135.5t-155 391.5v956h273v-923q0 -143 73.5 -228.5t225.5 -85.5q299 0 299 314v923h272v-936q0 -257 -156 -402t-415 -145zM709 1595q-147 0 -243 95t-97 254h178q11 -83 54.5 -133t115.5 -50q68 0 113.5 45.5t48.5 137.5h170q-1 -85 -29.5 -153.5
t-77 -110t-108 -63.5t-125.5 -22z" />
    <glyph glyph-name="ubreve" unicode="&#x16d;" horiz-adv-x="1157" 
d="M492 -20q-176 0 -272.5 106t-96.5 293v670h250v-609q0 -118 50 -179.5t146 -61.5q104 0 159.5 66t55.5 198v586h250v-1049h-241v129h-7q-51 -74 -127.5 -111.5t-166.5 -37.5zM578 1212q-147 0 -243 95t-97 254h178q11 -83 54.5 -133t115.5 -50q68 0 113.5 45.5
t48.5 137.5h170q-1 -85 -29.5 -153.5t-77 -110t-108 -63.5t-125.5 -22z" />
    <glyph glyph-name="Uring" unicode="&#x16e;" horiz-adv-x="1417" 
d="M709 -23q-262 0 -417 135.5t-155 391.5v956h273v-923q0 -143 73.5 -228.5t225.5 -85.5q299 0 299 314v923h272v-936q0 -257 -156 -402t-415 -145zM707 1579q-97 0 -155 56t-58 141q0 87 61.5 146.5t151.5 59.5q97 0 156 -53t59 -141t-63 -148.5t-152 -60.5zM707 1683
q39 0 66.5 28.5t27.5 68.5q0 42 -25 70t-69 28q-42 0 -67.5 -28.5t-25.5 -69.5q0 -40 27.5 -68.5t65.5 -28.5z" />
    <glyph glyph-name="uring" unicode="&#x16f;" horiz-adv-x="1157" 
d="M492 -20q-176 0 -272.5 106t-96.5 293v670h250v-609q0 -118 50 -179.5t146 -61.5q104 0 159.5 66t55.5 198v586h250v-1049h-241v129h-7q-51 -74 -127.5 -111.5t-166.5 -37.5zM578 1196q-97 0 -155 56t-58 141q0 87 61.5 146.5t151.5 59.5q97 0 156 -53t59 -141
t-63 -148.5t-152 -60.5zM578 1300q39 0 66.5 28.5t27.5 68.5q0 42 -25 70t-69 28q-42 0 -67.5 -28.5t-25.5 -69.5q0 -40 27.5 -68.5t65.5 -28.5z" />
    <glyph glyph-name="Uhungarumlaut" unicode="&#x170;" horiz-adv-x="1417" 
d="M709 -23q-262 0 -417 135.5t-155 391.5v956h273v-923q0 -143 73.5 -228.5t225.5 -85.5q299 0 299 314v923h272v-936q0 -257 -156 -402t-415 -145zM391 1599l96 322h279l-186 -322h-189zM774 1599l98 322h279l-186 -322h-191z" />
    <glyph glyph-name="uhungarumlaut" unicode="&#x171;" horiz-adv-x="1157" 
d="M492 -20q-176 0 -272.5 106t-96.5 293v670h250v-609q0 -118 50 -179.5t146 -61.5q104 0 159.5 66t55.5 198v586h250v-1049h-241v129h-7q-51 -74 -127.5 -111.5t-166.5 -37.5zM279 1217l96 321h278l-186 -321h-188zM662 1217l98 321h278l-186 -321h-190z" />
    <glyph glyph-name="Uogonek" unicode="&#x172;" horiz-adv-x="1417" 
d="M825 -444q-72 0 -132.5 24.5t-100 78t-39.5 128.5q0 115 98 193q-239 15 -376.5 149t-137.5 375v956h273v-923q0 -143 73.5 -228.5t225.5 -85.5q299 0 299 314v923h272v-936q0 -207 -102 -342t-281 -182q-71 -26 -110 -74t-39 -96q0 -90 102 -90q69 0 133 39l94 -135
q-105 -88 -252 -88z" />
    <glyph glyph-name="uogonek" unicode="&#x173;" horiz-adv-x="1157" 
d="M909 -444q-72 0 -132.5 24.5t-100 78t-39.5 128.5q0 165 156 250v92h-7q-51 -74 -127.5 -111.5t-166.5 -37.5q-176 0 -272.5 106t-96.5 293v670h250v-609q0 -118 50 -179.5t146 -61.5q104 0 159.5 66t55.5 198v586h250v-1049q-110 -19 -156.5 -65t-46.5 -105
q0 -90 103 -90q69 0 133 39l94 -135q-105 -88 -252 -88z" />
    <glyph glyph-name="Wcircumflex" unicode="&#x174;" horiz-adv-x="1839" 
d="M401 -6l-376 1466h278l229 -1022h5l268 1022h231l267 -1028h4l233 1028h275l-379 -1466h-252l-262 1030h-4l-263 -1030h-254zM584 1599l223 357h233l215 -357h-233l-98 205l-111 -205h-229z" />
    <glyph glyph-name="wcircumflex" unicode="&#x175;" horiz-adv-x="1581" 
d="M346 -4l-334 1053h264l197 -727h4l207 727h217l207 -725h4l197 725h260l-332 -1053h-242l-202 723h-5l-198 -723h-244zM455 1217l223 356h233l215 -356h-233l-98 204l-111 -204h-229z" />
    <glyph glyph-name="Ycircumflex" unicode="&#x176;" horiz-adv-x="1245" 
d="M489 0v586l-489 874h305l326 -612l323 612h291l-491 -878v-582h-265zM317 1599l224 357h233l215 -357h-233l-99 205l-110 -205h-230z" />
    <glyph glyph-name="ycircumflex" unicode="&#x177;" horiz-adv-x="1038" 
d="M240 -401q-61 0 -125 12v211q75 -10 118 -10q45 0 76 24.5t45 63.5l45 125l-387 1024h273l245 -717h5l235 717h256l-444 -1223q-81 -227 -342 -227zM182 1217l224 356h233l215 -356h-233l-99 204l-110 -204h-230z" />
    <glyph glyph-name="Ydieresis" unicode="&#x178;" horiz-adv-x="1245" 
d="M489 0v586l-489 874h305l326 -612l323 612h291l-491 -878v-582h-265zM295 1591v269h244v-269h-244zM705 1591v269h243v-269h-243z" />
    <glyph glyph-name="Zacute" unicode="&#x179;" horiz-adv-x="1222" 
d="M70 0v219l714 1008h-678v233h1029v-209l-717 -1011h735v-240h-1083zM522 1597l174 357h285l-264 -357h-195z" />
    <glyph glyph-name="zacute" unicode="&#x17a;" horiz-adv-x="987" 
d="M57 0v193l535 655h-500v201h819v-193l-536 -647h555v-209h-873zM389 1214l174 357h285l-264 -357h-195z" />
    <glyph glyph-name="Zdotaccent" unicode="&#x17b;" horiz-adv-x="1222" 
d="M70 0v219l714 1008h-678v233h1029v-209l-717 -1011h735v-240h-1083zM489 1589v269h244v-269h-244z" />
    <glyph glyph-name="zdotaccent" unicode="&#x17c;" horiz-adv-x="987" 
d="M57 0v193l535 655h-500v201h819v-193l-536 -647h555v-209h-873zM371 1206v269h243v-269h-243z" />
    <glyph glyph-name="Zcaron" unicode="&#x17d;" horiz-adv-x="1222" 
d="M70 0v219l714 1008h-678v233h1029v-209l-717 -1011h735v-240h-1083zM489 1599l-215 357h234l98 -205l111 205h229l-223 -357h-234z" />
    <glyph glyph-name="zcaron" unicode="&#x17e;" horiz-adv-x="987" 
d="M57 0v193l535 655h-500v201h819v-193l-536 -647h555v-209h-873zM373 1217l-215 356h233l98 -205l111 205h229l-223 -356h-233z" />
    <glyph glyph-name="florin" unicode="&#x192;" horiz-adv-x="759" 
d="M72 -395q-34 0 -88 6l14 213q38 -10 72 -10q46 0 69 23.5t29 80.5l80 819h-174l20 191h174l27 256q34 301 336 301q68 0 123 -10l-23 -209q-50 6 -92 6q-86 0 -94 -80l-29 -264h197l-21 -191h-196l-86 -827q-16 -153 -93 -229t-245 -76z" />
    <glyph glyph-name="Aringacute" unicode="&#x1fa;" horiz-adv-x="1376" 
d="M23 0l542 1462h250l539 -1462h-289l-107 311h-557l-110 -311h-268zM477 545h404l-199 585h-4zM686 1579q-98 0 -155.5 55t-57.5 140q0 86 70 153l291 279l149 -178l-166 -82q84 -54 84 -160q0 -88 -63 -147.5t-152 -59.5zM686 1683q40 0 67 28t27 69t-25 68.5t-69 27.5
q-42 0 -67 -27.5t-25 -68.5t27 -69t65 -28z" />
    <glyph glyph-name="aringacute" unicode="&#x1fb;" horiz-adv-x="1107" 
d="M432 -20q-165 0 -264.5 85t-99.5 232q0 98 55 173t142 113t190 38h278v96q0 157 -201 157q-84 0 -136 -27t-52 -77v-37h-225v29q0 66 24.5 119.5t65 88t95 57.5t112 32.5t119.5 9.5q73 0 136.5 -10t122 -34t99.5 -61.5t65.5 -96t24.5 -132.5v-510q0 -50 5 -130t13 -95
h-247q-2 7 -4 27t-4 42t-3 27h-4q-66 -69 -133 -92.5t-174 -23.5zM500 176q58 0 101 11.5t68 30t39.5 47t19.5 57t5 65.5v51h-246q-176 0 -176 -129q0 -65 50 -99t139 -34zM553 1196q-98 0 -155.5 55t-57.5 140q0 86 70 153l290 279l150 -178l-166 -82q84 -54 84 -160
q0 -88 -63 -147.5t-152 -59.5zM553 1300q40 0 67 28t27 69t-25 68.5t-69 27.5q-42 0 -67 -27.5t-25 -68.5t27 -69t65 -28z" />
    <glyph glyph-name="AEacute" unicode="&#x1fc;" horiz-adv-x="2097" 
d="M25 0l786 1460h1167v-239h-741v-357h657v-239h-657v-385h750v-240h-1020v356h-463l-195 -356h-284zM610 584h357v661zM1067 1597l174 357h285l-264 -357h-195z" />
    <glyph glyph-name="aeacute" unicode="&#x1fd;" horiz-adv-x="1755" 
d="M1221 -25q-131 0 -241 48t-173 139q-113 -182 -375 -182q-165 0 -264.5 85t-99.5 232q0 98 55 173t142 113t190 38h278v96q0 157 -201 157q-84 0 -136 -27t-52 -77v-37h-225v29q0 66 24.5 119.5t65 88t95 57.5t112 32.5t119.5 9.5q244 0 358 -106q132 104 319 104
q87 0 167 -26t144.5 -75t103 -129.5t38.5 -181.5v-202h-674v-58q0 -97 69.5 -154t172.5 -57q62 0 123.5 37t103.5 98l199 -112q-131 -232 -438 -232zM500 176q58 0 101 11.5t68 30t39.5 47t19.5 57t5 65.5v51h-246q-176 0 -176 -129q0 -65 50 -99t139 -34zM991 627h424v28
q0 100 -59 150.5t-144 50.5q-91 0 -156 -53t-65 -162v-14zM750 1214l174 357h284l-264 -357h-194z" />
    <glyph glyph-name="Oslashacute" unicode="&#x1fe;" horiz-adv-x="1398" 
d="M279 -123l-123 82l106 166q-151 135 -151 354v467q0 101 33 188.5t89 151t130.5 109t159 68t171.5 22.5q213 0 373 -113l115 176l123 -82l-127 -196q110 -132 110 -318v-438q0 -101 -33 -188.5t-89 -151t-130.5 -109t-159 -68t-171.5 -22.5q-173 0 -318 68zM381 494
q0 -75 35 -134l516 801q-94 82 -238 82q-56 0 -108.5 -15.5t-99.5 -46.5t-76 -88t-29 -132v-467zM705 217q55 0 108 15.5t100 47t76 88.5t29 132v467q0 17 -4 49l-490 -758q75 -41 181 -41zM592 1597l174 357h285l-265 -357h-194z" />
    <glyph glyph-name="oslashacute" unicode="&#x1ff;" horiz-adv-x="1126" 
d="M305 -154l-119 58l78 151q-178 118 -178 332v240q0 83 27 155t73 123.5t106.5 88.5t128.5 55t138 18q108 0 203 -39l78 152l118 -58l-81 -159q76 -59 119.5 -144t43.5 -188v-215q0 -103 -41 -188.5t-109 -139.5t-151.5 -83.5t-171.5 -29.5q-86 0 -182 27zM340 389
q0 -70 35 -117l289 564q-47 18 -105 18q-89 0 -154 -51t-65 -156v-258zM446 1214l175 357h284l-264 -357h-195zM567 186q89 0 154 51t65 156v260q0 47 -20 92l-281 -548q46 -11 82 -11z" />
    <glyph glyph-name="Scommaaccent" unicode="&#x218;" horiz-adv-x="1282" 
d="M635 -23q-138 0 -255 37.5t-207.5 120.5t-127.5 203l246 96q41 -105 134.5 -163t217.5 -58q121 0 204 49t83 144q0 76 -52.5 119t-148.5 71l-246 59q-63 16 -111.5 35t-95 51t-77 73t-48.5 101.5t-18 135.5q0 133 72 233t189.5 150.5t260.5 50.5q191 0 318.5 -70
t195.5 -229l-223 -99q-86 168 -313 168q-98 0 -166 -46t-68 -138q0 -70 56.5 -111.5t156.5 -68.5l250 -62q334 -79 334 -405q0 -199 -158.5 -323t-402.5 -124zM477 -395l25 327h270l-82 -327h-213z" />
    <glyph glyph-name="scommaaccent" unicode="&#x219;" horiz-adv-x="1069" 
d="M535 -23q-332 0 -469 203l176 133q50 -65 125 -101t163 -36q86 0 146.5 32t60.5 97q0 58 -41 81.5t-155 43.5l-138 25q-286 52 -286 272q0 158 120 251t295 93q146 0 247 -40.5t165 -131.5l-180 -123q-87 103 -234 103q-77 0 -123.5 -29.5t-46.5 -87.5q0 -25 11.5 -42
t43 -28.5t51.5 -16.5t72 -14q14 -3 21 -4l158 -30q135 -27 207.5 -101.5t72.5 -191.5q0 -70 -27.5 -129.5t-73 -101t-106 -70.5t-125 -42.5t-130.5 -13.5zM377 -395l24 327h271l-82 -327h-213z" />
    <glyph glyph-name="uni021A" unicode="&#x21a;" horiz-adv-x="1220" 
d="M475 0v1227h-420v233h1110v-233h-420v-1227h-270zM457 -395l24 327h271l-82 -327h-213z" />
    <glyph glyph-name="uni021B" unicode="&#x21b;" horiz-adv-x="679" 
d="M463 -16q-130 0 -211.5 65.5t-81.5 198.5v602h-141v199h141v317h250v-317h227v-199h-227v-543q0 -55 25.5 -77.5t72.5 -22.5q68 0 129 10v-213q-79 -20 -184 -20zM242 -395l24 327h271l-82 -327h-213z" />
    <glyph glyph-name="dotlessj" unicode="&#x237;" horiz-adv-x="548" 
d="M61 -395q-34 0 -88 6v213q46 -4 72 -4q105 0 105 104v1125h249v-1139q0 -305 -338 -305z" />
    <glyph glyph-name="circumflex" unicode="&#x2c6;" horiz-adv-x="786" 
d="M57 1217l224 356h233l215 -356h-233l-99 204l-110 -204h-230z" />
    <glyph glyph-name="caron" unicode="&#x2c7;" horiz-adv-x="786" 
d="M272 1217l-215 356h234l98 -205l111 205h229l-223 -356h-234z" />
    <glyph glyph-name="breve" unicode="&#x2d8;" horiz-adv-x="821" 
d="M410 1212q-147 0 -243 95t-97 254h178q11 -83 54.5 -133t115.5 -50q68 0 113.5 45.5t48.5 137.5h170q-1 -85 -29.5 -153.5t-77 -110t-108 -63.5t-125.5 -22z" />
    <glyph glyph-name="dotaccent" unicode="&#x2d9;" horiz-adv-x="522" 
d="M139 1206v269h244v-269h-244z" />
    <glyph glyph-name="ring" unicode="&#x2da;" horiz-adv-x="677" 
d="M338 1196q-97 0 -155 56t-58 141q0 87 61.5 146.5t151.5 59.5q97 0 156 -53t59 -141t-63 -148.5t-152 -60.5zM338 1300q39 0 66.5 28.5t27.5 68.5q0 42 -25 70t-69 28q-42 0 -67 -28.5t-25 -69.5q0 -40 27 -68.5t65 -28.5z" />
    <glyph glyph-name="ogonek" unicode="&#x2db;" horiz-adv-x="819" 
d="M391 -444q-72 0 -132.5 24.5t-100 78t-39.5 128.5q0 110 82 186t209 111l127 -84q-112 -19 -168 -66.5t-56 -103.5q0 -90 103 -90q69 0 133 39l94 -135q-105 -88 -252 -88z" />
    <glyph glyph-name="tilde" unicode="&#x2dc;" horiz-adv-x="1001" 
d="M252 1200l-162 35q23 120 86.5 193t163.5 73q59 0 167 -31.5t165 -31.5q37 0 54 23.5t28 68.5l157 -35q-20 -120 -80 -193t-157 -73q-59 0 -170 31.5t-168 31.5q-27 0 -42.5 -16.5t-41.5 -75.5z" />
    <glyph glyph-name="hungarumlaut" unicode="&#x2dd;" horiz-adv-x="903" 
d="M88 1217l96 321h279l-187 -321h-188zM471 1217l98 321h279l-186 -321h-191z" />
    <glyph glyph-name="pi" unicode="&#x3c0;" horiz-adv-x="1275" 
d="M1022 -12q-110 0 -172 69.5t-62 184.5v577h-282q-12 -373 -55 -819h-263q47 434 60 819h-195l35 232h1126v-232h-172l-2 -489q0 -56 17.5 -86.5t72.5 -30.5q41 0 91 8l2 -205q-86 -28 -201 -28z" />
    <glyph glyph-name="Wgrave" unicode="&#x1e80;" horiz-adv-x="1839" 
d="M401 -6l-376 1466h278l229 -1022h5l268 1022h231l267 -1028h4l233 1028h275l-379 -1466h-252l-262 1030h-4l-263 -1030h-254zM825 1597l-264 357h285l174 -357h-195z" />
    <glyph glyph-name="wgrave" unicode="&#x1e81;" horiz-adv-x="1581" 
d="M346 -4l-334 1053h264l197 -727h4l207 727h217l207 -725h4l197 725h260l-332 -1053h-242l-202 723h-5l-198 -723h-244zM696 1214l-264 357h285l174 -357h-195z" />
    <glyph glyph-name="Wacute" unicode="&#x1e82;" horiz-adv-x="1839" 
d="M401 -6l-376 1466h278l229 -1022h5l268 1022h231l267 -1028h4l233 1028h275l-379 -1466h-252l-262 1030h-4l-263 -1030h-254zM840 1597l174 357h284l-264 -357h-194z" />
    <glyph glyph-name="wacute" unicode="&#x1e83;" horiz-adv-x="1581" 
d="M346 -4l-334 1053h264l197 -727h4l207 727h217l207 -725h4l197 725h260l-332 -1053h-242l-202 723h-5l-198 -723h-244zM711 1214l174 357h284l-264 -357h-194z" />
    <glyph glyph-name="Wdieresis" unicode="&#x1e84;" horiz-adv-x="1839" 
d="M401 -6l-376 1466h278l229 -1022h5l268 1022h231l267 -1028h4l233 1028h275l-379 -1466h-252l-262 1030h-4l-263 -1030h-254zM592 1591v269h244v-269h-244zM1001 1591v269h244v-269h-244z" />
    <glyph glyph-name="wdieresis" unicode="&#x1e85;" horiz-adv-x="1581" 
d="M346 -4l-334 1053h264l197 -727h4l207 727h217l207 -725h4l197 725h260l-332 -1053h-242l-202 723h-5l-198 -723h-244zM463 1208v269h244v-269h-244zM872 1208v269h244v-269h-244z" />
    <glyph glyph-name="Ygrave" unicode="&#x1ef2;" horiz-adv-x="1245" 
d="M489 0v586l-489 874h305l326 -612l323 612h291l-491 -878v-582h-265zM537 1597l-265 357h285l174 -357h-194z" />
    <glyph glyph-name="ygrave" unicode="&#x1ef3;" horiz-adv-x="1038" 
d="M240 -401q-61 0 -125 12v211q75 -10 118 -10q45 0 76 24.5t45 63.5l45 125l-387 1024h273l245 -717h5l235 717h256l-444 -1223q-81 -227 -342 -227zM434 1214l-264 357h285l174 -357h-195z" />
    <glyph glyph-name="endash" unicode="&#x2013;" horiz-adv-x="1028" 
d="M0 541v178h1028v-178h-1028z" />
    <glyph glyph-name="emdash" unicode="&#x2014;" horiz-adv-x="1626" 
d="M0 541v178h1626v-178h-1626z" />
    <glyph glyph-name="quoteleft" unicode="&#x2018;" horiz-adv-x="542" 
d="M135 883v288l109 299h133l-62 -288h88v-299h-268z" />
    <glyph glyph-name="quoteright" unicode="&#x2019;" horiz-adv-x="542" 
d="M168 883l61 288h-90v299h269v-288l-107 -299h-133z" />
    <glyph glyph-name="quotesinglbase" unicode="&#x201a;" horiz-adv-x="546" 
d="M168 -285l61 289h-90v299h269v-289l-107 -299h-133z" />
    <glyph glyph-name="quotedblleft" unicode="&#x201c;" horiz-adv-x="937" 
d="M135 883v288l109 299h133l-62 -288h88v-299h-268zM528 883v288l109 299h133l-61 -288h88v-299h-269z" />
    <glyph glyph-name="quotedblright" unicode="&#x201d;" horiz-adv-x="937" 
d="M168 883l61 288h-90v299h269v-288l-107 -299h-133zM561 883l62 288h-91v299h269v-288l-107 -299h-133z" />
    <glyph glyph-name="quotedblbase" unicode="&#x201e;" horiz-adv-x="937" 
d="M168 -285l61 289h-90v299h269v-289l-107 -299h-133zM561 -285l62 289h-91v299h269v-289l-107 -299h-133z" />
    <glyph glyph-name="dagger" unicode="&#x2020;" horiz-adv-x="1183" 
d="M492 -309v1224h-402v181h402v370h198v-370h404v-181h-404v-1224h-198z" />
    <glyph glyph-name="daggerdbl" unicode="&#x2021;" horiz-adv-x="1183" 
d="M492 -309v387h-402v178h402v659h-402v181h402v370h198v-370h404v-181h-404v-659h404v-178h-404v-387h-198z" />
    <glyph glyph-name="bullet" unicode="&#x2022;" horiz-adv-x="825" 
d="M414 494q-107 0 -181.5 75t-74.5 181q0 107 74.5 181.5t181.5 74.5q106 0 180 -74.5t74 -181.5q0 -106 -74 -181t-180 -75z" />
    <glyph glyph-name="ellipsis" unicode="&#x2026;" horiz-adv-x="1497" 
d="M164 0v305h268v-305h-268zM614 0v305h269v-305h-269zM1065 0v305h268v-305h-268z" />
    <glyph glyph-name="perthousand" unicode="&#x2030;" horiz-adv-x="2324" 
d="M1933 -23q-80 0 -144.5 25t-107.5 84t-43 145v287q0 129 85 193.5t210 64.5q59 0 111 -14.5t94.5 -44.5t67 -81.5t24.5 -119.5v-285q0 -123 -88.5 -188.5t-208.5 -65.5zM1931 121q60 0 89.5 30.5t29.5 79.5v297q0 48 -29 78.5t-88 30.5t-87.5 -29.5t-28.5 -79.5v-299
q0 -108 114 -108zM387 686q-125 0 -209 63t-84 191v285q0 88 42.5 148.5t106.5 86t144 25.5q59 0 111 -15t94.5 -45t67 -82t24.5 -120v-285q0 -122 -88 -187t-209 -65zM387 829q60 0 89.5 30.5t29.5 78.5v299q0 48 -29.5 78.5t-87.5 30.5q-59 0 -88 -30t-29 -79v-299
q0 -109 115 -109zM1227 -23q-80 0 -144 25t-106.5 84t-42.5 145v287q0 88 42.5 148t106.5 85t144 25q60 0 112 -14.5t95 -44.5t67.5 -81.5t24.5 -119.5v-285q0 -84 -45 -143t-111 -85t-143 -26zM1227 121q60 0 89.5 30.5t29.5 79.5v297q0 48 -29.5 78.5t-87.5 30.5
q-59 0 -88 -29.5t-29 -79.5v-299q0 -108 115 -108zM242 0l989 1468h166l-987 -1468h-168z" />
    <glyph glyph-name="guilsinglleft" unicode="&#x2039;" horiz-adv-x="700" 
d="M510 131l-428 414l428 418l123 -113l-250 -305l252 -305z" />
    <glyph glyph-name="guilsinglright" unicode="&#x203a;" horiz-adv-x="700" 
d="M193 131l-125 113l249 305l-251 305l124 109l428 -414z" />
    <glyph glyph-name="fraction" unicode="&#x2044;" horiz-adv-x="229" 
d="M-356 -4l796 1464h168l-796 -1464h-168z" />
    <glyph glyph-name="uni2070" unicode="&#x2070;" horiz-adv-x="780" 
d="M391 754q-58 0 -110 14t-98 42t-73.5 79.5t-27.5 118.5v333q0 87 46 147t114 85.5t149 25.5q58 0 111.5 -15t98 -45.5t71 -82.5t26.5 -119v-327q0 -64 -27 -114.5t-72 -80.5t-98.5 -45.5t-109.5 -15.5zM391 913q49 0 76 29.5t27 71.5v334q0 40 -27.5 66t-75.5 26
t-76 -27.5t-28 -69.5v-333q0 -41 27 -69t77 -28z" />
    <glyph glyph-name="uni2074" unicode="&#x2074;" horiz-adv-x="739" 
d="M406 778v178h-351v146l301 495h219l-315 -487h146v100l188 121v-221h86v-154h-86v-178h-188z" />
    <glyph glyph-name="uni2075" unicode="&#x2075;" horiz-adv-x="727" 
d="M362 754q-126 0 -204 55t-78 147v52h186v-21q0 -35 28 -56.5t75 -21.5q45 0 70.5 29t25.5 86v51q0 41 -28.5 63.5t-71.5 22.5q-56 0 -93 -43l-172 23l21 444h493v-166h-338l-6 -164q70 48 172 48q53 0 101 -19t83.5 -66.5t35.5 -115.5v-96q0 -120 -87 -186t-213 -66z" />
    <glyph glyph-name="uni2076" unicode="&#x2076;" horiz-adv-x="763" 
d="M379 754q-124 0 -210.5 66t-86.5 179v351q0 115 89.5 182t217.5 67q130 0 205.5 -57.5t75.5 -159.5v-36h-189v20q0 39 -25.5 59.5t-68.5 20.5q-48 0 -74 -26.5t-26 -67.5v-127q78 65 184 65q97 0 154 -51t57 -135v-117q0 -110 -87 -171.5t-216 -61.5zM385 909
q49 0 75.5 24t26.5 60v82q0 43 -30.5 62.5t-69.5 19.5t-69.5 -27t-30.5 -79v-50q0 -40 26 -66t72 -26z" />
    <glyph glyph-name="uni2077" unicode="&#x2077;" horiz-adv-x="712" 
d="M160 778q4 170 88 354t192 300h-364v163h579v-139q-47 -48 -90.5 -108.5t-91 -147t-76 -197t-28.5 -225.5h-209z" />
    <glyph glyph-name="uni2078" unicode="&#x2078;" horiz-adv-x="763" 
d="M381 754q-137 0 -218 54.5t-81 168.5v43q0 54 27.5 96.5t72.5 65.5q-40 17 -64 58t-24 87v43q0 108 82.5 168.5t204.5 60.5q79 0 142.5 -22.5t105 -73.5t41.5 -123v-59q0 -45 -25 -82t-63 -57q41 -18 70.5 -62t29.5 -94v-51q0 -102 -86 -161.5t-215 -59.5zM381 899
q46 0 73 22t27 64v39q0 44 -29 64t-71 20t-71 -19.5t-29 -56.5v-49q0 -39 28.5 -61.5t71.5 -22.5zM383 1247q42 0 70 22t28 62v39q0 42 -29 62t-71 20q-41 0 -69.5 -20t-28.5 -56v-47q0 -40 28 -61t72 -21z" />
    <glyph glyph-name="uni2079" unicode="&#x2079;" horiz-adv-x="763" 
d="M375 752q-130 0 -205.5 58t-75.5 159v37h191v-21q0 -38 25 -58t67 -20q48 0 74 25.5t26 68.5v129q-54 -71 -184 -71q-97 0 -154 52.5t-57 135.5v119q0 110 87 170.5t216 60.5q125 0 211 -66t86 -179v-351q0 -115 -89.5 -182t-217.5 -67zM373 1194q39 0 71.5 28.5
t32.5 80.5v51q0 40 -26 67t-72 27q-48 0 -75.5 -24.5t-27.5 -61.5v-84q0 -42 30 -63t67 -21z" />
    <glyph glyph-name="uni207D" unicode="&#x207d;" horiz-adv-x="419" 
d="M293 625q-79 96 -128.5 236t-49.5 288q0 141 48 276.5t130 233.5h98q-56 -140 -79 -252t-23 -258q0 -282 102 -524h-98z" />
    <glyph glyph-name="uni207E" unicode="&#x207e;" horiz-adv-x="419" 
d="M127 625h-98q102 242 102 524q0 146 -23 258t-79 252h98q82 -98 130 -233.5t48 -276.5q0 -148 -49.5 -288t-128.5 -236z" />
    <glyph glyph-name="uni2080" unicode="&#x2080;" horiz-adv-x="780" 
d="M391 -297q-58 0 -110 14t-98 42t-73.5 79.5t-27.5 118.5v334q0 87 46 147t114 85.5t149 25.5q58 0 111.5 -15t98 -45.5t71 -82.5t26.5 -119v-328q0 -64 -27 -114.5t-72 -80.5t-98.5 -45.5t-109.5 -15.5zM391 -137q50 0 76.5 29.5t26.5 70.5v334q0 40 -27.5 66t-75.5 26
t-76 -27t-28 -69v-334q0 -41 27 -68.5t77 -27.5z" />
    <glyph glyph-name="uni2081" unicode="&#x2081;" horiz-adv-x="661" 
d="M90 -272v137h156v500l-150 -13l-12 133l268 58h92v-678h142v-137h-496z" />
    <glyph glyph-name="uni2082" unicode="&#x2082;" horiz-adv-x="714" 
d="M90 -272v131l297 334q22 24 38.5 58t16.5 66v7q0 37 -22 60.5t-70 23.5q-44 0 -67 -27.5t-23 -71.5v-24h-184v41q0 112 80.5 173.5t210.5 61.5q131 0 201.5 -67t70.5 -175q0 -29 -5.5 -56.5t-21.5 -57.5t-26.5 -49t-38 -51.5t-36.5 -43.5t-43 -46t-38 -40l-78 -84v-4h293
v-159h-555z" />
    <glyph glyph-name="uni2083" unicode="&#x2083;" horiz-adv-x="727" 
d="M350 -297q-136 0 -208 59t-72 166v29h188v-23q0 -77 104 -77q42 0 68.5 28t26.5 76q0 38 -22.5 61t-45.5 29t-47 6h-70v142h68q53 0 79.5 22t26.5 76q0 44 -27.5 68t-64.5 24q-92 0 -92 -82v-16h-186v28q0 102 76 166t206 64q132 0 205.5 -63t73.5 -162q0 -67 -33 -116.5
t-88 -68.5v-4q64 -18 105 -67.5t41 -120.5q0 -51 -19 -93.5t-49.5 -69.5t-72 -46t-84 -27t-87.5 -8z" />
    <glyph glyph-name="uni2084" unicode="&#x2084;" horiz-adv-x="739" 
d="M406 -272v178h-351v145l301 496h219l-315 -488h146v101l188 121v-222h86v-153h-86v-178h-188z" />
    <glyph glyph-name="uni2085" unicode="&#x2085;" horiz-adv-x="727" 
d="M362 -297q-125 0 -203.5 55.5t-78.5 147.5v51h186v-20q0 -35 28 -56.5t75 -21.5q96 0 96 114v52q0 41 -28.5 63.5t-71.5 22.5q-56 0 -93 -43l-172 22l21 445h493v-166h-338l-6 -164q68 47 172 47q53 0 101 -19t83.5 -66.5t35.5 -115.5v-96q0 -120 -87 -186t-213 -66z" />
    <glyph glyph-name="uni2086" unicode="&#x2086;" horiz-adv-x="763" 
d="M379 -297q-124 0 -210.5 66.5t-86.5 179.5v350q0 115 89.5 182.5t217.5 67.5q130 0 205.5 -57.5t75.5 -159.5v-37h-189v20q0 39 -25.5 59.5t-68.5 20.5q-48 0 -74 -26.5t-26 -67.5v-127q80 66 184 66q97 0 154 -51.5t57 -135.5v-116q0 -111 -87.5 -172.5t-215.5 -61.5z
M385 -141q49 0 75.5 24t26.5 60v82q0 43 -30.5 62t-69.5 19t-69.5 -27t-30.5 -79v-49q0 -40 26 -66t72 -26z" />
    <glyph glyph-name="uni2087" unicode="&#x2087;" horiz-adv-x="712" 
d="M160 -272q4 170 88 353.5t192 299.5h-364v164h579v-139q-47 -48 -90.5 -108.5t-91 -147t-76 -197t-28.5 -225.5h-209z" />
    <glyph glyph-name="uni2088" unicode="&#x2088;" horiz-adv-x="763" 
d="M381 -297q-137 0 -218 54.5t-81 168.5v43q0 54 27.5 96.5t72.5 65.5q-40 17 -64 58t-24 87v43q0 108 82.5 169t204.5 61q79 0 142.5 -22.5t105 -73.5t41.5 -123v-60q0 -45 -25 -82t-63 -57q41 -18 70.5 -62t29.5 -94v-51q0 -102 -86 -161.5t-215 -59.5zM381 -152
q46 0 73 22t27 64v39q0 44 -29 64t-71 20t-71 -19t-29 -56v-50q0 -39 28.5 -61.5t71.5 -22.5zM383 197q42 0 70 22t28 62v38q0 42 -29 62t-71 20q-41 0 -69.5 -19.5t-28.5 -55.5v-47q0 -40 28 -61t72 -21z" />
    <glyph glyph-name="uni2089" unicode="&#x2089;" horiz-adv-x="763" 
d="M375 -299q-130 0 -205.5 58t-75.5 159v37h191v-21q0 -38 25 -57.5t67 -19.5q48 0 74 25.5t26 68.5v129q-55 -72 -184 -72q-97 0 -154 53t-57 136v118q0 110 87 171t216 61q125 0 211 -66.5t86 -179.5v-350q0 -115 -89.5 -182.5t-217.5 -67.5zM373 143q39 0 71.5 28.5
t32.5 80.5v51q0 40 -26 67t-72 27q-48 0 -75.5 -24.5t-27.5 -61.5v-84q0 -42 30 -63t67 -21z" />
    <glyph glyph-name="uni208D" unicode="&#x208d;" horiz-adv-x="419" 
d="M293 -426q-79 96 -128.5 236t-49.5 288q0 141 48 276.5t130 233.5h98q-56 -140 -79 -252t-23 -258q0 -282 102 -524h-98z" />
    <glyph glyph-name="uni208E" unicode="&#x208e;" horiz-adv-x="419" 
d="M127 -426h-98q102 242 102 524q0 146 -23 258t-79 252h98q82 -98 130 -233.5t48 -276.5q0 -148 -49.5 -288t-128.5 -236z" />
    <glyph glyph-name="Euro" unicode="&#x20ac;" horiz-adv-x="1486" 
d="M831 -25q-244 0 -392 132.5t-148 371.5v15h-174v155h174v156h-174v156h174v14q0 156 76 273.5t202 177t281 59.5q107 0 200.5 -30t167.5 -87.5t117 -151.5t43 -212v-46h-258v21q0 136 -83.5 210.5t-207.5 74.5q-110 0 -189 -74.5t-79 -212.5v-16h459v-156h-459v-156h459
v-155h-459v-17q0 -124 77 -199t202 -75q136 0 208 69t72 209v21h258v-45q0 -118 -46 -212t-123.5 -152t-174 -88t-203.5 -30z" />
    <glyph glyph-name="trademark" unicode="&#x2122;" horiz-adv-x="1370" 
d="M674 823v637h178l113 -299l114 299h178v-637h-137v398l-106 -283h-99l-106 281v-396h-135zM248 823v508h-168v129h483v-129h-168v-508h-147z" />
    <glyph glyph-name="Omega" unicode="&#x2126;" horiz-adv-x="1427" 
d="M115 0v240l284 -13v19q-129 98 -213 250t-84 354v27q0 279 168.5 443.5t440.5 164.5q282 0 447 -165.5t165 -438.5v-29q0 -119 -28.5 -223.5t-75 -178t-95 -123t-100.5 -81.5v-19l289 13v-240h-535v225q16 18 52.5 55t57.5 60.5t51.5 69t47 91t29 116t12.5 153.5v186
q0 78 -27 136.5t-73.5 91.5t-101.5 49t-117 16q-60 0 -113 -16t-99.5 -50.5t-74 -96.5t-27.5 -146v-154q0 -89 14.5 -165t33 -124.5t56.5 -102t62 -79.5t72 -74l16 -16v-225h-534z" />
    <glyph glyph-name="uni2153" unicode="&#x2153;" horiz-adv-x="1765" 
d="M90 645v137h156v500l-150 -12l-12 133l268 57h92v-678h142v-137h-496zM367 -4l796 1464h168l-796 -1464h-168zM1339 -25q-136 0 -208 59.5t-72 166.5v28h188v-22q0 -78 105 -78q42 0 68 27.5t26 76.5q0 29 -12.5 49.5t-32 30t-36.5 13.5t-34 4h-69v141h67q53 0 80 22
t27 76q0 44 -28 68.5t-65 24.5q-92 0 -92 -82v-17h-186v29q0 101 76.5 165t206.5 64q132 0 205 -63t73 -162q0 -67 -33 -116t-88 -68v-4q64 -18 105 -68t41 -121q0 -51 -19 -93.5t-49.5 -69.5t-72 -46t-84 -27t-87.5 -8z" />
    <glyph glyph-name="uni2154" unicode="&#x2154;" horiz-adv-x="1765" 
d="M90 645v131l297 334q22 24 38.5 58.5t16.5 66.5v6q0 37 -22 60.5t-70 23.5q-44 0 -67 -27.5t-23 -70.5v-25h-184v41q0 112 80.5 174t210.5 62q131 0 201.5 -67t70.5 -175q0 -29 -5.5 -56.5t-21.5 -57.5t-26.5 -49t-38 -51.5t-36.5 -43.5t-43 -46t-38 -40l-78 -84v-4h293
v-160h-555zM399 -4l797 1464h168l-797 -1464h-168zM1339 -25q-136 0 -208 59.5t-72 166.5v28h188v-22q0 -78 105 -78q42 0 68 27.5t26 76.5q0 29 -12.5 49.5t-32 30t-36.5 13.5t-34 4h-69v141h67q53 0 80 22t27 76q0 44 -28 68.5t-65 24.5q-92 0 -92 -82v-17h-186v29
q0 101 76.5 165t206.5 64q132 0 205 -63t73 -162q0 -67 -33 -116t-88 -68v-4q64 -18 105 -68t41 -121q0 -51 -19 -93.5t-49.5 -69.5t-72 -46t-84 -27t-87.5 -8z" />
    <glyph glyph-name="uni2155" unicode="&#x2155;" horiz-adv-x="1765" 
d="M90 645v137h156v500l-150 -12l-12 133l268 57h92v-678h142v-137h-496zM367 -4l796 1464h168l-796 -1464h-168zM1352 -25q-125 0 -204 55.5t-79 147.5v51h186v-20q0 -35 28 -56.5t75 -21.5q45 0 70.5 29t25.5 86v51q0 41 -28.5 63.5t-71.5 22.5q-55 0 -92 -43l-172 22
l20 445h494v-166h-338l-6 -164q68 47 172 47q39 0 76 -11.5t70 -34t53 -62.5t20 -92v-97q0 -120 -86.5 -186t-212.5 -66z" />
    <glyph glyph-name="uni2156" unicode="&#x2156;" horiz-adv-x="1765" 
d="M90 645v131l297 334q22 24 38.5 58.5t16.5 66.5v6q0 37 -22 60.5t-70 23.5q-44 0 -67 -27.5t-23 -70.5v-25h-184v41q0 112 80.5 174t210.5 62q131 0 201.5 -67t70.5 -175q0 -29 -5.5 -56.5t-21.5 -57.5t-26.5 -49t-38 -51.5t-36.5 -43.5t-43 -46t-38 -40l-78 -84v-4h293
v-160h-555zM399 -4l797 1464h168l-797 -1464h-168zM1352 -25q-125 0 -204 55.5t-79 147.5v51h186v-20q0 -35 28 -56.5t75 -21.5q45 0 70.5 29t25.5 86v51q0 41 -28.5 63.5t-71.5 22.5q-55 0 -92 -43l-172 22l20 445h494v-166h-338l-6 -164q68 47 172 47q39 0 76 -11.5
t70 -34t53 -62.5t20 -92v-97q0 -120 -86.5 -186t-212.5 -66z" />
    <glyph glyph-name="uni2157" unicode="&#x2157;" horiz-adv-x="1765" 
d="M399 -4l797 1464h168l-797 -1464h-168zM1352 -25q-125 0 -204 55.5t-79 147.5v51h186v-20q0 -35 28 -56.5t75 -21.5q45 0 70.5 29t25.5 86v51q0 41 -28.5 63.5t-71.5 22.5q-55 0 -92 -43l-172 22l20 445h494v-166h-338l-6 -164q68 47 172 47q39 0 76 -11.5t70 -34
t53 -62.5t20 -92v-97q0 -120 -86.5 -186t-212.5 -66zM350 621q-136 0 -208 59t-72 166v28h188v-22q0 -78 104 -78q42 0 68.5 28t26.5 77q0 38 -22.5 61t-45.5 29t-47 6h-70v141h68q53 0 79.5 22t26.5 76q0 44 -27.5 68.5t-64.5 24.5q-92 0 -92 -82v-17h-186v29
q0 102 76 165.5t206 63.5q132 0 205.5 -63t73.5 -162q0 -67 -33 -116t-88 -68v-4q64 -18 105 -68t41 -121q0 -64 -28 -112.5t-74.5 -76t-99.5 -41t-110 -13.5z" />
    <glyph glyph-name="uni2158" unicode="&#x2158;" horiz-adv-x="1765" 
d="M399 -4l797 1464h168l-797 -1464h-168zM1352 -25q-125 0 -204 55.5t-79 147.5v51h186v-20q0 -35 28 -56.5t75 -21.5q45 0 70.5 29t25.5 86v51q0 41 -28.5 63.5t-71.5 22.5q-55 0 -92 -43l-172 22l20 445h494v-166h-338l-6 -164q68 47 172 47q39 0 76 -11.5t70 -34
t53 -62.5t20 -92v-97q0 -120 -86.5 -186t-212.5 -66zM406 645v178h-351v146l301 495h219l-315 -487h146v100l188 121v-221h86v-154h-86v-178h-188z" />
    <glyph glyph-name="uni2159" unicode="&#x2159;" horiz-adv-x="1765" 
d="M90 645v137h156v500l-150 -12l-12 133l268 57h92v-678h142v-137h-496zM377 -4l797 1464h167l-796 -1464h-168zM1341 -25q-124 0 -210.5 66.5t-86.5 179.5v350q0 115 90 182.5t218 67.5q130 0 205 -57.5t75 -159.5v-37h-188v21q0 39 -25.5 59.5t-68.5 20.5
q-48 0 -74.5 -27t-26.5 -68v-127q80 66 185 66q97 0 154 -51t57 -135v-117q0 -74 -42.5 -128.5t-110.5 -80t-151 -25.5zM1348 131q49 0 75.5 24t26.5 60v82q0 43 -30.5 62.5t-69.5 19.5t-70 -27.5t-31 -79.5v-49q0 -40 26.5 -66t72.5 -26z" />
    <glyph glyph-name="uni215A" unicode="&#x215a;" horiz-adv-x="1765" 
d="M362 621q-126 0 -204 55t-78 147v51h186v-20q0 -35 28 -56.5t75 -21.5q45 0 70.5 29t25.5 86v51q0 41 -28.5 63.5t-71.5 22.5q-56 0 -93 -43l-172 23l21 444h493v-166h-338l-6 -164q68 47 172 47q39 0 76 -11.5t70.5 -34t53.5 -62.5t20 -92v-97q0 -120 -86.5 -185.5
t-213.5 -65.5zM377 -4l797 1464h167l-796 -1464h-168zM1341 -25q-124 0 -210.5 66.5t-86.5 179.5v350q0 115 90 182.5t218 67.5q130 0 205 -57.5t75 -159.5v-37h-188v21q0 39 -25.5 59.5t-68.5 20.5q-48 0 -74.5 -27t-26.5 -68v-127q80 66 185 66q97 0 154 -51t57 -135v-117
q0 -74 -42.5 -128.5t-110.5 -80t-151 -25.5zM1348 131q49 0 75.5 24t26.5 60v82q0 43 -30.5 62.5t-69.5 19.5t-70 -27.5t-31 -79.5v-49q0 -40 26.5 -66t72.5 -26z" />
    <glyph glyph-name="uni215B" unicode="&#x215b;" horiz-adv-x="1765" 
d="M1343 -25q-137 0 -218 54.5t-81 169.5v43q0 53 28 95.5t73 65.5q-40 17 -64 58.5t-24 87.5v43q0 108 82 168.5t204 60.5q79 0 142.5 -22.5t105 -73.5t41.5 -123v-59q0 -45 -25 -82.5t-63 -57.5q41 -18 71 -62t30 -93v-51q0 -102 -86.5 -162t-215.5 -60zM377 -4l797 1464
h167l-796 -1464h-168zM90 645v137h156v500l-150 -12l-12 133l268 57h92v-678h142v-137h-496zM1343 121q46 0 73.5 22t27.5 64v39q0 44 -29.5 64t-71.5 20t-71 -19.5t-29 -56.5v-49q0 -39 28.5 -61.5t71.5 -22.5zM1346 469q42 0 70 22t28 62v39q0 42 -29.5 62t-71.5 20
q-41 0 -69.5 -20t-28.5 -56v-47q0 -39 28.5 -60.5t72.5 -21.5z" />
    <glyph glyph-name="uni215C" unicode="&#x215c;" horiz-adv-x="1765" 
d="M1343 -25q-137 0 -218 54.5t-81 169.5v43q0 53 28 95.5t73 65.5q-40 17 -64 58.5t-24 87.5v43q0 108 82 168.5t204 60.5q79 0 142.5 -22.5t105 -73.5t41.5 -123v-59q0 -45 -25 -82.5t-63 -57.5q41 -18 71 -62t30 -93v-51q0 -102 -86.5 -162t-215.5 -60zM350 621
q-136 0 -208 59t-72 166v28h188v-22q0 -78 104 -78q42 0 68.5 28t26.5 77q0 38 -22.5 61t-45.5 29t-47 6h-70v141h68q53 0 79.5 22t26.5 76q0 44 -27.5 68.5t-64.5 24.5q-92 0 -92 -82v-17h-186v29q0 102 76 165.5t206 63.5q132 0 205.5 -63t73.5 -162q0 -67 -33 -116
t-88 -68v-4q64 -18 105 -68t41 -121q0 -64 -28 -112.5t-74.5 -76t-99.5 -41t-110 -13.5zM377 -4l797 1464h167l-796 -1464h-168zM1343 121q46 0 73.5 22t27.5 64v39q0 44 -29.5 64t-71.5 20t-71 -19.5t-29 -56.5v-49q0 -39 28.5 -61.5t71.5 -22.5zM1346 469q42 0 70 22
t28 62v39q0 42 -29.5 62t-71.5 20q-41 0 -69.5 -20t-28.5 -56v-47q0 -39 28.5 -60.5t72.5 -21.5z" />
    <glyph glyph-name="uni215D" unicode="&#x215d;" horiz-adv-x="1765" 
d="M1343 -25q-137 0 -218 54.5t-81 169.5v43q0 53 28 95.5t73 65.5q-40 17 -64 58.5t-24 87.5v43q0 108 82 168.5t204 60.5q79 0 142.5 -22.5t105 -73.5t41.5 -123v-59q0 -45 -25 -82.5t-63 -57.5q41 -18 71 -62t30 -93v-51q0 -102 -86.5 -162t-215.5 -60zM362 621
q-126 0 -204 55t-78 147v51h186v-20q0 -35 28 -56.5t75 -21.5q45 0 70.5 29t25.5 86v51q0 41 -28.5 63.5t-71.5 22.5q-56 0 -93 -43l-172 23l21 444h493v-166h-338l-6 -164q68 47 172 47q39 0 76 -11.5t70.5 -34t53.5 -62.5t20 -92v-97q0 -120 -86.5 -185.5t-213.5 -65.5z
M377 -4l797 1464h167l-796 -1464h-168zM1343 121q46 0 73.5 22t27.5 64v39q0 44 -29.5 64t-71.5 20t-71 -19.5t-29 -56.5v-49q0 -39 28.5 -61.5t71.5 -22.5zM1346 469q42 0 70 22t28 62v39q0 42 -29.5 62t-71.5 20q-41 0 -69.5 -20t-28.5 -56v-47q0 -39 28.5 -60.5
t72.5 -21.5z" />
    <glyph glyph-name="uni215E" unicode="&#x215e;" horiz-adv-x="1765" 
d="M1343 -25q-137 0 -218 54.5t-81 169.5v43q0 53 28 95.5t73 65.5q-40 17 -64 58.5t-24 87.5v43q0 108 82 168.5t204 60.5q79 0 142.5 -22.5t105 -73.5t41.5 -123v-59q0 -45 -25 -82.5t-63 -57.5q41 -18 71 -62t30 -93v-51q0 -102 -86.5 -162t-215.5 -60zM367 -4l796 1464
h168l-796 -1464h-168zM207 645q4 170 88 353.5t192 299.5h-364v164h579v-139q-47 -48 -90.5 -108.5t-91 -147t-76 -197t-28.5 -225.5h-209zM1343 121q46 0 73.5 22t27.5 64v39q0 44 -29.5 64t-71.5 20t-71 -19.5t-29 -56.5v-49q0 -39 28.5 -61.5t71.5 -22.5zM1346 469
q42 0 70 22t28 62v39q0 42 -29.5 62t-71.5 20q-41 0 -69.5 -20t-28.5 -56v-47q0 -39 28.5 -60.5t72.5 -21.5z" />
    <glyph glyph-name="arrowleft" unicode="&#x2190;" horiz-adv-x="1507" 
d="M600 213l-463 471v66l463 471l158 -146l-269 -258h879v-201h-879l265 -270z" />
    <glyph glyph-name="arrowup" unicode="&#x2191;" horiz-adv-x="1507" 
d="M651 100v879l-270 -264l-133 153l471 463h65l471 -463l-145 -157l-258 268v-879h-201z" />
    <glyph glyph-name="arrowright" unicode="&#x2192;" horiz-adv-x="1507" 
d="M905 213l-157 145l268 258h-879v201h879l-264 270l153 134l463 -471v-66z" />
    <glyph glyph-name="arrowdown" unicode="&#x2193;" horiz-adv-x="1507" 
d="M719 100l-471 463l145 158l258 -268v878h201v-878l270 264l133 -154l-471 -463h-65z" />
    <glyph glyph-name="uni2196" unicode="&#x2196;" horiz-adv-x="1507" 
d="M1116 209l-622 622l-5 -378l-202 14l6 661l47 46l659 6l11 -215l-373 8l620 -621z" />
    <glyph glyph-name="uni2197" unicode="&#x2197;" horiz-adv-x="1507" 
d="M428 209l-141 143l620 621l-372 -8l10 215l659 -6l47 -46l6 -661l-202 -14l-4 378z" />
    <glyph glyph-name="uni2198" unicode="&#x2198;" horiz-adv-x="1507" 
d="M1204 215l-659 -6l-10 215l372 -8l-620 620l141 144l623 -623l4 379l202 -14l-6 -662z" />
    <glyph glyph-name="uni2199" unicode="&#x2199;" horiz-adv-x="1507" 
d="M999 209l-659 6l-47 45l-6 662l202 14l5 -379l622 623l141 -144l-620 -620l373 8z" />
    <glyph glyph-name="partialdiff" unicode="&#x2202;" horiz-adv-x="1118" 
d="M557 -25q-133 0 -237 44.5t-169 141t-65 234.5v238q0 175 111.5 293t289.5 143q35 6 72 6l-242 383l267 39l397 -641q51 -81 51 -217v-227q0 -85 -26.5 -157t-71.5 -123t-106 -87t-129.5 -53t-141.5 -17zM557 184q98 0 157.5 58.5t59.5 163.5v249q0 98 -58.5 158.5
t-158.5 60.5q-98 0 -155.5 -59t-57.5 -166v-246q0 -101 55 -160t158 -59z" />
    <glyph glyph-name="Delta" unicode="&#x2206;" horiz-adv-x="1376" 
d="M57 0v96l512 1368h246l504 -1368v-96h-1262zM362 201h635l-315 929h-8z" />
    <glyph glyph-name="product" unicode="&#x220f;" horiz-adv-x="1552" 
d="M297 -272v1482h-209v250h1376v-250h-207v-1482h-266v1482h-428v-1482h-266z" />
    <glyph glyph-name="summation" unicode="&#x2211;" horiz-adv-x="1224" 
d="M96 -272v204l557 689l-565 636v203h1032v-233h-669l505 -565v-66l-514 -635h680v-233h-1026z" />
    <glyph glyph-name="minus" unicode="&#x2212;" 
d="M66 565v168h1015v-168h-1015z" />
    <glyph glyph-name="radical" unicode="&#x221a;" horiz-adv-x="1124" 
d="M358 -4l-321 1048h223l215 -743h4l426 1159h205l-586 -1464h-166z" />
    <glyph glyph-name="infinity" unicode="&#x221e;" horiz-adv-x="1720" 
d="M471 328q-163 0 -264 99t-101 243q0 150 107 250t264 100q209 0 391 -205q191 191 381 191q166 0 265.5 -84.5t99.5 -233.5q0 -158 -106.5 -261t-272.5 -103q-208 0 -383 202q-97 -93 -187.5 -145.5t-193.5 -52.5zM461 487q120 0 295 191q-52 73 -125 124.5t-150 51.5
q-80 0 -136 -47t-56 -117q0 -82 49 -142.5t123 -60.5zM1231 485q85 0 143 55t58 132q0 81 -44.5 129.5t-134.5 48.5q-65 0 -134 -48.5t-154 -135.5q33 -43 56 -69t57 -55.5t72 -43t81 -13.5z" />
    <glyph glyph-name="integral" unicode="&#x222b;" horiz-adv-x="837" 
d="M145 -385q-97 0 -161 20l32 189q40 -8 74 -8q54 0 77 28.5t28 83.5l118 1266q13 142 94.5 221.5t204.5 79.5q118 0 183 -22l-31 -187q-45 10 -102 10q-45 0 -76 -28.5t-35 -81.5l-115 -1272q-12 -140 -89.5 -219.5t-201.5 -79.5z" />
    <glyph glyph-name="approxequal" unicode="&#x2248;" 
d="M174 248l-141 28q52 256 227 256q57 0 318.5 -30.5t316.5 -30.5q16 0 27 4t19.5 14.5t12.5 18t11 25.5t10 26l137 -27q-45 -258 -215 -258q-57 0 -321.5 30t-319.5 30q-26 0 -41 -15.5t-41 -70.5zM174 750l-141 28q52 256 227 256q57 0 318.5 -30.5t316.5 -30.5
q16 0 27 4t19.5 14.5t12.5 18t11 25.5t10 26l137 -27q-45 -258 -215 -258q-57 0 -321.5 30t-319.5 30q-26 0 -41 -15.5t-41 -70.5z" />
    <glyph glyph-name="notequal" unicode="&#x2260;" 
d="M463 92l-152 53l78 201h-340v168h406l104 262h-510v168h576l92 234l153 -54l-71 -180h299v-168h-365l-104 -262h469v-168h-535z" />
    <glyph glyph-name="lessequal" unicode="&#x2264;" 
d="M66 0v168h1015v-168h-1015zM973 322l-877 432v137l875 430l78 -154l-705 -344l707 -348z" />
    <glyph glyph-name="greaterequal" unicode="&#x2265;" 
d="M66 0v168h1015v-168h-1015zM174 322l-78 153l707 348l-705 344l78 154l875 -430v-137z" />
    <glyph glyph-name="blacksquare" unicode="&#x25a0;" horiz-adv-x="1581" 
d="M94 0v1462h1393v-1462h-1393z" />
    <glyph glyph-name="whitesquare" unicode="&#x25a1;" horiz-adv-x="1583" 
d="M96 0v1460h1391v-1460h-1391zM270 166h1043v1128h-1043v-1128z" />
    <glyph glyph-name="blacksmallsquare" unicode="&#x25aa;" horiz-adv-x="1347" 
d="M106 0v1133h1135v-1133h-1135z" />
    <glyph glyph-name="triagup" unicode="&#x25b2;" horiz-adv-x="1228" 
d="M160 322v18l432 799h16l461 -799v-18h-909z" />
    <glyph glyph-name="triagrt" unicode="&#x25ba;" horiz-adv-x="1228" 
d="M205 274v910h18l799 -432v-17l-799 -461h-18z" />
    <glyph glyph-name="triagdn" unicode="&#x25bc;" horiz-adv-x="1228" 
d="M621 322l-461 798v19h909v-19l-432 -798h-16z" />
    <glyph glyph-name="triaglf" unicode="&#x25c4;" horiz-adv-x="1228" 
d="M1004 274l-799 461v17l799 432h18v-910h-18z" />
    <glyph glyph-name="lozenge" unicode="&#x25ca;" horiz-adv-x="1171" 
d="M498 0l-447 694v29l447 741h178l444 -741v-29l-444 -694h-178zM596 184l319 514l-333 576l-326 -557z" />
    <glyph glyph-name="uni25E2" unicode="&#x25e2;" horiz-adv-x="1228" 
d="M1051 172l-885 195l-6 16l647 668l14 -2l246 -865z" />
    <glyph glyph-name="uni25E3" unicode="&#x25e3;" horiz-adv-x="1228" 
d="M174 172l-14 12l246 865l14 2l647 -668l-6 -16z" />
    <glyph glyph-name="uni25E4" unicode="&#x25e4;" horiz-adv-x="1228" 
d="M406 172l-246 866l14 13l887 -195l6 -16l-647 -668h-14z" />
    <glyph glyph-name="uni25E5" unicode="&#x25e5;" horiz-adv-x="1228" 
d="M807 172l-647 668l6 16l885 195l16 -13l-246 -866h-14z" />
    <glyph glyph-name="I.alt" unicode="&#xe131;" horiz-adv-x="1110" 
d="M111 0v240h309v981h-309v239h888v-239h-309v-981h309v-240h-888z" />
    <glyph glyph-name="I.alt" unicode="&#xe488;" horiz-adv-x="1110" 
d="M111 0v240h309v981h-309v239h888v-239h-309v-981h309v-240h-888z" />
    <glyph glyph-name="Igrave.alt" unicode="&#xe132;" horiz-adv-x="1110" 
d="M111 0v240h309v981h-309v239h888v-239h-309v-981h309v-240h-888zM465 1597l-264 357h284l174 -357h-194z" />
    <glyph glyph-name="Iacute.alt" unicode="&#xe133;" horiz-adv-x="1110" 
d="M111 0v240h309v981h-309v239h888v-239h-309v-981h309v-240h-888zM444 1597l174 357h285l-264 -357h-195z" />
    <glyph glyph-name="Icircumflex.alt" unicode="&#xe134;" horiz-adv-x="1110" 
d="M111 0v240h309v981h-309v239h888v-239h-309v-981h309v-240h-888zM219 1599l223 357h234l215 -357h-234l-98 205l-110 -205h-230z" />
    <glyph glyph-name="Idieresis.alt" unicode="&#xe135;" horiz-adv-x="1110" 
d="M111 0v240h309v981h-309v239h888v-239h-309v-981h309v-240h-888zM229 1591v269h244v-269h-244zM639 1591v269h244v-269h-244z" />
    <glyph glyph-name="Itilde.alt" unicode="&#xe136;" horiz-adv-x="1110" 
d="M111 0v240h309v981h-309v239h888v-239h-309v-981h309v-240h-888zM307 1583l-162 35q23 120 86.5 193t163.5 73q59 0 167 -31.5t165 -31.5q37 0 54 23.5t28 68.5l158 -35q-20 -120 -80.5 -193t-157.5 -73q-59 0 -170 31.5t-168 31.5q-27 0 -42.5 -16.5t-41.5 -75.5z" />
    <glyph glyph-name="Imacron.alt" unicode="&#xe138;" horiz-adv-x="1110" 
d="M111 0v240h309v981h-309v239h888v-239h-309v-981h309v-240h-888zM272 1608v209h568v-209h-568z" />
    <glyph glyph-name="Ibreve.alt" unicode="&#xe139;" horiz-adv-x="1110" 
d="M111 0v240h309v981h-309v239h888v-239h-309v-981h309v-240h-888zM555 1595q-147 0 -243 95t-97 254h178q11 -83 54.5 -133t115.5 -50q68 0 113.5 45.5t48.5 137.5h170q-1 -85 -29.5 -153.5t-77 -110t-108 -63.5t-125.5 -22z" />
    <glyph glyph-name="Idotaccent.alt" unicode="&#xe13c;" horiz-adv-x="1110" 
d="M111 0v240h309v981h-309v239h888v-239h-309v-981h309v-240h-888zM434 1589v269h244v-269h-244z" />
    <glyph glyph-name="Iogonek.alt" unicode="&#xe13e;" horiz-adv-x="1110" 
d="M111 0v240h309v981h-309v239h888v-239h-309v-981h309v-240h-6q-112 -19 -167.5 -66.5t-55.5 -103.5q0 -90 102 -90q70 0 134 39l94 -135q-105 -88 -252 -88q-72 0 -132.5 24.5t-100.5 78t-40 128.5q0 128 113 213h-577z" />
    <glyph glyph-name="zero.dnom" unicode="&#xe402;" horiz-adv-x="780" 
d="M391 -25q-58 0 -110 14t-98 42t-73.5 79.5t-27.5 118.5v334q0 87 46 147t114 85.5t149 25.5q58 0 111.5 -15t98 -45.5t71 -82.5t26.5 -119v-328q0 -64 -27 -114.5t-72 -80.5t-98.5 -45.5t-109.5 -15.5zM391 135q49 0 76 29.5t27 71.5v333q0 40 -27.5 66.5t-75.5 26.5
t-76 -27.5t-28 -69.5v-334q0 -41 27 -68.5t77 -27.5z" />
    <glyph glyph-name="one.dnom" unicode="&#xe403;" horiz-adv-x="661" 
d="M90 0v137h156v500l-150 -12l-12 133l268 57h92v-678h142v-137h-496z" />
    <glyph glyph-name="two.dnom" unicode="&#xe404;" horiz-adv-x="714" 
d="M90 0v131l297 334q22 24 38.5 58.5t16.5 66.5v6q0 37 -22 60.5t-70 23.5q-44 0 -67 -27.5t-23 -70.5v-25h-184v41q0 112 80.5 174t210.5 62q131 0 201.5 -67t70.5 -175q0 -29 -5.5 -56.5t-21.5 -57.5t-26.5 -49t-38 -51.5t-36.5 -43.5t-43 -46t-38 -40l-78 -84v-4h293
v-160h-555z" />
    <glyph glyph-name="three.dnom" unicode="&#xe405;" horiz-adv-x="727" 
d="M350 -25q-136 0 -208 59.5t-72 166.5v28h188v-22q0 -78 104 -78q42 0 68.5 28t26.5 76q0 29 -12.5 49.5t-32 30t-36.5 13.5t-34 4h-70v141h68q53 0 79.5 22t26.5 76q0 44 -27.5 68.5t-64.5 24.5q-92 0 -92 -82v-17h-186v29q0 102 76 165.5t206 63.5q132 0 205.5 -63
t73.5 -162q0 -67 -33 -116t-88 -68v-4q64 -18 105 -68t41 -121q0 -51 -19 -93.5t-49.5 -69.5t-72 -46t-84 -27t-87.5 -8z" />
    <glyph glyph-name="four.dnom" unicode="&#xe406;" horiz-adv-x="739" 
d="M406 0v178h-351v146l301 495h219l-315 -487h146v100l188 121v-221h86v-154h-86v-178h-188z" />
    <glyph glyph-name="five.dnom" unicode="&#xe407;" horiz-adv-x="727" 
d="M362 -25q-125 0 -203.5 55.5t-78.5 147.5v51h186v-20q0 -35 28 -56.5t75 -21.5q45 0 70.5 29t25.5 86v51q0 41 -28.5 63.5t-71.5 22.5q-56 0 -93 -43l-172 22l21 445h493v-166h-338l-6 -164q68 47 172 47q39 0 76 -11.5t70.5 -34t53.5 -62.5t20 -92v-97q0 -120 -87 -186
t-213 -66z" />
    <glyph glyph-name="six.dnom" unicode="&#xe408;" horiz-adv-x="763" 
d="M379 -25q-124 0 -210.5 66.5t-86.5 179.5v350q0 115 89.5 182.5t217.5 67.5q130 0 205.5 -57.5t75.5 -159.5v-37h-189v21q0 39 -25.5 59.5t-68.5 20.5q-48 0 -74 -26.5t-26 -68.5v-127q80 66 184 66q97 0 154 -51t57 -135v-117q0 -111 -87.5 -172.5t-215.5 -61.5z
M385 131q49 0 75.5 24t26.5 60v82q0 43 -30.5 62.5t-69.5 19.5t-69.5 -27t-30.5 -80v-49q0 -40 26 -66t72 -26z" />
    <glyph glyph-name="seven.dnom" unicode="&#xe409;" horiz-adv-x="712" 
d="M160 0q4 170 88 353.5t192 299.5h-364v164h579v-139q-47 -48 -90.5 -108.5t-91 -147t-76 -197t-28.5 -225.5h-209z" />
    <glyph glyph-name="eight.dnom" unicode="&#xe40a;" horiz-adv-x="763" 
d="M381 -25q-137 0 -218 54.5t-81 169.5v43q0 54 27.5 96t72.5 65q-40 17 -64 58.5t-24 87.5v43q0 108 82.5 168.5t204.5 60.5q79 0 142.5 -22.5t105 -73.5t41.5 -123v-59q0 -45 -25 -82.5t-63 -57.5q41 -18 70.5 -62t29.5 -93v-51q0 -103 -86 -162.5t-215 -59.5zM381 121
q46 0 73 22t27 64v39q0 44 -29 64t-71 20t-71 -19.5t-29 -56.5v-49q0 -39 28.5 -61.5t71.5 -22.5zM383 469q42 0 70 22t28 62v39q0 42 -29 62t-71 20q-41 0 -69.5 -20t-28.5 -56v-47q0 -40 28 -61t72 -21z" />
    <glyph glyph-name="nine.dnom" unicode="&#xe40b;" horiz-adv-x="763" 
d="M375 -27q-130 0 -205.5 58t-75.5 159v37h191v-20q0 -38 25 -58t67 -20q48 0 74 25.5t26 68.5v129q-54 -71 -184 -71q-97 0 -154 52.5t-57 135.5v119q0 110 87 170.5t216 60.5q125 0 211 -66.5t86 -179.5v-350q0 -115 -89.5 -182.5t-217.5 -67.5zM373 416q39 0 71.5 28
t32.5 80v51q0 40 -26.5 67.5t-71.5 27.5q-48 0 -75.5 -24.5t-27.5 -61.5v-84q0 -42 30 -63t67 -21z" />
    <glyph glyph-name="comma.dnom" unicode="&#xe40d;" horiz-adv-x="626" 
d="M125 -162l33 162h-68v197h193v-183l-72 -176h-86z" />
    <glyph glyph-name="period.dnom" unicode="&#xe40e;" horiz-adv-x="372" 
d="M90 0v197h193v-197h-193z" />
    <glyph glyph-name="parenleft.dnom" unicode="&#xe40f;" horiz-adv-x="419" 
d="M293 -154q-79 95 -128.5 236t-49.5 289q0 141 48 276.5t130 233.5h98q-56 -140 -79 -252t-23 -258q0 -283 102 -525h-98z" />
    <glyph glyph-name="parenright.dnom" unicode="&#xe410;" horiz-adv-x="419" 
d="M127 -154h-98q102 242 102 525q0 146 -23 258t-79 252h98q82 -98 130 -233.5t48 -276.5q0 -148 -49.5 -289t-128.5 -236z" />
    <glyph glyph-name="caronSlovak" unicode="&#xe413;" horiz-adv-x="546" 
d="M123 1049l31 411h243l-100 -411h-174z" />
    <glyph glyph-name="commaaccent" unicode="&#xe414;" horiz-adv-x="546" 
d="M109 -395l24 327h270l-81 -327h-213z" />
    <glyph glyph-name="commaaccent" unicode="&#xf6c3;" horiz-adv-x="546" 
d="M109 -395l24 327h270l-81 -327h-213z" />
    <glyph glyph-name="zero.numr" unicode="&#xe416;" horiz-adv-x="780" 
d="M391 627q-58 0 -110 14t-98 42t-73.5 79.5t-27.5 118.5v333q0 66 26.5 117t71 81t98 45.5t113.5 15.5q58 0 111.5 -15.5t98 -46t71 -82.5t26.5 -119v-327q0 -64 -27 -114.5t-72 -80.5t-98.5 -45.5t-109.5 -15.5zM391 786q49 0 76 29.5t27 71.5v334q0 40 -27.5 66
t-75.5 26t-76 -27t-28 -69v-334q0 -41 27 -69t77 -28z" />
    <glyph glyph-name="one.numr" unicode="&#xe417;" horiz-adv-x="661" 
d="M90 651v137h156v500l-150 -12l-12 133l268 57h92v-678h142v-137h-496z" />
    <glyph glyph-name="two.numr" unicode="&#xe418;" horiz-adv-x="714" 
d="M90 651v131l297 334q22 24 38.5 58.5t16.5 66.5v6q0 37 -22 60.5t-70 23.5q-44 0 -67 -27.5t-23 -70.5v-25h-184v41q0 112 80.5 174t210.5 62q131 0 201.5 -67t70.5 -175q0 -29 -5.5 -56.5t-21.5 -57.5t-26.5 -49t-38 -51.5t-36.5 -43.5t-43 -46t-38 -40l-78 -84v-4h293
v-160h-555z" />
    <glyph glyph-name="three.numr" unicode="&#xe419;" horiz-adv-x="727" 
d="M350 627q-136 0 -208 59t-72 166v29h188v-23q0 -78 104 -78q42 0 68.5 28t26.5 77q0 38 -22.5 61t-45.5 29t-47 6h-70v141h68q53 0 79.5 22.5t26.5 76.5q0 44 -27.5 68t-64.5 24q-92 0 -92 -82v-17h-186v29q0 102 76 166t206 64q132 0 205.5 -63.5t73.5 -162.5
q0 -67 -33 -116t-88 -68v-4q64 -18 105 -68t41 -121q0 -64 -28 -112.5t-74.5 -76t-99.5 -41t-110 -13.5z" />
    <glyph glyph-name="four.numr" unicode="&#xe41a;" horiz-adv-x="739" 
d="M406 651v178h-351v146l301 495h219l-315 -487h146v100l188 121v-221h86v-154h-86v-178h-188z" />
    <glyph glyph-name="five.numr" unicode="&#xe41b;" horiz-adv-x="727" 
d="M362 627q-126 0 -204 55t-78 147v52h186v-21q0 -35 28 -56.5t75 -21.5q45 0 70.5 29t25.5 86v51q0 41 -28.5 63.5t-71.5 22.5q-56 0 -93 -43l-172 23l21 444h493v-166h-338l-6 -164q70 48 172 48q53 0 101 -19t83.5 -66.5t35.5 -115.5v-96q0 -120 -87 -186t-213 -66z" />
    <glyph glyph-name="six.numr" unicode="&#xe41c;" horiz-adv-x="763" 
d="M379 627q-124 0 -210.5 66t-86.5 179v351q0 115 89.5 182.5t217.5 67.5q130 0 205.5 -58t75.5 -160v-36h-189v20q0 39 -25.5 59.5t-68.5 20.5q-48 0 -74 -26.5t-26 -67.5v-127q78 65 184 65q97 0 154 -51t57 -135v-117q0 -110 -87 -171.5t-216 -61.5zM385 782
q49 0 75.5 24t26.5 60v82q0 43 -30.5 62.5t-69.5 19.5t-69.5 -27t-30.5 -79v-50q0 -40 26 -66t72 -26z" />
    <glyph glyph-name="seven.numr" unicode="&#xe41d;" horiz-adv-x="712" 
d="M160 651q4 170 88 354t192 300h-364v163h579v-139q-47 -48 -90.5 -108.5t-91 -147t-76 -197t-28.5 -225.5h-209z" />
    <glyph glyph-name="eight.numr" unicode="&#xe41e;" horiz-adv-x="763" 
d="M381 627q-137 0 -218 54.5t-81 168.5v43q0 54 27.5 96.5t72.5 65.5q-40 17 -64 58t-24 87v43q0 108 82.5 169t204.5 61q79 0 142.5 -23t105 -74t41.5 -123v-59q0 -45 -25 -82t-63 -57q41 -18 70.5 -62t29.5 -94v-51q0 -102 -86 -161.5t-215 -59.5zM381 772q46 0 73 22
t27 64v39q0 44 -29 64t-71 20t-71 -19.5t-29 -56.5v-49q0 -39 28.5 -61.5t71.5 -22.5zM383 1120q42 0 70 22t28 62v39q0 42 -29 62t-71 20q-41 0 -69.5 -20t-28.5 -56v-47q0 -40 28 -61t72 -21z" />
    <glyph glyph-name="nine.numr" unicode="&#xe41f;" horiz-adv-x="763" 
d="M375 625q-130 0 -205.5 58t-75.5 159v37h191v-21q0 -38 25 -58t67 -20q48 0 74 25.5t26 68.5v130q-55 -72 -184 -72q-97 0 -154 52.5t-57 135.5v119q0 110 87 170.5t216 60.5q125 0 211 -66t86 -179v-351q0 -115 -89.5 -182t-217.5 -67zM373 1067q39 0 71.5 28.5
t32.5 80.5v51q0 40 -26 67t-72 27q-48 0 -75.5 -24.5t-27.5 -61.5v-84q0 -42 30 -63t67 -21z" />
    <glyph glyph-name="comma.numr" unicode="&#xe421;" horiz-adv-x="626" 
d="M125 489l33 162h-68v197h193v-182l-72 -177h-86z" />
    <glyph glyph-name="period.numr" unicode="&#xe422;" horiz-adv-x="372" 
d="M90 651v197h193v-197h-193z" />
    <glyph glyph-name="parenleft.numr" unicode="&#xe423;" horiz-adv-x="419" 
d="M293 498q-79 96 -128.5 236t-49.5 288q0 141 48 276.5t130 233.5h98q-56 -140 -79 -252t-23 -258q0 -282 102 -524h-98z" />
    <glyph glyph-name="parenright.numr" unicode="&#xe424;" horiz-adv-x="419" 
d="M127 498h-98q102 242 102 524q0 146 -23 258t-79 252h98q82 -98 130 -233.5t48 -276.5q0 -148 -49.5 -288t-128.5 -236z" />
    <glyph glyph-name="numbersign.LP" unicode="&#xe533;" 
d="M162 -2l63 377h-207l29 160h203l74 419h-215l28 156h207l59 348h156l-55 -348h266l57 348h156l-59 -348h202l-22 -156h-203l-74 -419h207l-22 -160h-209l-64 -377h-155l61 377h-266l-62 -377h-155zM408 535h264l71 419h-266z" />
    <glyph glyph-name="zero.LT" unicode="&#xe53f;" 
d="M575 -25q-100 0 -188.5 25.5t-161.5 76t-116 137t-43 198.5v624q0 110 42.5 197.5t115 141.5t163 82t191.5 28t190 -27.5t160 -81.5t112 -142t41 -200v-616q0 -106 -43 -192t-114.5 -140t-161 -82.5t-187.5 -28.5zM575 190q110 0 172 68t62 166v620q0 98 -60.5 162
t-170.5 64q-111 0 -174.5 -66t-63.5 -168v-614q0 -99 61.5 -165.5t173.5 -66.5z" />
    <glyph glyph-name="one.LT" unicode="&#xe541;" 
d="M137 0v193h318v1034l-297 -31l-21 184l481 88h95v-1275h297v-193h-873z" />
    <glyph glyph-name="two.LT" unicode="&#xe542;" 
d="M139 0v172l488 573q66 77 99.5 151.5t33.5 160.5v41q0 79 -51.5 128.5t-151.5 49.5q-97 0 -151 -52t-54 -141v-39h-248v54q0 186 131.5 287.5t344.5 101.5q216 0 335 -112t119 -294q0 -44 -6 -86.5t-21 -84t-29 -75t-41 -74.5t-45.5 -68t-54 -68.5t-54 -63t-58.5 -65.5
t-57 -62l-189 -211v-4h565v-219h-905z" />
    <glyph glyph-name="three.LT" unicode="&#xe543;" 
d="M555 -25q-228 0 -348.5 101.5t-120.5 263.5v53h254v-39q0 -85 63 -127.5t164 -42.5q97 0 157 63.5t60 172.5q0 55 -17 96t-41.5 63t-58 35.5t-59 17t-51.5 3.5h-176v219h160q105 0 161 49t56 160q0 54 -18.5 95.5t-49.5 65t-65 35t-70 11.5q-103 0 -155 -51.5t-52 -141.5
v-14h-248v49q0 163 124 268t337 105q115 0 205 -32.5t143 -88t80 -122.5t27 -142q0 -120 -58.5 -212t-154.5 -124v-8q109 -32 184.5 -122.5t75.5 -221.5q0 -108 -42 -193t-114 -137.5t-162 -79.5t-190 -27z" />
    <glyph glyph-name="four.LT" unicode="&#xe544;" 
d="M668 0v369h-615v200l545 893h293l-561 -884h338v231l254 133v-364h174v-209h-174v-369h-254z" />
    <glyph glyph-name="five.LT" unicode="&#xe545;" 
d="M559 -25q-217 0 -341 97.5t-124 244.5v76h252v-37q0 -79 63 -123.5t158 -44.5q98 0 156.5 60.5t58.5 195.5v105q0 94 -64.5 144t-154.5 50q-125 0 -215 -94l-227 35l43 776h815v-237h-602l-17 -344q126 86 304 86q52 0 105 -13t104.5 -41.5t91 -69.5t64 -102.5
t24.5 -134.5v-158q0 -152 -67 -260t-177 -159.5t-250 -51.5z" />
    <glyph glyph-name="six.LT" unicode="&#xe546;" 
d="M567 -25q-209 0 -347 119t-138 314v636q0 100 39.5 184t108 139.5t160 86.5t194.5 31q214 0 338.5 -98.5t124.5 -268.5v-51h-254v29q0 86 -57.5 132t-155.5 46q-108 0 -166 -61.5t-58 -159.5v-248q60 63 148.5 100t185.5 37q168 0 271.5 -88.5t103.5 -237.5v-237
q0 -128 -67.5 -221t-179 -138t-251.5 -45zM580 186q108 0 165.5 55.5t57.5 139.5v174q0 49 -19.5 85t-52 55t-68 27.5t-75.5 8.5q-87 0 -159.5 -64.5t-72.5 -170.5v-93q0 -92 58.5 -154.5t165.5 -62.5z" />
    <glyph glyph-name="seven.LT" unicode="&#xe547;" 
d="M229 0q4 177 53.5 364.5t127 346t162.5 288.5t173 224h-653v237h963v-200q-47 -53 -80.5 -92t-93.5 -119t-103 -152t-94.5 -178.5t-84.5 -211t-56 -237.5t-25 -270h-289z" />
    <glyph glyph-name="eight.LT" unicode="&#xe548;" 
d="M569 -25q-224 0 -356.5 97t-132.5 286v91q0 97 52 176t136 118q-78 32 -124 107t-46 166v74q0 94 39 170.5t105 125t150.5 74t178.5 25.5q93 0 176.5 -22t150.5 -65.5t106.5 -115.5t39.5 -164q4 -129 0 -135q0 -77 -50 -142t-124 -96q85 -29 141 -111.5t56 -178.5v-88
q0 -182 -141 -287t-357 -105zM569 178q100 0 164 51.5t64 147.5v74q0 97 -65 140.5t-159 43.5q-45 0 -84 -9.5t-71.5 -30t-51 -56t-18.5 -82.5v-82q0 -89 64 -143t157 -54zM575 842q89 0 153.5 50t64.5 136v78q0 91 -64.5 133.5t-159.5 42.5q-88 0 -150.5 -47.5
t-62.5 -132.5v-76q0 -92 63 -138t156 -46z" />
    <glyph glyph-name="nine.LT" unicode="&#xe549;" 
d="M557 -25q-212 0 -334.5 97.5t-122.5 267.5v53h254v-31q0 -85 58 -131.5t155 -46.5q108 0 166 63t58 161v245q-47 -72 -138.5 -109.5t-195.5 -37.5q-166 0 -270.5 94t-104.5 244v237q0 128 67.5 221t179 138t251.5 45q209 0 347 -118.5t138 -311.5v-643q0 -133 -70.5 -234
t-185 -152t-252.5 -51zM555 721q87 0 161.5 65.5t74.5 171.5v99q0 92 -58.5 156.5t-165.5 64.5q-108 0 -165.5 -55.5t-57.5 -139.5v-176q0 -93 63.5 -139.5t147.5 -46.5z" />
    <glyph glyph-name="apple" unicode="&#xf8ff;" horiz-adv-x="2066" 
d="M1284 -158l-315 6l-37 -4l-12 15q18 5 42.5 11.5t38.5 10.5q33 11 56 27.5t34 37t15 31t8 27.5q17 153 29 449l-201 -7l4 23l199 12q16 301 20 449l80 47q-113 6 -364 14q-1 -33 -15 -284q-7 -122 -39.5 -222.5t-77 -162.5t-97.5 -104.5t-98.5 -59.5t-82.5 -17
q-58 0 -161 30.5t-146 55.5l47 76q5 -1 70 -26.5t138.5 -48t115.5 -21.5q64 1 124 60.5t96 154.5t33 192l11 379q-20 0 -61.5 1t-63.5 1q-121 0 -218.5 -88.5t-97.5 -212.5q37 -82 158 -137q0 -10 -12.5 -39t-20.5 -37q-135 57 -149 197q0 149 112 255.5t291 137.5h64
l10 340l82 37q-416 16 -498 16q-121 0 -218 -86.5t-97 -210.5q38 -77 160 -129q0 -5 -9 -20.5t-21 -35.5l-13 -19q-138 58 -152 196q0 73 34.5 138.5t91 113t123 80.5t136.5 51q131 0 369.5 -10t333.5 -12q29 0 127 -4q9 0 41 -1.5t40 -1.5q21 -1 68 7q31 23 45 55l16 -6
q-16 -42 -49 -70q-63 -32 -113 -45.5t-118 -13.5q-95 0 -287 8q-6 -28 -9 -144t-5 -133l-4 -102q41 -1 345.5 -15t465.5 -14l75 -2q177 2 242 33l8 -12q-107 -47 -214 -67.5t-244 -20.5t-301 6q-6 -42 -16.5 -211.5t-10.5 -171.5q0 -19 -4 -109l301 21h8l8 -6l-71 -107
l-15 8l47 72l-280 -18q-9 -163 -27 -396q-5 -35 -41 -85.5t-71 -67.5l2 -2q61 10 183 11.5t155 4.5v-2q0 -22 -18 -45.5t-40 -26.5q-23 -4 -88 -4z" />
    <glyph glyph-name="CR" horiz-adv-x="0" 
 />
    <glyph glyph-name="commatop" horiz-adv-x="546" 
d="M133 1214v146l84 211h137l-39 -152h88v-205h-270z" />
    <glyph glyph-name="ringacute" horiz-adv-x="677" 
d="M338 1196q-98 0 -155.5 55t-57.5 140q0 86 70 153l290 279l150 -178l-166 -82q84 -54 84 -160q0 -88 -63 -147.5t-152 -59.5zM338 1300q40 0 67 28t27 69t-25 68.5t-69 27.5q-42 0 -67 -27.5t-25 -68.5t27 -69t65 -28z" />
    <glyph glyph-name="altogonek" horiz-adv-x="819" 
d="M420 -444q-72 0 -132.5 24.5t-100.5 78t-40 128.5q0 112 73.5 187.5t197.5 109.5l127 -84q-110 -19 -156.5 -65t-46.5 -105q0 -90 102 -90q70 0 134 39l94 -135q-105 -88 -252 -88z" />
    <glyph glyph-name="period.sub" horiz-adv-x="372" 
d="M90 -272v196h193v-196h-193z" />
    <glyph glyph-name="comma.sub" horiz-adv-x="626" 
d="M125 -434l33 162h-68v196h193v-182l-72 -176h-86z" />
    <glyph glyph-name="period.sup" horiz-adv-x="372" 
d="M90 778v197h193v-197h-193z" />
    <glyph glyph-name="comma.sup" horiz-adv-x="626" 
d="M125 616l33 162h-68v197h193v-182l-72 -177h-86z" />
    <glyph glyph-name="LF" horiz-adv-x="0" 
 />
    <glyph glyph-name="RS" horiz-adv-x="0" 
 />
    <glyph glyph-name="US" horiz-adv-x="0" 
 />
    <glyph glyph-name="IJ.alt" horiz-adv-x="2185" 
d="M111 0v240h309v981h-309v239h888v-239h-309v-981h309v-240h-888zM1550 -2q-239 0 -371 117t-132 358v94h272v-71q0 -50 9 -89.5t33.5 -79t76 -61.5t127.5 -22q101 0 157 78.5t56 197.5v961h272v-1004q0 -91 -35 -176.5t-97 -153t-158.5 -108.5t-209.5 -41z" />
    <glyph glyph-name="ogonekplus" horiz-adv-x="819" 
d="M420 -444q-72 0 -132.5 24.5t-100.5 78t-40 128.5q0 56 24 104t66.5 82.5t93.5 59t113 41.5l48 -74q-71 -26 -110.5 -74t-39.5 -96q0 -90 102 -90q70 0 134 39l94 -135q-105 -88 -252 -88z" />
    <glyph glyph-name="idotaccent" horiz-adv-x="520" 
d="M135 0v1049h250v-1049h-250zM135 1208v267h250v-267h-250z" />
    </font>
</defs>
</svg>
