<svg width="40" height="40" viewBox="0 0 40 40" fill="none" xmlns="http://www.w3.org/2000/svg">
<g filter="url(#filter0_d)">
<path fill-rule="evenodd" clip-rule="evenodd" d="M32.9485 16.8641C32.0041 17.3473 30.9341 17.6198 29.8004 17.6198C25.9774 17.6198 22.8783 14.5207 22.8783 10.6978C22.8783 9.08837 23.4276 7.60727 24.3488 6.43167C23.4464 5.62503 22.8783 4.45206 22.8783 3.14641C22.8783 2.09616 23.2459 1.13175 23.8594 0.374812C22.7323 0.129328 21.5619 0 20.3612 0C11.3252 0 4 7.32517 4 16.3612C4 25.3973 11.3252 32.7225 20.3612 32.7225C27.7186 32.7225 33.9417 27.8662 36 21.1842C34.2285 20.6136 32.9468 18.9518 32.9468 16.9905C32.9468 16.9482 32.9474 16.9061 32.9485 16.8641Z" fill="#000099"/>
</g>
<circle cx="16.5856" cy="16.3612" r="2.51711" fill="#EFF0FC"/>
<circle cx="16.5856" cy="8.80992" r="1.25856" fill="#EFF0FC"/>
<circle cx="25.3955" cy="23.9126" r="1.25856" fill="#EFF0FC"/>
<circle cx="14.6977" cy="24.5419" r="1.88783" fill="#EFF0FC"/>
<defs>
<filter id="filter0_d" x="0.614437" y="0" width="38.7711" height="39.4936" filterUnits="userSpaceOnUse" color-interpolation-filters="sRGB">
<feFlood flood-opacity="0" result="BackgroundImageFix"/>
<feColorMatrix in="SourceAlpha" type="matrix" values="0 0 0 0 0 0 0 0 0 0 0 0 0 0 0 0 0 0 127 0"/>
<feOffset dy="3.38556"/>
<feGaussianBlur stdDeviation="1.69278"/>
<feColorMatrix type="matrix" values="0 0 0 0 0.4625 0 0 0 0 0.4625 0 0 0 0 0.925 0 0 0 0.12 0"/>
<feBlend mode="normal" in2="BackgroundImageFix" result="effect1_dropShadow"/>
<feBlend mode="normal" in="SourceGraphic" in2="effect1_dropShadow" result="shape"/>
</filter>
</defs>
</svg>
